<?xml version="1.0" encoding="utf-8"?>
<!-- Generator: Adobe Illustrator 16.0.0, SVG Export Plug-In . SVG Version: 6.00 Build 0)  -->
<!DOCTYPE svg PUBLIC "-//W3C//DTD SVG 1.1//EN" "http://www.w3.org/Graphics/SVG/1.1/DTD/svg11.dtd">
<svg version="1.1" id="Layer_1" xmlns="http://www.w3.org/2000/svg" xmlns:xlink="http://www.w3.org/1999/xlink" x="0px" y="0px"
	 width="474.001px" height="449.521px" viewBox="0 0 474.001 449.521" enable-background="new 0 0 474.001 449.521"
	 xml:space="preserve">
<g>
	<path fill-rule="evenodd" clip-rule="evenodd" fill="#0C89CB" d="M0,0c158,0,316,0,474.001,0c0,149.84,0,299.681,0,449.521
		c-158.001,0-316.001,0-474.001,0C0,299.681,0,149.84,0,0z"/>
	<path fill-rule="evenodd" clip-rule="evenodd" fill="#FCFCFC" d="M237.147,8.878c75.399,0,150.798,0,226.197,0
		c1.808,0,1.808,0,1.808,1.858c0,142.758,0,285.517-0.005,428.275c-0.001,1.989,0.33,1.749-1.797,1.749
		c-150.799,0.005-301.597,0.004-452.396,0.004c-1.867,0-1.867,0-1.867-1.809c0-142.718,0-285.436,0-428.154
		c0-1.924,0-1.924,1.981-1.924C86.429,8.878,161.788,8.878,237.147,8.878z"/>
	<path fill-rule="evenodd" clip-rule="evenodd" fill="#0C89CB" d="M186.923,108.388c-0.003,33.336-27.064,60.359-60.406,60.32
		c-33.281-0.039-60.253-27.068-60.24-60.366c0.013-33.253,27.083-60.292,60.345-60.276
		C159.892,48.082,186.925,75.125,186.923,108.388z"/>
	<path fill-rule="evenodd" clip-rule="evenodd" fill="#0C89CB" d="M224.57,301.877c0.222-0.515,0.131-0.957,0.131-1.385
		c0.006-10.076,0.005-20.153,0.005-30.229c0-0.279-0.006-0.56,0.001-0.84c0.024-0.872,0.026-0.897,0.85-0.901
		c2.479-0.013,4.958,0.012,7.438-0.016c0.624-0.008,0.885,0.198,0.812,0.821c-0.023,0.197-0.003,0.399-0.003,0.599
		c0,15.155,0.002,30.31-0.002,45.464c0,1.632,0.154,1.426-1.378,1.435c-1.839,0.011-3.68-0.036-5.517,0.021
		c-0.799,0.024-1.316-0.24-1.826-0.848c-8.221-9.804-16.463-19.59-24.701-29.378c-1.046-1.243-2.097-2.482-3.243-3.837
		c-0.228,0.566-0.148,1.002-0.148,1.417c-0.006,10.396-0.002,20.792-0.007,31.188c0,1.561,0.178,1.435-1.392,1.438
		c-2.279,0.006-4.559,0.008-6.838-0.002c-0.838-0.004-0.84-0.021-0.865-0.865c-0.007-0.239-0.002-0.479-0.002-0.72
		c0-15.074,0-30.149,0-45.224c0-0.2-0.004-0.4,0.001-0.6c0.022-0.868,0.023-0.89,0.838-0.895c2.199-0.012,4.399,0.032,6.597-0.023
		c0.742-0.019,1.062,0.43,1.444,0.88c5.986,7.034,11.971,14.067,17.957,21.102c2.98,3.501,5.959,7.004,8.943,10.502
		C223.918,301.278,224.125,301.628,224.57,301.877z"/>
	<path fill-rule="evenodd" clip-rule="evenodd" fill="#0C89CB" d="M300.854,268.693c0.439-0.249,0.765-0.173,1.074-0.174
		c3.16-0.006,6.32,0.02,9.479-0.021c0.755-0.01,1.237,0.218,1.716,0.813c3.835,4.769,7.705,9.508,11.57,14.251
		c0.322,0.396,0.59,0.851,1.032,1.119c0.396-0.158,0.548-0.504,0.767-0.776c3.879-4.835,7.762-9.667,11.615-14.522
		c0.489-0.616,0.985-0.898,1.799-0.887c3.396,0.048,6.794,0.02,10.258,0.02c-0.023,0.593-0.442,0.876-0.719,1.217
		c-5.658,6.997-11.331,13.982-16.986,20.981c-0.995,1.231-1.076,0.823-0.003,2.121c6.297,7.61,12.606,15.212,18.906,22.82
		c0.244,0.295,0.581,0.541,0.646,0.988c-0.293,0.231-0.623,0.124-0.921,0.125c-3.2,0.011-6.4-0.021-9.6,0.025
		c-0.807,0.012-1.31-0.263-1.805-0.879c-4.263-5.296-8.557-10.567-12.842-15.846c-0.327-0.402-0.658-0.801-0.979-1.192
		c-0.499,0.083-0.646,0.497-0.885,0.79c-4.395,5.396-8.791,10.79-13.153,16.212c-0.527,0.656-1.065,0.928-1.909,0.915
		c-3.079-0.048-6.16-0.019-9.239-0.019c-0.347,0-0.692,0-1.143,0c0.16-0.581,0.505-0.869,0.77-1.191
		c6.262-7.641,12.53-15.274,18.798-22.91c0.846-1.03,0.775-0.829,0.011-1.761c-5.735-6.985-11.478-13.966-17.217-20.947
		C301.567,269.568,301.242,269.169,300.854,268.693z"/>
	<path fill-rule="evenodd" clip-rule="evenodd" fill="#0C89CB" d="M246.872,284.69c0-4.879,0-9.758,0-14.637
		c0-0.24-0.007-0.48,0.001-0.72c0.029-0.878,0.031-0.904,0.861-0.899c2.559,0.015,5.118,0.064,7.678,0.067
		c0.606,0.001,0.907,0.175,0.837,0.82c-0.03,0.277-0.004,0.56-0.004,0.84c0,8.558-0.004,17.116,0.004,25.674
		c0.002,1.398,0.016,2.793,0.22,4.188c0.611,4.168,2.978,6.931,6.845,8.356c4.346,1.604,8.675,1.282,12.786-0.807
		c3.121-1.585,4.686-4.342,5.189-7.755c0.229-1.55,0.25-3.106,0.251-4.666c0.001-8.277,0-16.556,0-24.834
		c0-0.24-0.001-0.48,0.001-0.72c0.009-1.171,0.009-1.178,1.182-1.181c2.399-0.005,4.799-0.008,7.198,0.002
		c0.967,0.005,0.981,0.021,0.982,1.009c0.006,4.719,0.003,9.438,0.003,14.157c0,4.56-0.008,9.118,0.002,13.677
		c0.005,2.252-0.228,4.475-0.841,6.641c-1.617,5.71-5.25,9.584-10.77,11.712c-3.915,1.509-8,1.834-12.146,1.731
		c-2.74-0.067-5.396-0.578-7.983-1.472c-6.7-2.315-10.532-7.091-11.956-13.933c-0.27-1.298-0.354-2.613-0.355-3.935
		c-0.003-4.439-0.001-8.879-0.001-13.317C246.861,284.69,246.866,284.69,246.872,284.69z"/>
	<path fill-rule="evenodd" clip-rule="evenodd" fill="#0D89CB" d="M237.124,204.93c-47.557,0-95.114,0.001-142.671-0.004
		c-2.072,0-1.738,0.28-1.774-1.776c-0.003-0.2,0.011-0.4,0-0.6c-0.026-0.448,0.163-0.673,0.627-0.653c0.279,0.012,0.56,0,0.84,0
		c95.314,0,190.628,0,285.942,0.001c1.646,0,1.475-0.139,1.47,1.485c-0.004,1.723,0.22,1.545-1.522,1.545
		C332.398,204.93,284.761,204.93,237.124,204.93z"/>
	<path fill-rule="evenodd" clip-rule="evenodd" fill="#0C89CB" d="M231.04,380.449c0.236-0.646,0.161-1.089,0.162-1.522
		c0.005-7.88,0.004-15.76,0.004-23.64c0-0.319,0.015-0.64,0.001-0.959c-0.02-0.471,0.218-0.63,0.658-0.628c2,0.008,4,0.013,6-0.003
		c0.537-0.004,0.706,0.243,0.667,0.734c-0.02,0.238-0.003,0.479-0.003,0.719c0.001,11.88,0.001,23.76,0,35.64
		c0,0.159,0.003,0.319,0,0.479c-0.017,1.018-0.017,1.026-1.089,1.032c-1.439,0.009-2.88-0.028-4.319,0.016
		c-0.701,0.021-1.181-0.202-1.633-0.749c-2.321-2.804-4.681-5.575-7.026-8.357c-4.82-5.719-9.64-11.438-14.463-17.153
		c-0.245-0.29-0.448-0.639-0.977-0.922c0,0.568,0,0.991,0,1.414c0,8,0,16,0,23.999c0,0.28,0.006,0.561-0.001,0.84
		c-0.024,0.876-0.025,0.902-0.848,0.909c-1.88,0.017-3.76-0.011-5.64,0.015c-0.623,0.008-0.887-0.223-0.824-0.842
		c0.02-0.197,0.003-0.399,0.003-0.6c0-11.88,0-23.759,0-35.639c0-0.16-0.002-0.32,0-0.479c0.019-1.037,0.019-1.045,1.072-1.051
		c1.44-0.008,2.882,0.049,4.319-0.021c0.853-0.041,1.385,0.281,1.919,0.913c6.905,8.146,13.835,16.271,20.759,24.399
		C230.162,379.442,230.55,379.884,231.04,380.449z"/>
	<path fill-rule="evenodd" clip-rule="evenodd" fill="#0C89CB" d="M304.129,392.304c-0.059-0.6,0.188-0.936,0.335-1.294
		c4.974-12.083,9.953-24.165,14.932-36.246c0.436-1.057,0.438-1.061,1.529-1.063c1.88-0.004,3.76,0.024,5.639-0.014
		c0.651-0.014,0.986,0.191,1.259,0.809c5.433,12.322,10.891,24.635,16.341,36.949c0.094,0.213,0.249,0.413,0.204,0.667
		c-0.21,0.288-0.515,0.186-0.775,0.187c-2,0.01-4-0.023-5.999,0.021c-0.706,0.016-1.071-0.211-1.342-0.876
		c-1.008-2.48-2.112-4.922-3.103-7.408c-0.342-0.857-0.749-1.206-1.735-1.193c-4.958,0.063-9.918,0.026-14.877,0.03
		c-1.115,0.001-1.045-0.121-1.471,0.971c-0.987,2.531-2.018,5.046-2.978,7.588c-0.253,0.672-0.601,0.903-1.311,0.889
		C308.582,392.276,306.387,392.304,304.129,392.304z"/>
	<path fill-rule="evenodd" clip-rule="evenodd" fill="#0C89CB" d="M122.572,292.528c0-7.599,0-15.198,0-22.797
		c0-1.356-0.105-1.316,1.294-1.315c2.359,0.001,4.719-0.008,7.079,0.006c0.858,0.005,0.861,0.028,0.891,0.874
		c0.011,0.319,0.003,0.64,0.003,0.96c0,12.598,0,25.196,0,37.794c0,1.612-0.096,1.471,1.508,1.471
		c6.759,0.002,13.518,0.001,20.277,0.001c0.2,0,0.4-0.002,0.6,0.001c1.038,0.019,1.046,0.02,1.051,1.063
		c0.007,1.72,0.008,3.439,0,5.159c-0.005,1.018-0.016,1.026-1.08,1.029c-2.24,0.006-4.479,0.002-6.719,0.002
		c-7.759,0-15.518,0-23.276,0c-0.28,0-0.562-0.021-0.839,0.003c-0.547,0.048-0.837-0.14-0.79-0.734
		c0.026-0.317,0.002-0.64,0.002-0.959C122.572,307.565,122.572,300.047,122.572,292.528z"/>
	<path fill-rule="evenodd" clip-rule="evenodd" fill="#0C89CB" d="M67.406,372.965c0-5.88,0-11.76,0-17.64
		c0-0.239-0.005-0.479,0.001-0.72c0.022-0.883,0.023-0.9,0.956-0.901c4.72-0.007,9.439-0.004,14.159-0.004
		c2.96,0,5.919-0.005,8.879,0.004c0.976,0.003,0.985,0.019,0.993,0.992c0.009,1.28,0.011,2.561-0.001,3.84
		c-0.009,0.929-0.021,0.94-0.917,0.95c-1.16,0.013-2.32,0.003-3.48,0.003c-4,0-8-0.002-12,0.002
		c-1.097,0.001-1.105,0.011-1.107,1.116c-0.005,2.601-0.005,5.2,0,7.8c0.002,1.259-0.156,1.259,1.213,1.259
		c4.72-0.001,9.439-0.004,14.159,0.002c1.565,0.002,1.417-0.149,1.424,1.408c0.006,1.2-0.029,2.401,0.013,3.6
		c0.022,0.643-0.229,0.837-0.834,0.823c-1.159-0.028-2.32-0.007-3.479-0.007c-3.6,0.001-7.2,0-10.799,0.001
		c-0.28,0-0.561-0.009-0.84,0.003c-0.83,0.034-0.851,0.037-0.854,0.905c-0.011,2.68-0.004,5.359-0.004,8.039
		c0,2.025,0,2.025,2.008,2.025c4.76,0,9.52,0,14.279,0c0.24,0,0.48-0.006,0.72,0.002c0.881,0.027,0.903,0.028,0.913,0.853
		c0.018,1.4-0.012,2.801,0.012,4.2c0.009,0.557-0.18,0.83-0.759,0.785c-0.239-0.019-0.48-0.001-0.72-0.001
		c-7.479,0-14.959,0-22.439,0c-0.12,0-0.24,0.001-0.36,0c-1.125-0.013-1.132-0.013-1.135-1.102c-0.006-1.96-0.002-3.92-0.002-5.879
		C67.406,381.204,67.406,377.084,67.406,372.965z"/>
	<path fill-rule="evenodd" clip-rule="evenodd" fill="#0C89CB" d="M167.083,372.84c0-5.839,0-11.679,0-17.519
		c0-0.279,0.022-0.562-0.003-0.839c-0.05-0.556,0.157-0.834,0.742-0.783c0.238,0.021,0.48,0.001,0.72,0.001
		c7.319,0,14.639,0,21.958,0c0.28,0,0.561,0.021,0.839,0c0.539-0.042,0.682,0.226,0.675,0.72c-0.02,1.399,0.004,2.8-0.011,4.2
		c-0.008,0.841-0.026,0.863-0.875,0.865c-3.76,0.009-7.519,0.004-11.279,0.004c-1.4,0-2.8-0.004-4.2,0.002
		c-1.134,0.004-1.143,0.009-1.146,1.079c-0.005,2.68-0.006,5.359,0,8.039c0.002,1.038,0.013,1.053,1.057,1.054
		c4.64,0.006,9.279,0.003,13.918,0.003c1.826,0,1.826,0,1.826,1.849c0,1,0.008,2-0.002,3c-0.01,0.955-0.018,0.973-1.017,0.975
		c-3.76,0.008-7.519,0.003-11.279,0.004c-1.2,0-2.4-0.013-3.6,0.005c-0.874,0.013-0.898,0.03-0.901,0.856
		c-0.011,3.08-0.011,6.159-0.001,9.239c0.003,0.84,0.024,0.864,0.879,0.867c3.479,0.01,6.959,0.005,10.439,0.005
		c1.92,0,3.84,0.015,5.759-0.009c0.594-0.007,0.873,0.157,0.856,0.809c-0.035,1.439-0.024,2.88-0.004,4.319
		c0.007,0.508-0.182,0.745-0.695,0.719c-0.239-0.012-0.479,0.001-0.72,0.001c-7.52,0-15.039,0-22.558,0
		c-0.12,0-0.24,0.002-0.36-0.001c-1-0.022-1.011-0.022-1.018-0.985c-0.01-1.6-0.003-3.199-0.003-4.8
		C167.083,381.959,167.083,377.399,167.083,372.84z"/>
	<path fill-rule="evenodd" clip-rule="evenodd" fill="#0C89CB" d="M156.61,362.522c-1.1-0.569-1.972-1.054-2.87-1.479
		c-2.7-1.282-5.497-2.161-8.538-2.051c-1.27,0.047-2.449,0.368-3.536,1.004c-1.87,1.093-2.318,3.31-1.03,5.056
		c0.78,1.057,1.85,1.767,3.003,2.333c2.044,1.003,4.11,1.961,6.173,2.924c2.124,0.99,3.985,2.331,5.663,3.971
		c3.904,3.817,4.113,12.026-1.25,15.791c-2.431,1.707-5.101,2.622-8.051,2.732c-4.383,0.164-8.477-0.836-12.278-3.053
		c-0.661-0.386-0.961-0.795-0.927-1.597c0.071-1.716,0.016-3.438,0.027-5.156c0.002-0.304-0.097-0.629,0.133-0.966
		c0.414,0.063,0.663,0.403,0.967,0.63c2.292,1.708,4.715,3.157,7.53,3.831c1.765,0.422,3.544,0.596,5.339,0.174
		c0.627-0.148,1.21-0.409,1.76-0.741c2.273-1.373,2.756-4.102,1.09-6.186c-0.686-0.857-1.555-1.495-2.527-1.985
		c-2.068-1.045-4.132-2.101-6.224-3.097c-2.227-1.061-4.221-2.424-5.928-4.209c-3.685-3.854-3.531-10.454,0.392-14.056
		c1.789-1.644,4.03-2.429,6.375-2.853c4.84-0.874,9.458-0.098,13.879,2.015c0.565,0.271,0.859,0.577,0.841,1.261
		C156.578,358.644,156.61,360.474,156.61,362.522z"/>
	<path fill-rule="evenodd" clip-rule="evenodd" fill="#0C89CB" d="M100.517,381.999c0.618,0.2,0.91,0.541,1.255,0.796
		c2.634,1.947,5.445,3.515,8.75,3.968c1.926,0.264,3.823,0.257,5.587-0.773c2.447-1.429,2.933-4.28,1.062-6.424
		c-0.638-0.731-1.403-1.31-2.269-1.744c-2.105-1.061-4.204-2.137-6.33-3.153c-2.225-1.063-4.222-2.428-5.931-4.21
		c-3.706-3.864-3.512-10.59,0.466-14.148c1.712-1.531,3.831-2.32,6.051-2.736c4.959-0.928,9.702-0.175,14.223,2.044
		c0.358,0.176,0.722,0.307,0.718,0.83c-0.018,1.953-0.007,3.906-0.007,5.873c-0.564,0.083-0.895-0.263-1.26-0.462
		c-2.332-1.268-4.75-2.311-7.392-2.702c-1.996-0.295-3.983-0.337-5.865,0.613c-2.46,1.241-2.9,3.86-0.964,5.841
		c0.793,0.812,1.74,1.407,2.753,1.894c1.945,0.935,3.895,1.857,5.854,2.761c2.167,0.999,4.102,2.32,5.76,4.037
		c1.801,1.865,2.719,4.11,2.807,6.692c0.041,1.199,0.026,2.398-0.294,3.572c-0.577,2.11-1.681,3.871-3.415,5.225
		c-2.445,1.908-5.233,2.883-8.316,3.008c-4.424,0.18-8.561-0.814-12.396-3.065c-0.63-0.37-0.881-0.776-0.863-1.511
		C100.549,386.188,100.517,384.15,100.517,381.999z"/>
	<path fill-rule="evenodd" clip-rule="evenodd" fill="#0C89CB" d="M383.47,381.87c0.557,0.408,0.904,0.661,1.249,0.917
		c2.63,1.953,5.441,3.52,8.746,3.974c1.925,0.265,3.798,0.215,5.594-0.756c2.449-1.324,2.897-4.318,1.068-6.433
		c-0.635-0.733-1.399-1.312-2.267-1.747c-2.105-1.059-4.202-2.139-6.329-3.154c-2.226-1.063-4.223-2.425-5.934-4.206
		c-3.709-3.863-3.52-10.582,0.454-14.15c1.774-1.594,3.967-2.38,6.28-2.785c4.842-0.848,9.461-0.09,13.888,2.015
		c0.632,0.3,0.863,0.672,0.845,1.369c-0.048,1.795-0.016,3.592-0.016,5.398c-0.56,0.111-0.887-0.248-1.25-0.445
		c-2.333-1.266-4.748-2.314-7.392-2.706c-1.953-0.289-3.9-0.346-5.758,0.551c-2.609,1.26-3.072,3.928-1.018,5.972
		c0.834,0.829,1.831,1.423,2.876,1.928c1.871,0.903,3.755,1.781,5.644,2.647c2.168,0.994,4.104,2.316,5.765,4.031
		c1.803,1.863,2.726,4.106,2.821,6.687c0.042,1.117,0.025,2.234-0.241,3.338c-0.545,2.262-1.705,4.117-3.551,5.539
		c-2.422,1.866-5.179,2.82-8.217,2.945c-4.468,0.186-8.643-0.823-12.5-3.12c-0.544-0.323-0.79-0.659-0.775-1.318
		C383.498,386.284,383.47,384.207,383.47,381.87z"/>
	<path fill-rule="evenodd" clip-rule="evenodd" fill="#0C89CB" d="M174.06,292.814c0,7.473,0,14.945,0,22.418
		c0,0.319-0.017,0.64,0,0.959c0.022,0.45-0.158,0.641-0.625,0.639c-2.677-0.012-5.354-0.012-8.032,0.001
		c-0.495,0.002-0.754-0.152-0.713-0.684c0.021-0.278,0.001-0.56,0.001-0.839c0-15.105-0.002-30.211,0.002-45.315
		c0-1.618-0.203-1.471,1.474-1.476c2.317-0.007,4.635-0.008,6.953,0.001c0.916,0.004,0.935,0.019,0.937,0.919
		c0.008,3.396,0.003,6.793,0.004,10.189C174.06,284.023,174.06,288.419,174.06,292.814z"/>
	<path fill-rule="evenodd" clip-rule="evenodd" fill="#0C89CB" d="M263.908,353.7c5.28,0,10.56,0,15.84,0
		c0.32,0,0.641,0.011,0.96,0.003c0.374-0.01,0.606,0.104,0.604,0.534c-0.008,1.56-0.007,3.119-0.001,4.68
		c0.001,0.397-0.164,0.585-0.572,0.571c-0.399-0.014-0.8,0.001-1.199,0.001c-3.561,0-7.12-0.001-10.68,0.001
		c-1.351,0-1.235-0.065-1.236,1.23c-0.002,10,0.004,20-0.005,29.999c-0.002,1.749,0.271,1.571-1.61,1.583
		c-1.68,0.01-3.359-0.016-5.039,0.009c-0.597,0.009-0.912-0.161-0.839-0.812c0.031-0.276,0.005-0.56,0.005-0.84
		c0-9.76,0-19.52,0-29.279c0-0.279,0.003-0.56-0.001-0.84c-0.014-1.035-0.015-1.048-1.056-1.049c-3.84-0.006-7.681,0-11.521-0.004
		c-1.102-0.002-1.107-0.01-1.113-1.111c-0.006-1.2-0.006-2.4,0-3.601c0.006-1.06,0.012-1.065,1.024-1.074
		c1.04-0.008,2.08-0.002,3.12-0.002C255.028,353.7,259.469,353.7,263.908,353.7z"/>
	<path fill-rule="evenodd" clip-rule="evenodd" fill="#0C89CB" d="M351.418,372.837c0-5.837,0-11.674,0-17.511
		c0-0.28,0.021-0.562-0.003-0.84c-0.048-0.55,0.153-0.798,0.739-0.792c1.999,0.021,3.998,0.02,5.997,0.001
		c0.526-0.005,0.722,0.2,0.683,0.708c-0.025,0.318-0.004,0.64-0.004,0.959c0,9.835,0,19.67,0,29.505c0,0.319,0.018,0.641,0,0.959
		c-0.027,0.465,0.186,0.656,0.638,0.639c0.319-0.013,0.64,0.001,0.959,0.001c5.197,0,10.395,0,15.592,0
		c0.28,0,0.562,0.02,0.839-0.003c0.549-0.044,0.809,0.153,0.799,0.743c-0.023,1.479-0.013,2.958-0.004,4.437
		c0.004,0.446-0.176,0.672-0.634,0.659c-0.239-0.008-0.479,0.003-0.72,0.003c-7.836,0-15.672,0-23.507,0
		c-0.16,0-0.32,0.005-0.479-0.001c-0.862-0.034-0.882-0.035-0.89-0.877c-0.016-1.56-0.005-3.118-0.005-4.678
		C351.418,382.111,351.418,377.474,351.418,372.837z"/>
	<path fill-rule="evenodd" clip-rule="evenodd" fill="#0C89CB" d="M296.914,373.084c0,5.917,0,11.835,0,17.752
		c0,0.28-0.013,0.561-0.001,0.84c0.021,0.462-0.197,0.632-0.648,0.629c-2.04-0.011-4.079-0.011-6.118,0.001
		c-0.489,0.003-0.76-0.151-0.716-0.687c0.021-0.238,0.002-0.479,0.002-0.719c0-11.955-0.002-23.91,0.002-35.865
		c0.001-1.443-0.171-1.327,1.371-1.333c1.639-0.007,3.278-0.004,4.918-0.001c1.272,0.002,1.189-0.065,1.189,1.15
		c0.001,4.638,0.001,9.276,0.001,13.914C296.914,370.205,296.914,371.645,296.914,373.084z"/>
	<path fill-rule="evenodd" clip-rule="evenodd" fill="#0C89CB" d="M212.509,107.826c0-3.315,0-6.631,0-9.946
		c0-0.24-0.003-0.479,0-0.719c0.017-1.068,0.018-1.082,1.051-1.069c2.197,0.026,4.394,0.07,6.59,0.103
		c0.759,0.012,1.519-0.008,2.277,0.02c4.385,0.158,7.434,4.03,6.562,8.322c-0.533,2.621-2.903,4.732-5.813,5.151
		c-0.551,0.079-1.113,0.102-1.671,0.109c-1.118,0.015-2.237-0.007-3.355,0.003c-0.993,0.009-1.008,0.019-1.012,0.983
		c-0.009,2.396-0.003,4.793-0.003,7.19c0,0.28,0.007,0.56-0.002,0.839c-0.026,0.873-0.028,0.889-0.854,0.902
		c-1.038,0.017-2.077-0.007-3.116,0.007c-0.451,0.006-0.666-0.173-0.65-0.63c0.01-0.279-0.003-0.559-0.003-0.839
		C212.509,114.776,212.509,111.301,212.509,107.826z"/>
	<path fill-rule="evenodd" clip-rule="evenodd" fill="#0C89CB" d="M350.87,120.086c-1.553,0.016-2.999-0.368-4.37-1.091
		c-5.198-2.743-5.647-10.576-0.732-13.808c2.986-1.964,7.712-2.208,10.965,0.243c2.53,1.907,3.304,4.644,2.914,7.678
		c-0.512,3.986-3.399,6.367-7.462,6.908C351.751,120.074,351.309,120.064,350.87,120.086z"/>
	<path fill-rule="evenodd" clip-rule="evenodd" fill="#0C89CB" d="M256.764,120.07c-1.761,0.06-3.554-0.548-5.161-1.684
		c-2.673-1.89-3.829-5.638-2.815-9.009c0.77-2.555,2.409-4.259,4.959-5.093c2.148-0.702,4.301-0.81,6.474-0.144
		c3.716,1.139,5.894,4.442,5.598,8.332C265.431,117.546,261.361,120.109,256.764,120.07z"/>
	<path fill-rule="evenodd" clip-rule="evenodd" fill="#0C89CB" d="M285.647,112.854c0.148,2.102,1.61,3.726,3.745,4.046
		c2.088,0.314,4.051-0.127,5.872-1.191c0.31-0.181,0.615-0.368,0.926-0.546c0.023-0.014,0.074,0.019,0.227,0.064
		c0,0.787-0.005,1.611,0.002,2.436c0.002,0.278-0.155,0.443-0.365,0.571c-2.995,1.838-8.035,2.77-11.577,0.221
		c-2.008-1.444-3.078-3.421-3.217-5.882c-0.052-0.914-0.079-1.838,0.117-2.747c0.758-3.525,3.46-5.871,7.06-6.114
		c1.162-0.079,2.311-0.021,3.428,0.379c2.771,0.993,4.719,3.789,4.774,6.976c0.034,1.933,0.099,1.633-1.555,1.643
		c-2.718,0.016-5.435-0.001-8.152,0.01C286.503,112.723,286.053,112.613,285.647,112.854z"/>
	<path fill-rule="evenodd" clip-rule="evenodd" fill="#0C89CB" d="M212.414,70.971c0-3.518-0.002-7.035,0.001-10.552
		c0.001-1.229-0.14-1.217,1.259-1.217c0.879,0,1.759,0.02,2.638-0.005c0.52-0.015,0.728,0.195,0.688,0.705
		c-0.022,0.278-0.003,0.56-0.003,0.839c0,5.636,0,11.271,0,16.907c0,0.32,0.012,0.64,0.002,0.959
		c-0.013,0.403,0.172,0.588,0.573,0.579c0.279-0.006,0.559,0.004,0.839,0.004c2.958,0,5.916,0.001,8.874,0
		c1.254,0,1.148-0.021,1.152,1.198c0.001,0.4,0.002,0.799,0,1.199c-0.006,1.194-0.007,1.194-1.15,1.204c-0.08,0.001-0.16,0-0.24,0
		c-4.396,0-8.793,0.003-13.19-0.002c-1.604-0.002-1.438,0.132-1.441-1.388C212.41,77.925,212.414,74.448,212.414,70.971z"/>
	<path fill-rule="evenodd" clip-rule="evenodd" fill="#0C89CB" d="M348.237,152.09c0,0.479-0.06,0.927,0.012,1.352
		c0.2,1.183-0.324,1.814-1.388,2.269c-2.371,1.015-4.795,1.517-7.358,1.024c-3.84-0.738-6.363-3.788-6.458-7.687
		c-0.045-1.848,0.269-3.581,1.318-5.132c1.419-2.099,3.403-3.207,5.936-3.297c0.836-0.029,1.674-0.047,2.507,0.13
		c4.439,0.947,5.878,5.357,5.652,8.242c-0.03,0.39-0.159,0.596-0.564,0.591c-0.319-0.004-0.64,0.006-0.959,0.007
		c-2.878,0-5.756-0.006-8.634,0.004c-0.936,0.003-1.029,0.157-0.743,1.061c0.593,1.871,2.208,3.114,4.186,3.227
		c1.973,0.113,3.809-0.321,5.495-1.358c0.238-0.146,0.477-0.291,0.718-0.431C347.983,152.076,348.029,152.09,348.237,152.09z"/>
	<path fill-rule="evenodd" clip-rule="evenodd" fill="#0C89CB" d="M309.41,154.778c-0.516,0.434-0.799,0.707-1.114,0.933
		c-1.931,1.384-4.047,1.792-6.221,0.783c-2.206-1.024-3.19-2.962-3.231-5.337c-0.054-3.078-0.019-6.157-0.014-9.235
		c0.001-1.004,0.014-1.012,0.963-1.026c0.799-0.012,1.6-0.015,2.398,0.001c0.833,0.017,0.855,0.029,0.858,0.894
		c0.011,2.799,0.004,5.597,0.003,8.396c0,0.24-0.014,0.48-0.005,0.72c0.063,1.718,1.231,2.813,2.948,2.765
		c1.923-0.054,3.412-1.594,3.413-3.533c0.002-2.719-0.003-5.438,0.003-8.156c0.002-1.07,0.012-1.075,1.027-1.087
		c0.759-0.008,1.521,0.037,2.277-0.012c0.664-0.043,0.814,0.26,0.809,0.847c-0.021,1.879-0.007,3.758-0.006,5.637
		c0,2.799,0.006,5.598-0.005,8.396c-0.004,0.923-0.024,0.931-0.924,0.946c-0.76,0.012-1.52,0.013-2.278,0
		c-0.861-0.015-0.864-0.024-0.9-0.844C309.4,155.59,309.41,155.314,309.41,154.778z"/>
	<path fill-rule="evenodd" clip-rule="evenodd" fill="#0C89CB" d="M227.916,142.905c0.621-0.638,1.241-1.127,1.952-1.508
		c4.046-2.17,8.104,0.15,8.34,4.792c0.163,3.23,0.018,6.475,0.036,9.713c0.004,0.627-0.222,0.85-0.841,0.819
		c-0.798-0.04-1.599,0.001-2.398-0.013c-0.856-0.015-0.878-0.024-0.888-0.863c-0.018-1.519-0.006-3.038-0.007-4.558
		c0-1.319,0.013-2.639-0.01-3.958c-0.009-0.516-0.034-1.05-0.169-1.543c-0.475-1.73-2.159-2.468-3.797-1.679
		c-0.924,0.445-1.567,1.223-2.217,1.985c-0.293,0.343-0.181,0.764-0.182,1.153c-0.009,2.838,0,5.677-0.007,8.516
		c-0.003,1.002-0.015,1.009-0.967,1.025c-0.719,0.012-1.439,0.011-2.159,0c-0.947-0.014-0.956-0.021-0.962-1.019
		c-0.008-1.359-0.002-2.718-0.002-4.078c0-3.119-0.005-6.237,0.002-9.355c0.003-1.431-0.16-1.321,1.381-1.331
		c0.56-0.003,1.12-0.008,1.679,0.002c0.997,0.017,0.992,0.021,1.034,0.97C227.744,142.246,227.657,142.53,227.916,142.905z"/>
	<path fill-rule="evenodd" clip-rule="evenodd" fill="#0C89CB" d="M368.923,105.824c0.507-0.049,0.646-0.378,0.882-0.573
		c1.5-1.236,3.224-1.755,5.14-1.521c2.32,0.284,4.363,2.516,4.454,5.11c0.12,3.435,0.032,6.877,0.047,10.315
		c0.002,0.46-0.176,0.644-0.632,0.636c-0.88-0.016-1.761-0.029-2.639,0.006c-0.604,0.024-0.855-0.162-0.834-0.808
		c0.043-1.278,0.013-2.559,0.012-3.838c-0.001-1.6-0.003-3.199-0.005-4.798c0-0.481-0.034-0.954-0.175-1.421
		c-0.562-1.873-2.407-2.602-4.09-1.585c-0.762,0.46-1.337,1.134-1.916,1.798c-0.298,0.341-0.241,0.746-0.241,1.14
		c-0.003,2.839,0.003,5.678-0.005,8.518c-0.003,0.971-0.017,0.977-0.986,0.986c-0.84,0.007-1.68-0.007-2.52,0
		c-0.39,0.003-0.6-0.147-0.58-0.562c0.011-0.239-0.003-0.479-0.003-0.72c0-4.398,0-8.797,0-13.196c0-0.24,0.013-0.48,0.001-0.719
		c-0.023-0.469,0.211-0.631,0.654-0.625c0.919,0.013,1.84,0.024,2.759-0.004c0.534-0.016,0.713,0.215,0.681,0.715
		C368.904,105.034,368.923,105.394,368.923,105.824z"/>
	<path fill-rule="evenodd" clip-rule="evenodd" fill="#0C89CB" d="M273.758,80.983c-0.352,0.301-0.605,0.548-0.889,0.756
		c-1.951,1.431-4.099,1.86-6.315,0.833c-2.208-1.023-3.176-2.977-3.221-5.342c-0.061-3.075-0.022-6.152-0.014-9.228
		c0.003-0.875,0.024-0.892,0.852-0.912c0.839-0.021,1.679-0.021,2.517,0c0.826,0.02,0.855,0.045,0.858,0.909
		c0.011,2.796,0.004,5.593,0.003,8.39c0,0.28-0.016,0.56-0.001,0.839c0.066,1.271,0.783,2.17,2.005,2.533
		c2.018,0.598,4.345-1.105,4.351-3.198c0.009-2.796-0.002-5.593,0.005-8.39c0.003-1.064,0.016-1.069,1.051-1.086
		c0.6-0.01,1.199-0.005,1.798-0.001c1.256,0.008,1.262,0.01,1.264,1.224c0.004,2.677,0.002,5.354,0.001,8.03
		c0,1.837,0.01,3.675-0.005,5.513c-0.008,0.915-0.027,0.924-0.937,0.938c-0.799,0.012-1.599-0.02-2.396,0.009
		c-0.548,0.02-0.827-0.146-0.785-0.742C273.921,81.745,273.965,81.417,273.758,80.983z"/>
	<path fill-rule="evenodd" clip-rule="evenodd" fill="#0C89CB" d="M399.525,116.406c0.018,0.375,0.035,0.609,0.038,0.844
		c0.021,1.594-0.013,1.645-1.533,2.244c-0.597,0.236-1.212,0.41-1.851,0.475c-1.634,0.166-2.297-0.149-3.242-1.545
		c-1.129,0.777-2.375,1.29-3.74,1.486c-0.674,0.097-1.35,0.143-2.02-0.052c-1.483-0.432-2.607-1.276-2.919-2.855
		c-0.341-1.728,0.045-3.264,1.549-4.362c1.01-0.738,2.129-1.255,3.331-1.6c1.074-0.307,2.141-0.647,3.222-0.929
		c0.578-0.15,0.755-0.474,0.704-1.039c-0.103-1.154-0.666-1.834-1.815-2.065c-1.298-0.261-2.542-0.063-3.73,0.509
		c-0.933,0.448-1.802,0.999-2.772,1.944c0-1.291,0.004-2.302-0.002-3.313c-0.001-0.378,0.254-0.572,0.523-0.746
		c2.708-1.744,5.609-2.242,8.692-1.225c1.672,0.551,3.175,2.061,3.091,4.492c-0.081,2.315-0.026,4.635-0.019,6.953
		c0.005,1.685,0.435,1.918,1.918,1.073C399.085,116.619,399.227,116.556,399.525,116.406z"/>
	<path fill-rule="evenodd" clip-rule="evenodd" fill="#0C89CB" d="M247.213,69.162c0.938-0.921,1.74-1.484,2.643-1.923
		c1.166-0.568,2.388-0.685,3.625-0.464c1.503,0.269,2.598,1.172,3.357,2.485c0.57,0.987,0.897,2.042,0.896,3.191
		c-0.002,3.118,0.003,6.236-0.004,9.354c-0.002,0.966-0.017,0.972-1.003,0.985c-0.76,0.01-1.521-0.034-2.278,0.012
		c-0.642,0.039-0.819-0.223-0.814-0.829c0.021-2.758,0.006-5.517,0.009-8.275c0.001-0.561-0.024-1.115-0.167-1.664
		c-0.51-1.952-2.385-2.737-4.111-1.699c-0.765,0.459-1.33,1.142-1.919,1.794c-0.307,0.339-0.228,0.75-0.229,1.141
		c-0.006,2.718-0.003,5.437-0.003,8.155c-0.001,0.28-0.01,0.56-0.007,0.839c0.003,0.335-0.139,0.523-0.493,0.522
		c-1.039-0.003-2.078,0-3.117-0.003c-0.365-0.001-0.474-0.226-0.469-0.549c0.003-0.24-0.006-0.48-0.006-0.72
		c0-4.397,0-8.794,0-13.191c0-0.2,0.016-0.401,0.001-0.599c-0.034-0.473,0.204-0.64,0.646-0.636
		c0.919,0.009,1.839,0.017,2.758-0.004c0.514-0.012,0.73,0.19,0.691,0.707C247.191,68.143,247.213,68.499,247.213,69.162z"/>
	<path fill-rule="evenodd" clip-rule="evenodd" fill="#0C89CB" d="M281.876,67.094c1.707,0,3.136,0.001,4.564-0.001
		c0.418,0,0.628,0.289,0.854,0.574c0.868,1.098,1.737,2.195,2.617,3.282c0.247,0.305,0.431,0.679,0.919,0.895
		c0.963-1.238,1.988-2.458,2.895-3.76c0.545-0.783,1.17-1.075,2.101-1.016c1.111,0.07,2.23,0.017,3.325,0.017
		c0.173,0.479-0.166,0.658-0.347,0.881c-1.661,2.05-3.334,4.091-5.006,6.132c-0.604,0.737-0.594,0.654,0.018,1.373
		c1.761,2.071,3.522,4.142,5.28,6.216c0.249,0.293,0.479,0.604,0.868,1.097c-1.68,0-3.138-0.004-4.597,0.003
		c-0.435,0.002-0.613-0.333-0.836-0.6c-1.229-1.472-2.448-2.951-3.656-4.41c-0.439,0.016-0.559,0.353-0.743,0.583
		c-1,1.248-2.01,2.489-2.963,3.772c-0.379,0.51-0.795,0.694-1.414,0.672c-1.195-0.042-2.394-0.012-3.587-0.012
		c-0.157-0.493,0.23-0.691,0.434-0.944c1.676-2.089,3.377-4.158,5.059-6.244c0.78-0.968,0.727-0.731-0.041-1.649
		c-1.592-1.9-3.196-3.79-4.793-5.686C282.573,67.969,282.332,67.658,281.876,67.094z"/>
	<path fill-rule="evenodd" clip-rule="evenodd" fill="#0C89CB" d="M271.323,113.46c0-1.758,0.009-3.517-0.003-5.275
		c-0.006-0.939-0.021-0.972-0.904-0.962c-1.452,0.016-1.303-0.052-1.311-1.308c0-0.08,0-0.16,0-0.24
		c0-1.463-0.001-1.487,1.514-1.548c0.517-0.021,0.706-0.196,0.709-0.703c0.005-0.718-0.019-1.451,0.113-2.15
		c0.757-4.036,3.641-5.968,7.827-5.218c0.893,0.16,0.952,0.299,0.977,1.202c0.001,0.04,0.002,0.08,0,0.12
		c-0.046,0.712,0.282,1.586-0.154,2.093c-0.413,0.479-1.273,0.087-1.935,0.113c-1.56,0.063-2.521,0.927-2.698,2.489
		c-0.009,0.079-0.017,0.159-0.021,0.239c-0.114,1.773-0.114,1.773,1.646,1.803c1.036,0.017,1.059,0.018,1.042,1.056
		c-0.011,0.629,0.261,1.382-0.146,1.857c-0.391,0.458-1.134,0.141-1.72,0.181c-0.788,0.055-0.809,0.038-0.811,0.938
		c-0.009,3.357-0.004,6.715-0.004,10.072c0,0.28-0.024,0.562,0.003,0.839c0.059,0.604-0.248,0.755-0.787,0.738
		c-0.839-0.026-1.681-0.04-2.518,0.004c-0.633,0.033-0.834-0.214-0.826-0.825c0.025-1.838,0.01-3.677,0.01-5.516
		C271.326,113.46,271.325,113.46,271.323,113.46z"/>
	<path fill-rule="evenodd" clip-rule="evenodd" fill="#0C89CB" d="M243.331,152.167c1.526,0.841,2.894,1.368,4.372,1.58
		c0.729,0.104,1.44,0.084,2.119-0.204c1.169-0.498,1.32-1.608,0.27-2.307c-0.727-0.483-1.544-0.834-2.331-1.222
		c-0.967-0.477-1.954-0.911-2.803-1.598c-1.355-1.098-1.99-2.464-1.63-4.221c0.238-1.161,0.874-2.027,1.885-2.649
		c1.666-1.025,3.485-1.069,5.335-0.84c0.91,0.113,1.788,0.403,2.649,0.733c0.512,0.196,0.768,0.483,0.735,1.066
		c-0.044,0.784-0.011,1.571-0.011,2.353c-0.55,0.067-0.844-0.257-1.193-0.418c-1.096-0.506-2.219-0.908-3.435-0.974
		c-0.355-0.019-0.719,0.001-1.072,0.051c-0.511,0.072-0.9,0.333-1.031,0.866c-0.137,0.556,0.153,0.933,0.597,1.188
		c0.761,0.438,1.526,0.871,2.315,1.254c1.122,0.544,2.116,1.268,3.116,2.004c2.023,1.491,2.17,5.456-0.54,7.09
		c-1.354,0.815-2.809,1.087-4.364,1.001c-1.45-0.08-2.836-0.423-4.194-0.919c-0.554-0.202-0.841-0.501-0.802-1.138
		C243.369,154.032,243.331,153.197,243.331,152.167z"/>
	<path fill-rule="evenodd" clip-rule="evenodd" fill="#0C89CB" d="M300.938,115.289c1.372,0.688,2.595,1.259,3.944,1.475
		c0.757,0.121,1.507,0.204,2.255-0.024c0.603-0.184,1.135-0.484,1.236-1.163c0.104-0.699-0.351-1.12-0.907-1.411
		c-0.991-0.518-1.996-1.011-3.003-1.5c-0.868-0.422-1.685-0.913-2.374-1.601c-2.063-2.058-1.527-5.362,1.119-6.603
		c2.605-1.222,5.21-0.912,7.784,0.162c0.315,0.131,0.541,0.308,0.534,0.701c-0.014,0.867-0.004,1.735-0.004,2.571
		c-0.472,0.149-0.707-0.131-0.978-0.266c-0.938-0.466-1.912-0.815-2.94-1.004c-0.591-0.109-1.191-0.165-1.788-0.031
		c-0.494,0.111-0.894,0.356-1.019,0.894c-0.132,0.565,0.174,0.929,0.613,1.182c0.762,0.438,1.529,0.869,2.319,1.253
		c1.121,0.547,2.12,1.267,3.116,2.011c1.949,1.456,2.115,5.233-0.287,6.888c-0.909,0.625-1.899,1.048-2.991,1.144
		c-2.023,0.177-3.978-0.143-5.873-0.892c-0.576-0.228-0.801-0.547-0.769-1.159C300.972,117.093,300.938,116.267,300.938,115.289z"/>
	<path fill-rule="evenodd" clip-rule="evenodd" fill="#0C89CB" d="M294.706,152.879c0.207,0.961,0.093,1.874,0.096,2.78
		c0.001,0.273-0.179,0.441-0.413,0.532c-2.061,0.796-4.164,1.237-6.299,0.366c-2.059-0.84-3.107-2.469-3.162-4.669
		c-0.058-2.278-0.007-4.559-0.016-6.839c-0.004-0.928-0.02-0.929-0.916-0.958c-0.16-0.005-0.322,0.015-0.479-0.005
		c-0.339-0.044-0.782,0.169-0.99-0.205c-0.247-0.441,0.137-0.729,0.412-1.017c1.769-1.851,3.532-3.706,5.309-5.548
		c0.203-0.209,0.355-0.555,0.904-0.439c0,0.995-0.009,2.017,0.003,3.039c0.01,0.96,0.019,0.967,1.004,0.975
		c1.2,0.009,2.4,0.025,3.6-0.007c0.573-0.015,0.797,0.186,0.762,0.76c-0.034,0.558-0.029,1.12-0.002,1.679
		c0.025,0.525-0.198,0.696-0.707,0.688c-1.279-0.023-2.561,0.021-3.839-0.018c-0.624-0.019-0.838,0.197-0.829,0.819
		c0.027,2.159-0.013,4.319,0.021,6.479c0.025,1.655,0.957,2.45,2.625,2.37C292.801,153.613,293.711,153.19,294.706,152.879z"/>
	<path fill-rule="evenodd" clip-rule="evenodd" fill="#0C89CB" d="M327.133,108.071c-0.907-0.394-1.624-0.728-2.358-1.016
		c-0.784-0.309-1.605-0.488-2.452-0.524c-0.4-0.017-0.802-0.007-1.18,0.151c-0.898,0.376-1.047,1.283-0.276,1.877
		c0.729,0.564,1.57,0.955,2.404,1.342c1.17,0.543,2.194,1.296,3.22,2.068c1.85,1.392,2.104,5.118-0.273,6.815
		c-0.898,0.641-1.89,1.07-2.979,1.175c-2.064,0.198-4.061-0.127-5.988-0.908c-0.512-0.208-0.752-0.492-0.721-1.068
		c0.044-0.834,0.011-1.672,0.011-2.478c0.444-0.195,0.669,0.118,0.936,0.248c1.345,0.656,2.741,1.097,4.251,1.128
		c0.617,0.013,1.2-0.108,1.705-0.467c0.698-0.498,0.752-1.216,0.175-1.852c-0.249-0.274-0.571-0.435-0.893-0.595
		c-0.93-0.463-1.862-0.921-2.797-1.376c-0.76-0.369-1.443-0.84-2.093-1.385c-2.235-1.875-1.646-5.726,1.144-6.82
		c2.588-1.015,5.075-0.815,7.576,0.212c0.429,0.176,0.614,0.437,0.598,0.907C327.113,106.301,327.133,107.1,327.133,108.071z"/>
	<path fill-rule="evenodd" clip-rule="evenodd" fill="#0D89CB" d="M212.509,144.833c0-3.437,0-6.873,0.001-10.31
		c0-0.319,0.006-0.639,0.021-0.958c0.013-0.286,0.18-0.438,0.459-0.439c1.199-0.007,2.397-0.007,3.596-0.006
		c0.408,0,0.556,0.235,0.546,0.615c-0.006,0.24,0.003,0.479,0.003,0.719c0,6.953,0,13.906,0,20.859c0,0.16,0.003,0.32-0.001,0.479
		c-0.027,0.896-0.027,0.901-0.958,0.917c-0.639,0.011-1.279,0.012-1.918,0.001c-1.936-0.035-1.737,0.313-1.746-1.688
		c-0.012-2.558-0.003-5.115-0.003-7.673C212.509,146.512,212.509,145.672,212.509,144.833z"/>
	<path fill-rule="evenodd" clip-rule="evenodd" fill="#0C89CB" d="M324.026,136.718c0,1.171-0.008,2.195,0.003,3.22
		c0.01,0.929,0.019,0.942,0.911,0.952c1.159,0.014,2.317-0.003,3.477,0.006c1.013,0.008,1.013,0.016,1.037,0.959
		c0.056,2.149,0.056,2.149-2.123,2.149c-0.84,0-1.679,0.019-2.518-0.004c-0.53-0.015-0.805,0.121-0.797,0.732
		c0.028,2.197-0.022,4.396,0.026,6.592c0.035,1.58,0.987,2.403,2.557,2.338c0.521-0.022,1.033-0.104,1.528-0.273
		c0.483-0.166,0.965-0.334,1.609-0.558c0,0.969-0.008,1.828,0.003,2.687c0.004,0.316-0.108,0.546-0.401,0.661
		c-2.056,0.803-4.161,1.256-6.295,0.401c-2.051-0.822-3.144-2.414-3.185-4.637c-0.041-2.277-0.001-4.555-0.011-6.833
		c-0.004-0.994-0.021-0.974-0.993-1.027c-0.495-0.028-1.187,0.27-1.442-0.224c-0.323-0.625,0.416-0.952,0.772-1.334
		c1.525-1.637,3.077-3.249,4.63-4.86C323.114,137.355,323.355,136.97,324.026,136.718z"/>
	<path fill-rule="evenodd" clip-rule="evenodd" fill="#0C89CB" d="M269.917,152.849c0.17,0.617,0.099,1.139,0.102,1.655
		c0.01,1.627,0.007,1.641-1.589,2.095c-1.561,0.444-3.144,0.63-4.724,0.126c-2.215-0.707-3.551-2.533-3.569-4.863
		c-0.018-2.279,0.004-4.559-0.006-6.839c-0.004-0.903-0.021-0.904-0.948-0.931c-0.24-0.007-0.48,0.008-0.72-0.005
		c-0.27-0.014-0.607,0.093-0.77-0.192c-0.189-0.333,0.032-0.607,0.262-0.846c1.966-2.049,3.932-4.098,5.901-6.143
		c0.048-0.049,0.143-0.053,0.295-0.105c0.305,0.503,0.119,1.067,0.149,1.591c0.035,0.598,0.027,1.2,0.006,1.799
		c-0.019,0.509,0.185,0.714,0.7,0.706c1.24-0.02,2.48-0.013,3.72-0.001c0.987,0.009,0.99,0.019,1.005,0.984
		c0.008,0.48-0.021,0.961,0.006,1.439c0.031,0.533-0.215,0.694-0.712,0.688c-1.279-0.018-2.561-0.015-3.84,0.001
		c-0.844,0.011-0.866,0.027-0.872,0.882c-0.013,2.08-0.033,4.16,0.009,6.239c0.037,1.862,1.004,2.664,2.858,2.512
		C268.109,153.565,268.95,153.199,269.917,152.849z"/>
	<path fill-rule="evenodd" clip-rule="evenodd" fill="#0C89CB" d="M403.73,107.879c0-3.554-0.004-7.108,0.002-10.663
		c0.002-0.989,0.016-0.996,0.977-1.008c0.799-0.01,1.6,0.029,2.396-0.011c0.6-0.03,0.785,0.233,0.735,0.779
		c-0.019,0.198-0.001,0.399-0.001,0.599c0,6.949,0,13.897,0,20.846c0,0.2-0.018,0.401,0,0.599c0.049,0.543-0.131,0.809-0.734,0.781
		c-0.877-0.041-1.758-0.036-2.635-0.002c-0.585,0.022-0.755-0.22-0.748-0.777c0.022-2.037,0.008-4.073,0.008-6.11
		C403.729,111.233,403.729,109.556,403.73,107.879z"/>
	<path fill-rule="evenodd" clip-rule="evenodd" fill="#0C89CB" d="M238.106,107.586c0.419-0.608,0.82-1.231,1.263-1.823
		c0.655-0.878,1.445-1.558,2.538-1.898c1.702-0.529,2.917,0.38,4.16,1.265c0.19,0.135,0.186,0.345,0.104,0.54
		c-0.426,1.021-0.858,2.039-1.309,3.106c-0.618-0.32-1.126-0.619-1.663-0.854c-1.316-0.58-2.486-0.318-3.507,0.682
		c-1.17,1.146-1.779,2.533-1.787,4.173c-0.009,1.957-0.003,3.914-0.006,5.87c-0.002,1.259,0.047,1.138-1.194,1.143
		c-0.759,0.003-1.518-0.013-2.276,0.002c-0.461,0.009-0.637-0.19-0.629-0.644c0.017-0.958,0.002-1.917,0.002-2.875
		c0-3.754-0.003-7.507,0.002-11.26c0.002-1.03,0.015-1.034,1.069-1.043c0.758-0.006,1.519,0.029,2.275-0.01
		c0.595-0.031,0.768,0.232,0.754,0.778c-0.022,0.937-0.006,1.874-0.006,2.811C237.968,107.561,238.037,107.574,238.106,107.586z"/>
	<path fill-rule="evenodd" clip-rule="evenodd" fill="#0D8ACB" d="M278.531,148.922c0,2.276,0.008,4.553-0.004,6.83
		c-0.005,0.935-0.024,0.943-0.913,0.958c-0.759,0.013-1.519,0.013-2.276,0c-0.894-0.015-0.91-0.024-0.918-0.957
		c-0.013-1.677-0.004-3.354-0.004-5.032c0-2.916-0.005-5.831,0.003-8.746c0.003-1.064,0.016-1.069,1.037-1.08
		c0.719-0.008,1.438-0.011,2.156,0.001c0.891,0.016,0.91,0.023,0.915,0.958C278.539,144.209,278.531,146.566,278.531,148.922z"/>
	<path fill-rule="evenodd" clip-rule="evenodd" fill="#0C89CB" d="M337.229,111.851c0,2.357,0.007,4.715-0.004,7.072
		c-0.004,0.839-0.022,0.848-0.864,0.864c-0.719,0.013-1.438,0.009-2.157,0.002c-1.054-0.01-1.063-0.014-1.067-1.034
		c-0.008-1.998-0.003-3.996-0.003-5.994c0-2.597-0.005-5.195,0.004-7.792c0.003-0.979,0.018-0.986,0.993-0.999
		c0.759-0.01,1.521,0.031,2.277-0.011c0.623-0.034,0.842,0.194,0.831,0.818c-0.03,1.678-0.01,3.356-0.01,5.035
		C337.23,110.492,337.23,111.171,337.229,111.851z"/>
	<path fill-rule="evenodd" clip-rule="evenodd" fill="#0C89CB" d="M237.117,75.004c0,2.276,0.006,4.552-0.004,6.828
		c-0.004,0.934-0.02,0.942-0.906,0.957c-0.758,0.013-1.518,0.012-2.276,0c-0.882-0.014-0.899-0.022-0.902-0.957
		c-0.009-2.835-0.003-5.67-0.003-8.505c0-1.757-0.007-3.514,0.003-5.271c0.005-0.938,0.019-0.948,0.901-0.967
		c0.758-0.017,1.518-0.017,2.276,0c0.888,0.02,0.904,0.031,0.908,0.967C237.123,70.372,237.117,72.688,237.117,75.004z"/>
	<path fill-rule="evenodd" clip-rule="evenodd" fill="#0E8ACB" d="M237.323,62.061c0.023,1.253-1.081,2.324-2.395,2.323
		c-1.191,0-2.286-1.083-2.316-2.292c-0.032-1.237,0.965-2.247,2.272-2.301C236.185,59.737,237.299,60.774,237.323,62.061z"/>
	<path fill-rule="evenodd" clip-rule="evenodd" fill="#0D8ACB" d="M337.427,99.115c0.001,1.23-1.164,2.337-2.425,2.306
		c-1.179-0.03-2.263-1.163-2.264-2.366c-0.001-1.292,1.083-2.306,2.429-2.271C336.409,96.816,337.427,97.865,337.427,99.115z"/>
	<path fill-rule="evenodd" clip-rule="evenodd" fill="#0D8ACB" d="M276.393,133.632c1.309,0,2.276,0.938,2.304,2.232
		c0.026,1.26-1.057,2.349-2.345,2.357c-1.247,0.008-2.32-1.116-2.299-2.41C274.073,134.52,275.027,133.632,276.393,133.632z"/>
	<path fill-rule="evenodd" clip-rule="evenodd" fill="#FFFFFF" d="M126.613,153.509c-24.895,0.012-45.076-20.196-45.105-45.112
		c-0.03-25.014,20.431-45.11,45.103-45.105c24.687,0.006,45.163,20.151,45.086,45.249
		C171.621,133.431,151.55,153.497,126.613,153.509z"/>
	<path fill-rule="evenodd" clip-rule="evenodd" fill="#FFFFFF" d="M323.68,362.145c0.775,1.396,6.111,14.031,6.373,15.054
		c-4.055,0-8.089,0-12.273,0C319.747,372.178,321.678,367.252,323.68,362.145z"/>
	<path fill-rule="evenodd" clip-rule="evenodd" fill="#FFFFFF" d="M216.934,103.024c0-0.837,0.017-1.674-0.007-2.51
		c-0.015-0.494,0.138-0.728,0.672-0.71c1.154,0.039,2.316-0.034,3.464,0.069c2.105,0.189,3.124,1.319,3.133,3.322
		c0.008,1.741-1.024,2.976-2.787,3.128c-1.306,0.113-2.627,0.03-3.942,0.046c-0.428,0.006-0.54-0.217-0.536-0.596
		C216.942,104.857,216.935,103.94,216.934,103.024z"/>
	<path fill-rule="evenodd" clip-rule="evenodd" fill="#FFFFFF" d="M346.755,112.237c0.021-0.761,0.029-1.354,0.188-1.942
		c0.582-2.161,2.178-3.432,4.323-3.413c2.013,0.018,3.638,1.381,4.061,3.55c0.294,1.509,0.124,2.981-0.515,4.434
		c-1.119,2.546-4.863,2.995-6.667,1.029C347.148,114.81,346.681,113.543,346.755,112.237z"/>
	<path fill-rule="evenodd" clip-rule="evenodd" fill="#FFFFFF" d="M261.552,111.854c0.011,1.057-0.237,1.964-0.594,2.868
		c-1.128,2.86-5.349,3.278-7.171,0.661c-1.255-1.801-1.309-4.893-0.066-6.687c1.841-2.659,5.901-2.346,7.305,0.568
		C261.431,110.105,261.584,111.006,261.552,111.854z"/>
	<path fill-rule="evenodd" clip-rule="evenodd" fill="#FDFEFF" d="M285.69,110.097c0.405-2.511,1.691-3.653,3.843-3.569
		c1.824,0.071,2.986,1.385,3.114,3.569C290.354,110.097,288.063,110.097,285.69,110.097z"/>
	<path fill-rule="evenodd" clip-rule="evenodd" fill="#FCFEFE" d="M340.963,147.017c-0.957,0-1.914-0.001-2.871,0
		c-0.438,0-0.658-0.124-0.549-0.644c0.367-1.75,1.664-2.879,3.441-2.942c1.828-0.064,3.222,1.137,3.465,2.954
		c0.069,0.515-0.067,0.733-0.615,0.717c-0.956-0.028-1.914-0.008-2.871-0.008C340.963,147.068,340.963,147.042,340.963,147.017z"/>
	<path fill-rule="evenodd" clip-rule="evenodd" fill="#FEFEFF" d="M392.926,112.257c0,1.308,0.001,2.422-0.002,3.536
		c-0.001,0.237-0.013,0.462-0.185,0.669c-0.615,0.745-2.435,1.219-3.326,0.848c-1.181-0.491-1.445-2.187-0.455-3.092
		C390.042,113.227,391.393,112.761,392.926,112.257z"/>
	<path fill-rule="evenodd" clip-rule="evenodd" fill="#0C89CB" d="M120.317,123.39c12.082,0,23.949,0,35.789,0
		c0.21,0.487-0.029,0.854-0.125,1.223c-1.117,4.25-2.25,8.495-3.381,12.74c-0.285,1.069-0.291,1.073-1.459,1.073
		c-16.233,0.001-32.467,0.001-48.701,0.001c-0.16,0-0.32,0.005-0.479-0.002c-0.788-0.036-0.846-0.08-0.649-0.845
		c0.64-2.475,1.304-4.944,1.961-7.414c5.165-19.417,10.331-38.833,15.497-58.249c0.062-0.231,0.141-0.459,0.188-0.693
		c0.074-0.367,0.268-0.563,0.657-0.541c0.159,0.009,0.32-0.003,0.48-0.003c4.358,0,8.716-0.001,13.074,0.002
		c0.276,0,0.552,0.033,1.012,0.063C129.587,88.286,124.941,105.744,120.317,123.39z"/>
	<path fill-rule="evenodd" clip-rule="evenodd" fill="#0C89CB" d="M146.197,93.167c-4.13-0.001-7.48-3.34-7.487-7.462
		c-0.007-4.209,3.326-7.516,7.556-7.498c4.154,0.019,7.434,3.337,7.419,7.506C153.67,89.853,150.34,93.168,146.197,93.167z"/>
</g>
</svg>
