<?xml version="1.0" encoding="utf-8"?>
<!-- Generator: Adobe Illustrator 23.1.1, SVG Export Plug-In . SVG Version: 6.00 Build 0)  -->
<svg version="1.1" id="Layer_1" xmlns="http://www.w3.org/2000/svg" xmlns:xlink="http://www.w3.org/1999/xlink" x="0px" y="0px" viewBox="0 0 288 288" style="enable-background:new 0 0 288 288;" xml:space="preserve">
  <style type="text/css">
	.st0{fill:#FFFFFF;}
	.st1{fill:#6A747C;}
	.st2{fill:#E1251B;}
</style>
  <g>
    <path class="st0" d="M144.7,48.7c-52.6,0-95.4,42.8-95.4,95.4c0,26.5,10.6,51.1,29.8,69.3l1,1l1.1-1c2.8-2.6,5.7-4.9,8.7-7.1
		c14.6,12.9,33.8,20.8,54.8,20.8c21,0,40.2-7.9,54.8-20.8c3,2.2,5.9,4.5,8.6,7.1l1.1,1l1-1c19.3-18.2,29.9-42.9,29.9-69.3
		C240.2,91.6,197.3,48.7,144.7,48.7z" />
    <path class="st1" d="M144.7,48.7c-52.6,0-95.4,42.8-95.4,95.4c0,26.5,10.6,51.1,29.8,69.3l1,1l1.1-1c2.8-2.6,5.7-4.9,8.7-7.1
		c14.6,12.9,33.8,20.8,54.8,20.8c21,0,40.2-7.9,54.8-20.8c3,2.2,5.9,4.5,8.6,7.1l1.1,1l1-1c19.3-18.2,29.9-42.9,29.9-69.3
		C240.2,91.6,197.3,48.7,144.7,48.7z M144.7,224.1c-20,0-38.2-7.4-52.2-19.5c8.2-5.5,17.1-9.6,26.5-12.3c-0.1,0.6-0.2,1.1-0.2,1.7
		c0,4.3,3.5,7.8,7.8,7.8h37.1c4.9,0,8.9-4,8.9-8.8c8.6,2.7,16.8,6.6,24.3,11.7C182.9,216.7,164.7,224.1,144.7,224.1z M64.8,144.2
		c0-44.1,35.8-79.9,79.9-79.9s79.9,35.8,79.9,79.9c0,23-9.8,43.7-25.3,58.3c-8.4-5.8-17.6-10.1-27.3-13c-1.3-3.3-4.5-5.6-8.3-5.6
		h-2.5v-0.4c0-6.4-5.2-11.6-11.6-11.6c-4.8,0-9.1,3-10.8,7.4h-3.2c-4.2,0-7.8,3-8.7,7h-0.3c-2.1,0-4.1,0.9-5.5,2.3
		c-11,2.8-21.5,7.5-30.9,13.9C74.6,187.8,64.8,167.1,64.8,144.2z M126.5,189.3h3.1l0.1-1.5c0.2-3.1,2.7-5.5,5.8-5.5h5.5l0.3-1.1
		c1-3.7,4.4-6.2,8.2-6.2c4.7,0,8.5,3.8,8.5,8.5v3.5h5.6c3.2,0,5.8,2.6,5.8,5.8c0,3.2-2.6,5.8-5.8,5.8h-37.1c-2.6,0-4.7-2.1-4.7-4.7
		C121.9,191.4,124,189.3,126.5,189.3z M209.2,210.2c-2.4-2.1-4.8-4.1-7.4-5.9c15.9-15.1,25.9-36.5,25.9-60.1c0-45.8-37.2-83-83-83
		s-83,37.2-83,83c0,23.6,9.9,44.9,25.8,60.1c-2.5,1.9-5,3.9-7.4,6c-17.9-17.5-27.8-40.9-27.8-66.1c0-50.9,41.4-92.4,92.4-92.4
		s92.4,41.4,92.4,92.4C237.1,169.3,227.2,192.7,209.2,210.2z" />
    <g>
      <path class="st2" d="M120.9,90.8c-2.2,0-4,1.5-4,3.4c0,1.9,1.8,3.4,4,3.4c2.2,0,4-1.5,4-3.4C124.9,92.3,123.1,90.8,120.9,90.8
			 M120.9,99.9c-3.5,0-6.3-2.5-6.3-5.7c0-3.2,2.8-5.7,6.3-5.7c3.5,0,6.3,2.5,6.3,5.7C127.1,97.4,124.4,99.9,120.9,99.9" />
      <path class="st2" d="M143.3,99.9c-1.3,0-2.3-1-2.3-2.3l0-4.7c0-1.1-1-2-2.2-2c-1.2,0-2.2,0.9-2.2,2l0,7c-1.3,0-2.3-1-2.3-2.3v-4.8
			c0-1.1-1-2-2.2-2c-1.2,0-2.2,0.9-2.2,2l0,4.7c0,1.3-1,2.3-2.3,2.3l0-7c0-2.4,2-4.3,4.5-4.3c1.3,0,2.5,0.5,3.3,1.4
			c0.8-0.9,2-1.4,3.3-1.4c2.5,0,4.5,1.9,4.5,4.3L143.3,99.9z" />
      <path class="st2" d="M150.8,99.8c-0.6,0-1.2,0-1.7-0.2c-1.2-0.3-1.9-1.6-1.6-2.8c0-0.1,0.1-0.3,0.1-0.4l0,0
			c0.6,0.7,1.7,1.1,3.1,1.1c2.1,0,3.7-1.5,3.7-3.3c0-1.9-1.6-3.5-3.7-3.5c-2,0-4,1.1-4,3.5l0,7.4c0,1.2-1,2.2-2.3,2.2l0-9.6
			c0-3.3,2.6-5.8,6.2-5.8c1.6,0,3.1,0.6,4.2,1.6c1.1,1.1,1.8,2.5,1.8,4.1C156.8,97.4,154.1,99.8,150.8,99.8" />
      <path class="st2" d="M167,86.3l-4.9,0l0,13.5h-0.1c-1.2,0-2.2-1-2.2-2.3l0-11.2l-4.9,0c-1.2,0-2.2-1-2.2-2.3l16.6,0
			C169.3,85.3,168.3,86.3,167,86.3" />
      <path class="st2" d="M181.5,86.4l-3.2,7.1l6.1,0l-3.3-7.2L181.5,86.4z M186.6,98.4l-1.2-2.6l-8.1,0l-1.2,2.7
			c-0.6,1.1-2.1,1.4-3.2,1.4l6.6-14.5c0.4-0.8,1-1.3,1.8-1.3c0.8,0,1.5,0.5,1.8,1.3l6.5,14.3C188.4,99.8,187.1,99.5,186.6,98.4" />
      <path class="st2" d="M112,88.3c-1.2-1.3-3-2.2-5-2.2c-3.5,0-6.4,2.6-6.4,5.7c0,3.2,2.9,5.8,6.4,5.8c1.7,0,3.3-0.6,4.5-1.7
			c0.8-0.7,2.1-0.6,2.9,0c-0.6,1-1.5,1.8-2.5,2.4c-1.5,0.9-3.1,1.4-4.9,1.4c-4.8,0-8.7-3.6-8.7-8c0-4.4,3.9-8,8.7-8
			c3.4,0,6.5,1.9,7.9,4.7C114,89.2,112.8,89.1,112,88.3" />
      <path class="st2" d="M191,98c0,0-0.1,0-0.1,0c0,0,0.1,0.1,0.3,0.4l0,0c-0.1,0.1-0.2,0.1-0.3,0c-0.3-0.3-0.3-0.3-0.3-0.3h-0.3V98
			c0-0.1,0.1-0.2,0.2-0.2l0.1,0c0.1,0,0.2,0,0.2,0c0,0,0.1,0,0.1-0.1c0,0,0-0.1-0.3-0.1h-0.4v0.8c0,0.1-0.1,0.2-0.2,0.2h-0.1v-1
			c0-0.1,0.1-0.2,0.2-0.2h0.5c0.5,0,0.6,0.3,0.6,0.4C191.2,97.8,191.1,97.9,191,98 M190.5,97.1c-0.5,0-0.9,0.4-0.9,0.8
			c0,0.5,0.4,0.8,0.9,0.8c0.5,0,1-0.4,1-0.8C191.5,97.4,191,97.1,190.5,97.1 M190.5,99c-0.7,0-1.2-0.5-1.2-1.1
			c0-0.6,0.5-1.1,1.2-1.1c0.7,0,1.2,0.5,1.2,1.1C191.7,98.5,191.2,99,190.5,99" />
      <path class="st2" d="M170,84.1l0,13.6c0,1.2,1,2.2,2.3,2.2l0-13.6C172.3,85.1,171.3,84.1,170,84.1" />
    </g>
    <path class="st2" d="M243.5,110.1H37.6V160c0,4.6,3.8,8.4,8.4,8.4h205.9v-49.9C251.8,113.8,248.1,110.1,243.5,110.1z" />
    <path class="st1" d="M209.6,207.8c0,0-0.1,0-0.1,0c0,0,0.1,0.1,0.3,0.4l0,0c-0.1,0.1-0.2,0.1-0.3,0c-0.3-0.3-0.3-0.3-0.3-0.3
		l-0.3,0v-0.1c0-0.1,0.1-0.2,0.2-0.2h0.1c0.1,0,0.2,0,0.2,0c0,0,0.1,0,0.1-0.1c0,0,0-0.1-0.3-0.1h-0.4v0.8c0,0.1-0.1,0.2-0.2,0.2
		h-0.1l0-1c0-0.1,0.1-0.2,0.2-0.2h0.5c0.5,0,0.6,0.3,0.6,0.4C209.7,207.6,209.7,207.7,209.6,207.8 M209.1,206.9
		c-0.5,0-0.9,0.4-0.9,0.8c0,0.5,0.4,0.8,0.9,0.8c0.5,0,1-0.4,1-0.8C210.1,207.2,209.6,206.9,209.1,206.9 M209.1,208.8
		c-0.7,0-1.2-0.5-1.2-1.1c0-0.6,0.5-1.1,1.2-1.1c0.7,0,1.2,0.5,1.2,1.1C210.3,208.3,209.8,208.8,209.1,208.8" />
    <g>
      <g>
        <path class="st0" d="M118.6,136.7c-5.3,0-9.3-4.1-9.3-9.4c0-5.2,3.9-9.4,9.4-9.4c3.4,0,5.4,1.2,7.1,2.8l-2.1,2.4
				c-1.5-1.4-3-2.3-5.1-2.3c-3.5,0-6,2.9-6,6.4c0,3.6,2.5,6.5,6,6.5c2.2,0,3.7-0.9,5.2-2.4l2.1,2.1
				C124.1,135.4,122,136.7,118.6,136.7z" />
        <path class="st0" d="M128.2,136.3v-19h3.1v19H128.2z" />
        <path class="st0" d="M141.2,136.7c-4.2,0-7.3-3.2-7.3-7.1c0-4,3.1-7.2,7.3-7.2c4.2,0,7.3,3.2,7.3,7.1
				C148.6,133.4,145.4,136.7,141.2,136.7z M141.2,125.1c-2.5,0-4.1,2-4.1,4.4c0,2.4,1.7,4.4,4.2,4.4c2.5,0,4.2-2,4.2-4.4
				C145.4,127.1,143.7,125.1,141.2,125.1z" />
        <path class="st0" d="M160.1,122.6h3.1v13.7h-3.1v-2.1c-0.9,1.3-2.2,2.4-4.3,2.4c-3.1,0-4.9-2.1-4.9-5.3v-8.7h3.1v7.8
				c0,2.1,1.1,3.4,2.9,3.4c1.8,0,3.1-1.3,3.1-3.4V122.6z" />
        <path class="st0" d="M176.9,136.3v-2.3c-1,1.4-2.4,2.6-4.7,2.6c-3.2,0-6.4-2.6-6.4-7.1c0-4.6,3.1-7.1,6.4-7.1
				c2.3,0,3.7,1.1,4.7,2.4v-7.4h3.1v19H176.9z M173,125.1c-2.2,0-4,1.7-4,4.4c0,2.7,1.8,4.4,4,4.4c2.1,0,4-1.7,4-4.4
				C177,126.8,175.1,125.1,173,125.1z" />
      </g>
      <g>
        <path class="st0" d="M90.9,144.3H80.6v4.7h9.1v2.9h-9.1v4.9H91v2.9H77.4v-18.2h13.5V144.3z" />
        <path class="st0" d="M98.7,159.9c-1.9,0-4.1-0.7-5.8-2.1l1.4-2.1c1.5,1.1,3.1,1.7,4.5,1.7c1.4,0,2.1-0.6,2.1-1.5v-0.1
				c0-1.1-1.5-1.4-3.1-1.9c-2-0.6-4.3-1.4-4.3-4v-0.1c0-2.6,2.2-4.2,4.9-4.2c1.7,0,3.6,0.6,5,1.6l-1.2,2.2c-1.3-0.8-2.7-1.3-3.9-1.3
				c-1.2,0-1.9,0.6-1.9,1.4v0.1c0,1,1.5,1.4,3.1,1.9c2,0.6,4.3,1.5,4.3,4v0.1C103.8,158.4,101.5,159.9,98.7,159.9z" />
        <path class="st0" d="M111,159.9c-1.9,0-4.1-0.7-5.8-2.1l1.4-2.1c1.5,1.1,3.1,1.7,4.5,1.7c1.4,0,2.1-0.6,2.1-1.5v-0.1
				c0-1.1-1.5-1.4-3.1-1.9c-2-0.6-4.3-1.4-4.3-4v-0.1c0-2.6,2.2-4.2,4.9-4.2c1.7,0,3.6,0.6,5,1.6l-1.2,2.2c-1.3-0.8-2.7-1.3-3.9-1.3
				c-1.2,0-1.9,0.6-1.9,1.4v0.1c0,1,1.5,1.4,3.1,1.9c2,0.6,4.3,1.5,4.3,4v0.1C116.1,158.4,113.8,159.9,111,159.9z" />
        <path class="st0" d="M124.8,157.3c1.5,0,2.6-0.6,3.7-1.6l1.8,1.6c-1.3,1.6-3.1,2.6-5.6,2.6c-4,0-7-2.9-7-7.1c0-4,2.8-7.2,6.7-7.2
				c4.4,0,6.6,3.4,6.6,7.4c0,0.3,0,0.5-0.1,0.9h-10.1C121.2,156.1,122.8,157.3,124.8,157.3z M127.9,151.8c-0.2-2-1.4-3.6-3.5-3.6
				c-1.9,0-3.3,1.5-3.6,3.6H127.9z" />
        <path class="st0" d="M136.7,159.6h-3.1v-13.7h3.1v2.1c0.9-1.3,2.2-2.4,4.3-2.4c3.1,0,4.9,2.1,4.9,5.3v8.7h-3.1v-7.8
				c0-2.1-1.1-3.4-2.9-3.4c-1.8,0-3.1,1.3-3.1,3.4V159.6z" />
        <path class="st0" d="M152.6,155.3c0,1.2,0.6,1.7,1.7,1.7c0.7,0,1.3-0.2,1.9-0.5v2.6c-0.8,0.4-1.7,0.7-2.8,0.7c-2.3,0-3.9-1-3.9-4
				v-7.2h-1.7v-2.7h1.7v-3.8h3.1v3.8h3.7v2.7h-3.7V155.3z" />
        <path class="st0" d="M158.6,143.8v-3h3.4v3H158.6z M158.7,159.6v-13.7h3.1v13.7H158.7z" />
        <path class="st0" d="M173.6,159.6v-1.7c-0.9,1.1-2.4,2-4.4,2c-2.6,0-4.9-1.5-4.9-4.2v-0.1c0-3,2.4-4.4,5.6-4.4
				c1.7,0,2.7,0.2,3.8,0.6v-0.3c0-1.9-1.2-2.9-3.4-2.9c-1.5,0-2.7,0.3-3.9,0.9l-0.9-2.5c1.5-0.7,3-1.1,5.2-1.1c4.1,0,6,2.1,6,5.8
				v8.1H173.6z M173.7,153.8c-0.8-0.3-1.9-0.5-3.1-0.5c-2,0-3.1,0.8-3.1,2.2v0.1c0,1.3,1.2,2,2.7,2c2.1,0,3.6-1.2,3.6-2.9V153.8z" />
        <path class="st0" d="M180,159.6v-19h3.1v19H180z" />
        <path class="st0" d="M191.2,159.9c-1.9,0-4.1-0.7-5.8-2.1l1.4-2.1c1.5,1.1,3.1,1.7,4.5,1.7c1.4,0,2.1-0.6,2.1-1.5v-0.1
				c0-1.1-1.5-1.4-3.1-1.9c-2-0.6-4.3-1.4-4.3-4v-0.1c0-2.6,2.2-4.2,4.9-4.2c1.7,0,3.6,0.6,5,1.6l-1.2,2.2c-1.3-0.8-2.7-1.3-3.9-1.3
				c-1.2,0-1.9,0.6-1.9,1.4v0.1c0,1,1.5,1.4,3.1,1.9c2,0.6,4.3,1.5,4.3,4v0.1C196.3,158.4,194,159.9,191.2,159.9z" />
        <path class="st0" d="M203.8,146.1h3v5.1h5.1v2.9h-5.1v5.1h-3v-5.1h-5.1v-2.9h5.1V146.1z" />
      </g>
    </g>
  </g>
</svg>