<?xml version="1.0" encoding="utf-8"?>
<!-- Generator: Adobe Illustrator 19.2.0, SVG Export Plug-In . SVG Version: 6.00 Build 0)  -->
<svg version="1.1" id="Layer_1" xmlns="http://www.w3.org/2000/svg" xmlns:xlink="http://www.w3.org/1999/xlink" x="0px" y="0px" viewBox="0 0 288 288" style="enable-background:new 0 0 288 288;" xml:space="preserve">
  <style type="text/css">
	.st0{fill:#FFFFFF;}
	.st1{fill:#6A747C;}
	.st2{fill:#E2231A;}
</style>
  <g>
    <g>
      <g>
        <path class="st0" d="M144.7,50.5c-52.6,0-95.4,42.8-95.4,95.4c0,26.5,10.6,51.1,29.8,69.3l1,1l1.1-1c2.8-2.6,5.7-4.9,8.7-7.1
				c14.6,12.9,33.8,20.8,54.8,20.8c21,0,40.2-7.9,54.8-20.8c3,2.2,5.9,4.5,8.7,7.1l1.1,1l1-1c19.3-18.2,29.9-42.9,29.9-69.3
				C240.2,93.4,197.3,50.5,144.7,50.5z" />
        <path class="st1" d="M144.7,50.5c-52.6,0-95.4,42.8-95.4,95.4c0,26.5,10.6,51.1,29.8,69.3l1,1l1.1-1c2.8-2.6,5.7-4.9,8.7-7.1
				c14.6,12.9,33.8,20.8,54.8,20.8c21,0,40.2-7.9,54.8-20.8c3,2.2,5.9,4.5,8.7,7.1l1.1,1l1-1c19.3-18.2,29.9-42.9,29.9-69.3
				C240.2,93.4,197.3,50.5,144.7,50.5z M144.7,225.9c-20,0-38.2-7.4-52.2-19.5c10.7-7.2,22.7-12,35.4-14.3v14.8c0,4.9,4,8.9,8.9,8.9
				h23v-21l2.5-2.5c12.4,2.3,24.1,7.2,34.6,14.2C182.9,218.5,164.7,225.9,144.7,225.9z M64.8,146c0-44.1,35.8-79.9,79.9-79.9
				s79.9,35.8,79.9,79.9c0,23-9.8,43.7-25.3,58.3c-10.4-7.1-22.1-12.1-34.4-14.7l10.4-10.4c0.6-0.6,0.6-1.6,0-2.2
				c-0.6-0.6-1.6-0.6-2.2,0l-16.3,16.3h-0.1v0.1l-8.1,8.1l-9.3-9.3c-0.6-0.6-1.6-0.6-2.2,0s-0.6,1.6,0,2.2l11.5,11.5l8.1-8.1v14.9
				h-20c-3.2,0-5.8-2.6-5.8-5.8v-21.4h27.3v-3.1h-30.4v6.5c-13.6,2.4-26.4,7.6-37.8,15.4C74.6,189.7,64.8,168.9,64.8,146z
				 M209.2,212c-2.4-2.1-4.8-4.1-7.4-6c15.9-15.1,25.8-36.5,25.8-60.1c0-45.8-37.2-83-83-83c-45.8,0-83,37.2-83,83
				c0,23.6,9.9,44.9,25.8,60.1c-2.5,1.9-5,3.9-7.4,6c-17.9-17.5-27.8-40.9-27.8-66.1c0-50.9,41.4-92.4,92.4-92.4
				s92.4,41.4,92.4,92.4C237.1,171.1,227.2,194.5,209.2,212z" />
        <g>
          <g>
            <path class="st2" d="M120.9,92.6c-2.2,0-4,1.5-4,3.4c0,1.9,1.8,3.4,4,3.4c2.2,0,4-1.5,4-3.4C124.9,94.1,123.1,92.6,120.9,92.6
						 M120.9,101.7c-3.5,0-6.3-2.5-6.3-5.7c0-3.2,2.8-5.7,6.3-5.7c3.5,0,6.3,2.5,6.3,5.7C127.1,99.2,124.4,101.7,120.9,101.7" />
            <path class="st2" d="M143.3,101.7c-1.3,0-2.3-1-2.3-2.3l0-4.7c0-1.1-1-2-2.2-2c-1.2,0-2.2,0.9-2.2,2l0,7c-1.3,0-2.3-1-2.3-2.3
						v-4.8c0-1.1-1-2-2.2-2c-1.2,0-2.2,0.9-2.2,2l0,4.7c0,1.3-1,2.3-2.3,2.3l0-7c0-2.4,2-4.3,4.5-4.3c1.3,0,2.5,0.5,3.3,1.4
						c0.8-0.9,2-1.4,3.3-1.4c2.5,0,4.5,1.9,4.5,4.3L143.3,101.7z" />
            <path class="st2" d="M150.8,101.6c-0.6,0-1.2,0-1.7-0.2c-1.2-0.3-1.9-1.6-1.6-2.8c0-0.1,0.1-0.3,0.1-0.4l0,0
						c0.6,0.7,1.7,1.1,3.1,1.1c2.1,0,3.7-1.5,3.7-3.3c0-1.9-1.6-3.5-3.7-3.5c-2,0-4,1.1-4,3.5l0,7.4c0,1.2-1,2.2-2.3,2.2l0-9.6
						c0-3.3,2.6-5.8,6.2-5.8c1.6,0,3.1,0.6,4.2,1.6c1.1,1.1,1.8,2.5,1.8,4.1C156.8,99.2,154.1,101.6,150.8,101.6" />
            <path class="st2" d="M167,88.1l-4.9,0l0,13.5h-0.1c-1.2,0-2.2-1-2.2-2.3l0-11.2l-4.9,0c-1.2,0-2.2-1-2.2-2.3l16.6,0
						C169.3,87.1,168.3,88.1,167,88.1" />
            <path class="st2" d="M181.5,88.2l-3.2,7.1l6.1,0l-3.3-7.2L181.5,88.2z M186.6,100.2l-1.2-2.6l-8.1,0l-1.2,2.7
						c-0.6,1.1-2.1,1.4-3.2,1.4l6.6-14.5c0.4-0.8,1-1.3,1.8-1.3c0.8,0,1.5,0.5,1.8,1.3l6.5,14.3
						C188.4,101.6,187.1,101.3,186.6,100.2" />
            <path class="st2" d="M112,90.1c-1.2-1.3-3-2.2-5-2.2c-3.5,0-6.4,2.6-6.4,5.7c0,3.2,2.9,5.8,6.4,5.8c1.7,0,3.3-0.6,4.5-1.7
						c0.8-0.7,2.1-0.6,2.9,0c-0.6,1-1.5,1.8-2.5,2.4c-1.5,0.9-3.1,1.4-4.9,1.4c-4.8,0-8.7-3.6-8.7-8c0-4.4,3.9-8,8.7-8
						c3.4,0,6.5,1.9,7.9,4.7C114,91,112.8,91,112,90.1" />
            <path class="st2" d="M191,99.8c0,0-0.1,0-0.1,0c0,0,0.1,0.1,0.3,0.4l0,0c-0.1,0.1-0.2,0.1-0.3,0c-0.3-0.3-0.3-0.3-0.3-0.3h-0.3
						v-0.1c0-0.1,0.1-0.2,0.2-0.2h0.1c0.1,0,0.2,0,0.2,0c0,0,0.1,0,0.1-0.1c0,0,0-0.1-0.3-0.1h-0.4v0.8c0,0.1-0.1,0.2-0.2,0.2h-0.1
						v-1c0-0.1,0.1-0.2,0.2-0.2h0.5c0.5,0,0.6,0.3,0.6,0.4C191.2,99.6,191.1,99.7,191,99.8 M190.5,98.9c-0.5,0-0.9,0.4-0.9,0.8
						c0,0.5,0.4,0.8,0.9,0.8c0.5,0,1-0.4,1-0.8C191.5,99.3,191,98.9,190.5,98.9 M190.5,100.8c-0.7,0-1.2-0.5-1.2-1.1
						c0-0.6,0.5-1.1,1.2-1.1c0.7,0,1.2,0.5,1.2,1.1C191.7,100.3,191.2,100.8,190.5,100.8" />
            <path class="st2" d="M170,85.9l0,13.6c0,1.2,1,2.2,2.3,2.2l0-13.6C172.3,86.9,171.3,85.9,170,85.9" />
          </g>
          <path class="st2" d="M243.5,111.9H37.6v49.9c0,4.6,3.8,8.4,8.4,8.4h205.9v-49.9C251.8,115.6,248.1,111.9,243.5,111.9z" />
          <g>
            <path class="st0" d="M85.9,144.9h-5.1v8.3h-4.5v-25.8h10.2c6,0,9.8,3.4,9.8,8.7C96.3,141.9,91.6,144.9,85.9,144.9z M86.1,131.5
						h-5.3v9.3h5.3c3.4,0,5.6-1.9,5.6-4.7C91.6,133.1,89.5,131.5,86.1,131.5z" />
            <path class="st0" d="M103.6,153.2h-4.5v-19.5h4.5v4.4c1.2-2.9,3.5-4.9,6.9-4.8v4.7h-0.3c-3.9,0-6.6,2.5-6.6,7.7V153.2z" />
            <path class="st0" d="M122.2,153.6c-5.9,0-10.3-4.5-10.3-10.1c0-5.6,4.4-10.2,10.4-10.2c6,0,10.4,4.5,10.4,10.2
						C132.7,149,128.2,153.6,122.2,153.6z M122.2,137.2c-3.6,0-5.9,2.8-5.9,6.2c0,3.5,2.5,6.3,5.9,6.3c3.6,0,5.9-2.8,5.9-6.2
						C128.2,140.1,125.7,137.2,122.2,137.2z" />
            <path class="st0" d="M140.6,133.7v19.8c0,4-2,5.8-5.7,5.8c-0.8,0-1.4-0.1-2.1-0.2v-3.6c0.4,0.1,0.8,0.1,1.3,0.1
						c1.3,0,2.1-0.7,2.1-2.4v-19.5H140.6z M136,130.7v-4.2h4.8v4.2H136z" />
            <path class="st0" d="M154.2,150c2.2,0,3.7-0.8,5.3-2.3l2.6,2.3c-1.8,2.2-4.4,3.7-8,3.7c-5.6,0-10-4.1-10-10.2
						c0-5.6,4-10.2,9.5-10.2c6.2,0,9.3,4.9,9.3,10.5c0,0.4,0,0.8-0.1,1.2h-14.3C149.1,148.2,151.3,150,154.2,150z M158.6,142.1
						c-0.3-2.9-2-5.1-4.9-5.1c-2.7,0-4.7,2.1-5.1,5.1H158.6z" />
            <path class="st0" d="M175.4,153.6c-5.8,0-10.1-4.5-10.1-10.1c0-5.6,4.3-10.2,10.1-10.2c3.7,0,6,1.4,7.8,3.4l-2.8,3
						c-1.4-1.4-2.8-2.4-5.1-2.4c-3.3,0-5.6,2.8-5.6,6.2c0,3.5,2.4,6.3,5.8,6.3c2.1,0,3.7-1,5.1-2.4l2.7,2.7
						C181.5,152.1,179.2,153.6,175.4,153.6z" />
            <path class="st0" d="M192.2,147.1c0,1.7,0.9,2.4,2.4,2.4c1,0,1.9-0.2,2.8-0.7v3.7c-1.1,0.6-2.4,1-4,1c-3.3,0-5.6-1.4-5.6-5.7
						v-10.3h-2.5v-3.8h2.5v-5.4h4.5v5.4h5.2v3.8h-5.2V147.1z" />
            <path class="st0" d="M207.3,131.1h4.2v7.1h7.1v4.1h-7.1v7.1h-4.2v-7.1h-7.1v-4.1h7.1V131.1z" />
          </g>
        </g>
      </g>
    </g>
    <path class="st1" d="M209.5,209.8c0,0-0.1,0-0.1,0c0,0,0.1,0.1,0.3,0.4l0,0c-0.1,0.1-0.2,0.1-0.3,0c-0.3-0.3-0.3-0.3-0.3-0.3h-0.3
		v-0.1c0-0.1,0.1-0.2,0.2-0.2h0.1c0.1,0,0.2,0,0.2,0c0,0,0.1,0,0.1-0.1c0,0,0-0.1-0.3-0.1h-0.4v0.8c0,0.1-0.1,0.2-0.2,0.2h-0.1v-1
		c0-0.1,0.1-0.2,0.2-0.2h0.5c0.5,0,0.6,0.3,0.6,0.4C209.7,209.6,209.7,209.8,209.5,209.8 M209.1,208.9c-0.5,0-0.9,0.4-0.9,0.8
		c0,0.5,0.4,0.8,0.9,0.8c0.5,0,1-0.4,1-0.8C210.1,209.3,209.6,208.9,209.1,208.9 M209.1,210.8c-0.7,0-1.2-0.5-1.2-1.1
		c0-0.6,0.5-1.1,1.2-1.1c0.7,0,1.2,0.5,1.2,1.1C210.3,210.3,209.8,210.8,209.1,210.8" />
  </g>
</svg>