<?xml version="1.0" standalone="no"?>
<!DOCTYPE svg PUBLIC "-//W3C//DTD SVG 1.1//EN" "http://www.w3.org/Graphics/SVG/1.1/DTD/svg11.dtd" >
<svg xmlns="http://www.w3.org/2000/svg" xmlns:xlink="http://www.w3.org/1999/xlink" version="1.1">
<metadata>
Created by FontForge 20170731 at Tue Nov  3 05:09:11 2020
 By Aleksey,,,
(c) 1990, 2001, 2002 Adobe Systems Incorporated. All rights reserved. (c) 1981, 2001, 2002 Heidelberger Druckmaschinen AG. All rights reserved.
</metadata>
<defs>
<font id="NeuzeitSLTStd-BookHeavy" horiz-adv-x="1138" >
  <font-face 
    font-family="Neuzeit S LT Std Book"
    font-weight="850"
    font-stretch="normal"
    units-per-em="2048"
    panose-1="2 11 9 3 2 2 4 2 2 3"
    ascent="1540"
    descent="-508"
    x-height="1053"
    cap-height="1540"
    bbox="-350 -479 2048 2009"
    underline-thickness="102"
    underline-position="-307"
    unicode-range="U+0020-FB02"
  />
<missing-glyph horiz-adv-x="1024" 
d="M0 0v1434h1024v-1434h-1024zM512 809l348 522h-696zM573 717l349 -522v1044zM164 102h696l-348 523zM102 1239v-1044l349 522z" />
    <glyph glyph-name="f_i" unicode="fi" horiz-adv-x="1251" 
d="M172 0v827h-149v226h149v137q0 87 18 150.5t50 104t84.5 64.5t113 33.5t142.5 9.5h57v-249h-82q-40 0 -64 -21.5t-24 -64.5v-164h170v-226h-170v-827h-295zM819 0v1053h295v-1053h-295zM967 1208q-71 0 -121.5 53t-50.5 117q0 67 50.5 120.5t121.5 53.5q67 0 119.5 -50.5
t52.5 -119.5q0 -68 -51 -121t-121 -53z" />
    <glyph glyph-name="f_l" unicode="fl" horiz-adv-x="1251" 
d="M172 0v827h-149v226h149v137q0 87 18 150.5t50 104t84.5 64.5t113 33.5t142.5 9.5h57v-249h-82q-40 0 -64 -21.5t-24 -64.5v-164h170v-226h-170v-827h-295zM819 0v1540h295v-1540h-295z" />
    <glyph glyph-name=".notdef" horiz-adv-x="1024" 
d="M0 0v1434h1024v-1434h-1024zM512 809l348 522h-696zM573 717l349 -522v1044zM164 102h696l-348 523zM102 1239v-1044l349 522z" />
    <glyph glyph-name=".null" horiz-adv-x="0" 
 />
    <glyph glyph-name="nonmarkingreturn" horiz-adv-x="682" 
 />
    <glyph glyph-name="space" unicode=" " horiz-adv-x="569" 
 />
    <glyph glyph-name="exclam" unicode="!" horiz-adv-x="679" 
d="M193 483v1057h294v-1057h-294zM168 147q0 71 51 121.5t121 50.5t121 -50.5t51 -121.5t-51 -121.5t-121 -50.5t-121 50.5t-51 121.5z" />
    <glyph glyph-name="quotedbl" unicode="&#x22;" horiz-adv-x="681" 
d="M453 971v569h213v-569h-213zM16 971v569h213v-569h-213z" />
    <glyph glyph-name="numbersign" unicode="#" 
d="M193 0l57 442h-182v176h206l35 279h-180v176h205l57 443h182l-57 -443h209l57 443h183l-58 -443h164v-176h-188l-35 -279h162v-176h-187l-59 -442h-180l57 442h-209l-59 -442h-180zM666 618l34 279h-208l-35 -279h209z" />
    <glyph glyph-name="dollar" unicode="$" 
d="M623 631v-424q76 7 122 64.5t46 144.5q0 63 -22.5 105t-54.5 63.5t-91 46.5zM512 209v444q-30 7 -60.5 16.5t-75 28.5t-83 42.5t-79 59.5t-69 78t-47 100t-18.5 124q0 192 110.5 303.5t321.5 134.5v158h111v-158q26 -2 43.5 -4.5t53 -9t61 -15.5t61.5 -26t61.5 -38.5
t54 -54t46.5 -72.5t30.5 -94t14.5 -118h-283q-7 62 -19 101t-32.5 60t-39 29.5t-52.5 16.5v-406q84 -23 147 -48.5t123 -65t97.5 -88.5t60 -119t22.5 -158q0 -76 -18.5 -140.5t-47 -108.5t-70 -79.5t-81 -57t-86.5 -37t-80 -22t-67 -10.5v-229h-111v229q-37 4 -61.5 7.5
t-75 16.5t-86 30.5t-80 52.5t-72.5 79t-48.5 112.5t-22.5 152.5h282q1 -21 2 -29.5t3.5 -30.5t7 -34t12.5 -31.5t20 -31.5t28 -25t39.5 -21.5t51.5 -13.5zM512 940v375q-67 -13 -108.5 -53t-41.5 -134q0 -39 11 -70t25 -48.5t38.5 -33.5t38 -21.5t37.5 -14.5z" />
    <glyph glyph-name="percent" unicode="%" horiz-adv-x="2048" 
d="M582 922q116 0 116 227t-116 227q-117 0 -117 -227t117 -227zM582 758q-153 0 -247.5 100t-94.5 291t94.5 291t247.5 100t247.5 -100t94.5 -291t-94.5 -291t-247.5 -100zM1466 -25q-153 0 -247.5 100.5t-94.5 291.5t94.5 291t247.5 100t247.5 -100t94.5 -291
t-94.5 -291.5t-247.5 -100.5zM1466 139q117 0 117 228q0 227 -117 227q-116 0 -116 -227q0 -228 116 -228zM481 -43l891 1602h168l-883 -1602h-176z" />
    <glyph glyph-name="ampersand" unicode="&#x26;" horiz-adv-x="1478" 
d="M868 307l-315 402q-94 -66 -127 -127t-33 -127q0 -102 74.5 -168t171.5 -66q143 0 229 86zM827 1210q0 55 -38.5 86t-86.5 31q-55 0 -93 -33t-38 -88q0 -31 20.5 -73.5t72.5 -120.5q95 66 129 106t34 92zM1106 786h270q-19 -176 -51 -276t-104 -211l239 -299h-338
l-86 111q-74 -58 -181 -99t-232 -41q-124 0 -224.5 37.5t-165.5 102.5t-100 151.5t-35 186.5q0 155 89 275.5t221 178.5q-57 100 -82 167t-25 128q0 140 108.5 241t276.5 101q86 0 155.5 -23t111.5 -57.5t70 -77.5t39 -81t11 -70q0 -137 -74.5 -239.5t-201.5 -162.5
l245 -307q26 38 45 117t19 147z" />
    <glyph glyph-name="quotesingle" unicode="'" horiz-adv-x="454" 
d="M121 971v569h213v-569h-213z" />
    <glyph glyph-name="parenleft" unicode="(" horiz-adv-x="681" 
d="M651 -264l-180 -144q-29 29 -64.5 70.5t-100.5 141.5t-114.5 208.5t-87.5 268t-38 323.5t38 323.5t87.5 268t114.5 208.5t100.5 141.5t64.5 70.5l180 -143q-73 -91 -125 -173t-101.5 -189t-75 -235t-25.5 -272t25.5 -271.5t75 -235t101.5 -189t125 -172.5z" />
    <glyph glyph-name="parenright" unicode=")" horiz-adv-x="681" 
d="M31 1473l180 143q29 -29 64.5 -70.5t100.5 -141.5t114.5 -208.5t87.5 -268t38 -323.5t-38 -323.5t-87.5 -268t-114.5 -208.5t-100.5 -141.5t-64.5 -70.5l-180 144q73 91 125 172.5t101.5 189t75 235t25.5 271.5t-25.5 272t-75 235t-101.5 189t-125 173z" />
    <glyph glyph-name="asterisk" unicode="*" 
d="M719 786l-156 236l-149 -238l-150 105l168 223l-262 76l49 166l260 -88l-8 274h184l-8 -278l260 100l62 -172l-273 -80l176 -215z" />
    <glyph glyph-name="plus" unicode="+" horiz-adv-x="1228" 
d="M508 625v411h213v-411h412v-213h-412v-412h-213v412h-412v213h412z" />
    <glyph glyph-name="comma" unicode="," horiz-adv-x="569" 
d="M8 -285l166 617l289 -94l-262 -586z" />
    <glyph glyph-name="hyphen" unicode="-" horiz-adv-x="681" 
d="M41 399v275h600v-275h-600z" />
    <glyph glyph-name="period" unicode="." horiz-adv-x="569" 
d="M113 147q0 71 50.5 121.5t121.5 50.5t121.5 -50.5t50.5 -121.5t-50.5 -121.5t-121.5 -50.5t-121.5 50.5t-50.5 121.5z" />
    <glyph glyph-name="slash" unicode="/" horiz-adv-x="909" 
d="M41 -29l602 1598h225l-602 -1598h-225z" />
    <glyph glyph-name="zero" unicode="0" 
d="M68 758q0 51 1 88t6 102.5t13.5 115t26.5 114t42.5 112.5t63 97.5t86.5 81t115 51.5t147 20t147 -20t115 -51.5t86.5 -81t63.5 -97.5t42.5 -112.5t26.5 -114.5t14 -115t6 -102.5t1 -87.5q0 -79 -5.5 -151.5t-20.5 -153t-39 -148t-63.5 -130t-90.5 -105.5t-123.5 -69
t-159.5 -26t-159.5 26t-123.5 69t-90.5 105.5t-63 130t-38.5 148t-20.5 153t-5.5 151.5zM764 758q0 66 -1 113.5t-5.5 105.5t-12.5 98t-22.5 81t-35 66t-50.5 40.5t-68 15.5t-68 -15.5t-50 -40t-34.5 -66t-22.5 -81.5t-12.5 -98.5t-5.5 -105.5t-1 -113q0 -123 8.5 -212
t29.5 -161.5t60 -109.5t96 -37t96 37t60 109t30 162t9 212z" />
    <glyph glyph-name="one" unicode="1" 
d="M508 0v1157q-175 -122 -340 -192v276q58 32 91.5 51.5t98.5 61.5t120 89t97 97h228v-1540h-295z" />
    <glyph glyph-name="two" unicode="2" 
d="M63 0v231l555 594q77 81 105.5 143t28.5 126q0 73 -48.5 128.5t-134.5 55.5q-96 0 -148 -68t-52 -206h-283v32q0 107 30.5 194.5t79.5 144t113 94.5t129 54.5t131 16.5q215 0 352.5 -124.5t137.5 -313.5q0 -142 -71.5 -260.5t-266.5 -315.5l-262 -264h616v-262h-1012z
" />
    <glyph glyph-name="three" unicode="3" 
d="M356 659v259l308 335h-551v263h899v-250l-340 -344q186 0 297.5 -123.5t111.5 -313.5q0 -225 -147.5 -367.5t-378.5 -142.5q-62 0 -123 11.5t-127 43t-117 79.5t-87.5 128.5t-43.5 182.5l295 18q2 -50 20 -88.5t41 -59t53 -33t50.5 -16t38.5 -3.5q93 0 156 71t63 166
q0 102 -68.5 168t-160.5 66q-81 0 -189 -50z" />
    <glyph glyph-name="four" unicode="4" 
d="M641 602v602h-4l-363 -602h367zM43 377v256l547 883h334v-914h172v-225h-172v-377h-283v377h-598z" />
    <glyph glyph-name="five" unicode="5" 
d="M106 651l29 865h864v-263h-610l-20 -346q107 84 262 84q85 0 162.5 -29.5t142 -87t103 -154.5t38.5 -220q0 -106 -34.5 -200t-98.5 -167t-163 -115.5t-220 -42.5q-57 0 -112.5 8t-121.5 33.5t-117.5 66t-93 112t-55.5 165.5l299 27q13 -34 23 -53.5t31.5 -45t58 -38
t88.5 -12.5q37 0 70.5 12t66.5 39t52.5 81t19.5 128q0 98 -60.5 164.5t-144.5 66.5q-64 0 -111 -20t-83 -72z" />
    <glyph glyph-name="six" unicode="6" 
d="M1047 1157l-295 -18q-1 21 -8 42.5t-23.5 44.5t-49 37.5t-77.5 14.5q-35 0 -64 -9t-51 -21.5t-39.5 -37.5t-29.5 -45.5t-22 -58.5t-15 -62.5t-10 -71.5t-7 -72t-6 -77h4q25 32 44 51.5t52 43t78 34.5t103 11q86 0 164.5 -29t143.5 -85t103.5 -150t38.5 -212
q0 -237 -139.5 -374.5t-357.5 -137.5q-85 0 -156 21t-122 54t-91.5 84t-66 99t-44 113t-27.5 112.5t-14 110t-5.5 93t-0.5 73.5q0 81 5.5 154.5t21 157t40.5 152t67.5 133.5t98 109.5t136 71.5t178.5 27q91 0 166.5 -24.5t124.5 -63t83.5 -90t50 -102.5t18.5 -103zM786 469
q0 34 -6 66.5t-20.5 65t-37 57t-58.5 40t-82 15.5q-56 0 -98 -22.5t-64 -60t-32.5 -78t-10.5 -83.5t10.5 -83.5t32.5 -78t64 -60t98 -22.5q46 0 82 15.5t58.5 40t37 57t20.5 65t6 66.5z" />
    <glyph glyph-name="seven" unicode="7" 
d="M68 1253v263h1003v-261q-53 -82 -113 -196.5t-131 -277t-133 -369t-96 -412.5h-324q32 164 75 316t82 259.5t91 221t86 177.5t83.5 153.5t68.5 125.5h-692z" />
    <glyph glyph-name="eight" unicode="8" 
d="M776 459q0 68 -21 117.5t-54.5 74t-66 35t-65.5 10.5t-65.5 -10.5t-66 -35t-54.5 -74t-21 -117.5q0 -102 56 -168t151 -66t151 66t56 168zM569 922q80 0 127 51t47 139t-47 139.5t-127 51.5t-127 -51.5t-47 -139.5t47 -139t127 -51zM68 459q0 275 241 366
q-89 36 -142.5 112t-53.5 187q0 184 120.5 300t335.5 116t336 -116t121 -300q0 -111 -54 -187t-143 -112q242 -91 242 -366q0 -123 -44 -219t-117 -152t-160 -84.5t-181 -28.5q-75 0 -145.5 17t-135.5 55t-113.5 93.5t-77.5 137.5t-29 181z" />
    <glyph glyph-name="nine" unicode="9" 
d="M92 358l295 19q1 -21 8 -42.5t23.5 -44.5t49 -37.5t77.5 -14.5q51 0 90 17t63.5 49.5t41 72t25.5 93.5t14 104t9 113v5h-4q-25 -32 -44 -51.5t-52 -42.5t-77.5 -34t-102.5 -11q-86 0 -165 29t-144 85t-103.5 149.5t-38.5 211.5q0 237 140 374.5t358 137.5q85 0 156 -21
t121.5 -53.5t91.5 -84t66.5 -99.5t43.5 -113.5t27 -112.5t14 -110t5.5 -93t0.5 -73q0 -805 -546 -805q-91 0 -166.5 24.5t-124.5 63t-83.5 90t-50 102.5t-18.5 103zM762 1047q0 43 -10.5 83t-32.5 77.5t-64 60t-98 22.5t-98 -22.5t-64 -60t-32.5 -77.5t-10.5 -83t10.5 -83.5
t32.5 -78t64 -60t98 -22.5t98 22.5t64 60t32.5 78t10.5 83.5z" />
    <glyph glyph-name="colon" unicode=":" horiz-adv-x="569" 
d="M285 694q-71 0 -121.5 51t-50.5 121t50.5 121t121.5 51t121.5 -51t50.5 -121t-50.5 -121t-121.5 -51zM285 -25q-71 0 -121.5 50.5t-50.5 121.5t50.5 121.5t121.5 50.5t121.5 -50.5t50.5 -121.5t-50.5 -121.5t-121.5 -50.5z" />
    <glyph glyph-name="semicolon" unicode=";" horiz-adv-x="569" 
d="M174 332l289 -94l-262 -586l-193 63zM113 866q0 70 50.5 121t121.5 51t121.5 -51t50.5 -121t-50.5 -121t-121.5 -51t-121.5 51t-50.5 121z" />
    <glyph glyph-name="less" unicode="&#x3c;" horiz-adv-x="1228" 
d="M1133 193v-209l-1037 446v176l1037 447v-209l-762 -326z" />
    <glyph glyph-name="equal" unicode="=" horiz-adv-x="1228" 
d="M1133 848v-213h-1037v213h1037zM1133 401v-213h-1037v213h1037z" />
    <glyph glyph-name="greater" unicode="&#x3e;" horiz-adv-x="1228" 
d="M96 193l762 325l-762 326v209l1037 -447v-176l-1037 -446v209z" />
    <glyph glyph-name="question" unicode="?" 
d="M666 483h-283v64q0 67 19.5 124t50.5 98t68.5 78t75 70.5t68.5 68t50.5 78t19.5 93.5q0 79 -48.5 120.5t-119.5 41.5q-87 0 -131.5 -51t-44.5 -140v-24h-282q0 216 125 340.5t341 124.5q89 0 169 -25t145 -73.5t103 -129t38 -182.5q0 -71 -20 -132.5t-52 -105t-71 -82
t-78 -73t-71 -69t-52 -78.5t-20 -93v-43zM537 -25q-71 0 -121.5 50.5t-50.5 121.5t50.5 121.5t121.5 50.5t121.5 -50.5t50.5 -121.5t-50.5 -121.5t-121.5 -50.5z" />
    <glyph glyph-name="at" unicode="@" horiz-adv-x="1638" 
d="M1020 805q0 78 -48.5 128t-123.5 50q-100 0 -167 -90t-67 -203q0 -74 44 -125t116 -51q98 0 172 92t74 199zM1083 1053l27 112h184l-120 -536q-15 -67 -15 -88q0 -45 33 -45q93 0 168.5 103.5t75.5 264.5q0 167 -78 288.5t-209 181t-299 59.5q-176 0 -313 -82.5
t-210 -225t-73 -319.5q0 -277 175.5 -448t453.5 -171q126 0 240 44t202 120h188q-111 -162 -278.5 -251t-366.5 -89q-244 0 -433 103.5t-291.5 285t-102.5 410.5q0 166 65 315t175 255t260 167.5t315 61.5q143 0 277.5 -47.5t237.5 -131t165.5 -207.5t62.5 -268
q0 -93 -22 -176t-59 -144t-85 -111.5t-98.5 -83.5t-101.5 -56t-92.5 -33t-73.5 -10q-52 0 -83.5 26.5t-41.5 67.5h-4q-30 -41 -82.5 -67.5t-116.5 -26.5q-161 0 -261.5 104t-100.5 267q0 78 19 154t57 143t91 117.5t126 80t157 29.5q169 0 256 -143z" />
    <glyph glyph-name="A" unicode="A" horiz-adv-x="1478" 
d="M934 571l-197 598h-4l-194 -598h395zM1120 0l-104 322h-563l-101 -322h-332l562 1540h323l553 -1540h-338z" />
    <glyph glyph-name="B" unicode="B" horiz-adv-x="1366" 
d="M170 0v1540h547q241 0 369 -113t128 -305q0 -222 -206 -317v-4q109 -26 182.5 -119t73.5 -231q0 -209 -147 -330t-388 -121h-559zM477 262h203q138 0 201 53t63 142q0 84 -58 142t-181 58h-228v-395zM477 907h187q111 0 177 49.5t66 139.5q0 91 -59.5 136.5t-157.5 45.5
h-213v-371z" />
    <glyph glyph-name="C" unicode="C" horiz-adv-x="1593" 
d="M1489 1014l-309 -21q-33 146 -127.5 223.5t-229.5 77.5q-121 0 -213.5 -72t-140 -190.5t-47.5 -263.5q0 -243 110.5 -382.5t298.5 -139.5q114 0 210 72.5t135 199.5l315 -22q-78 -254 -255 -389.5t-417 -135.5q-157 0 -288.5 53t-227 152.5t-148.5 251.5t-53 342
q0 230 90 412t254 284.5t373 102.5q124 0 230.5 -32t195.5 -97t152 -173t92 -253z" />
    <glyph glyph-name="D" unicode="D" horiz-adv-x="1593" 
d="M170 0v1540h580q352 0 546.5 -200t194.5 -570q0 -144 -38.5 -268.5t-106.5 -215.5t-160 -156t-201 -97.5t-227 -32.5h-588zM477 262h260q91 0 165.5 30t123.5 80t82.5 117t48 137.5t14.5 145.5q0 81 -14 152t-47.5 137t-84.5 113.5t-131 75.5t-181 28h-236v-1016z" />
    <glyph glyph-name="E" unicode="E" horiz-adv-x="1251" 
d="M170 0v1540h983v-274h-676v-351h658v-274h-658v-367h676v-274h-983z" />
    <glyph glyph-name="F" unicode="F" 
d="M170 0v1540h903v-274h-596v-351h582v-274h-582v-641h-307z" />
    <glyph glyph-name="G" unicode="G" horiz-adv-x="1705" 
d="M893 567v262h711q-4 -210 -62.5 -374.5t-159.5 -269.5t-235.5 -159.5t-294.5 -54.5q-134 0 -253 43t-209 119t-155.5 176.5t-99 218.5t-33.5 242t33.5 242t99 218.5t155.5 176.5t209 119t253 43q105 0 195.5 -18.5t155 -47t120 -72t90.5 -83.5t65.5 -92t45.5 -87.5
t30 -78.5l-321 -21q-92 225 -381 225q-186 0 -308 -142t-122 -382q0 -139 54 -257.5t158 -192.5t238 -74q89 0 161 29t117.5 77.5t73 102.5t38.5 112h-369z" />
    <glyph glyph-name="H" unicode="H" horiz-adv-x="1593" 
d="M1116 0v641h-639v-641h-307v1540h307v-625h639v625h307v-1540h-307z" />
    <glyph glyph-name="I" unicode="I" horiz-adv-x="679" 
d="M186 0v1540h308v-1540h-308z" />
    <glyph glyph-name="J" unicode="J" horiz-adv-x="909" 
d="M49 1266v274h705v-1016q0 -102 -17.5 -183t-46.5 -136.5t-75.5 -96t-94.5 -63t-113.5 -36t-122.5 -17.5t-132 -4h-99v262h158q119 0 177 45t58 160v811h-397z" />
    <glyph glyph-name="K" unicode="K" horiz-adv-x="1366" 
d="M481 817l494 723h366l-530 -739l541 -801h-383l-488 756h-4v-756h-307v1540h307v-723h4z" />
    <glyph glyph-name="L" unicode="L" 
d="M170 0v1540h307v-1253h592v-287h-899z" />
    <glyph glyph-name="M" unicode="M" horiz-adv-x="1933" 
d="M1468 0v1028h-4l-411 -1028h-172l-412 1008h-4v-1008h-295v1540h350l447 -1048l446 1048h350v-1540h-295z" />
    <glyph glyph-name="N" unicode="N" horiz-adv-x="1593" 
d="M1106 0l-637 1051h-4v-1051h-295v1540h330l624 -1034h4v1034h295v-1540h-317z" />
    <glyph glyph-name="O" unicode="O" horiz-adv-x="1703" 
d="M1282 770q0 105 -27.5 198.5t-79.5 166.5t-135.5 116t-187.5 43t-187.5 -43t-135.5 -116t-79.5 -166.5t-27.5 -198.5t27.5 -198.5t79.5 -166.5t135.5 -116t187.5 -43t187.5 43t135.5 116t79.5 166.5t27.5 198.5zM102 770q0 125 31.5 242t95 218t152 177t210 119t261.5 43
t261.5 -43t210 -119t152 -177t95 -218t31.5 -242t-31.5 -242t-95 -218t-152 -177t-210 -119t-261.5 -43t-261.5 43t-210 119t-152 177t-95 218t-31.5 242z" />
    <glyph glyph-name="P" unicode="P" horiz-adv-x="1251" 
d="M477 825h172q72 0 124 20.5t78 55t37 71.5t11 79q0 41 -14.5 79.5t-43 72.5t-78 54.5t-112.5 20.5h-174v-453zM170 0v1540h502q77 0 149 -14t143.5 -49.5t124 -89.5t85 -140.5t32.5 -195.5q0 -103 -29.5 -186.5t-79 -138.5t-116 -92.5t-138 -54t-147.5 -16.5h-219v-563
h-307z" />
    <glyph glyph-name="Q" unicode="Q" horiz-adv-x="1705" 
d="M1452 -88l-190 170q-178 -111 -410 -111q-140 0 -261.5 43t-210 119t-152 177t-95 218t-31.5 242t31.5 242t95 218t152 177t210 119t261.5 43t261.5 -43t210 -119t152 -177t95 -218t31.5 -242q0 -137 -41.5 -270t-116.5 -236l186 -160zM899 403l168 185l141 -121
q74 124 74 303q0 105 -27.5 198.5t-79.5 166.5t-135.5 116t-187.5 43t-187.5 -43t-135.5 -116t-79.5 -166.5t-27.5 -198.5t27.5 -198.5t79.5 -166.5t135.5 -116t187.5 -43q46 0 98 11t84 28z" />
    <glyph glyph-name="R" unicode="R" horiz-adv-x="1366" 
d="M958 0l-301 608h-180v-608h-307v1540h575q158 0 274.5 -62t175 -165t58.5 -232q0 -63 -17 -128t-50.5 -126t-90.5 -109t-128 -69l358 -649h-367zM477 858h205q75 0 129.5 18.5t82.5 50.5t40 67t12 75q0 45 -12 80t-41.5 65.5t-85 47t-135.5 16.5h-195v-420z" />
    <glyph glyph-name="S" unicode="S" horiz-adv-x="1366" 
d="M1223 1141l-308 -6q0 77 -65 124.5t-160 47.5q-114 0 -180 -46.5t-66 -123.5q0 -124 179 -183l282 -90q167 -54 258.5 -154t91.5 -268q0 -60 -17 -121.5t-58.5 -125.5t-103.5 -113t-161 -80t-221 -31q-110 0 -200.5 20t-149.5 51.5t-103.5 76.5t-68.5 88t-38.5 93
t-18.5 85t-4 70l307 6q0 -116 78 -172t200 -56q57 0 112 17t97.5 57t42.5 96q0 64 -37.5 102.5t-148.5 78.5l-336 121q-129 46 -209 151t-80 234q0 62 17 125.5t57 128t99.5 114t153 80.5t208.5 31q98 0 180 -18t137.5 -47t98.5 -68t68 -78.5t40.5 -82.5t21 -74.5t5.5 -59.5
z" />
    <glyph glyph-name="T" unicode="T" horiz-adv-x="1249" 
d="M471 0v1266h-405v274h1118v-274h-406v-1266h-307z" />
    <glyph glyph-name="U" unicode="U" horiz-adv-x="1593" 
d="M1130 637v903h308v-901q0 -140 -34.5 -253.5t-94 -190t-142 -127.5t-174.5 -74t-196 -23t-196 23t-174.5 74t-142 127.5t-94 190t-34.5 253.5v901h307v-903q0 -192 85 -291.5t249 -99.5t248.5 99.5t84.5 291.5z" />
    <glyph glyph-name="V" unicode="V" horiz-adv-x="1366" 
d="M692 408l322 1132h332l-500 -1540h-324l-502 1540h338l330 -1132h4z" />
    <glyph glyph-name="W" unicode="W" horiz-adv-x="2048" 
d="M1280 0l-250 1073h-4l-254 -1073h-326l-397 1540h328l239 -1132h5l241 1132h332l252 -1132h4l223 1132h326l-393 -1540h-326z" />
    <glyph glyph-name="X" unicode="X" horiz-adv-x="1366" 
d="M971 0l-291 518l-295 -518h-369l486 778l-455 762h367l280 -520l279 520h360l-461 -762l478 -778h-379z" />
    <glyph glyph-name="Y" unicode="Y" horiz-adv-x="1251" 
d="M631 948l262 592h338l-449 -924v-616h-307v616l-455 924h359z" />
    <glyph glyph-name="Z" unicode="Z" horiz-adv-x="1251" 
d="M74 0v242l714 1024h-665v274h1055v-242l-717 -1024h717v-274h-1104z" />
    <glyph glyph-name="bracketleft" unicode="[" horiz-adv-x="681" 
d="M152 -393v1995h497v-201h-239v-1594h239v-200h-497z" />
    <glyph glyph-name="backslash" unicode="\" horiz-adv-x="909" 
d="M643 -29l-602 1598h225l602 -1598h-225z" />
    <glyph glyph-name="bracketright" unicode="]" horiz-adv-x="681" 
d="M530 1602v-1995h-497v200h239v1594h-239v201h497z" />
    <glyph glyph-name="asciicircum" unicode="^" horiz-adv-x="1228" 
d="M135 727l383 789h193l383 -789h-213l-267 573l-266 -573h-213z" />
    <glyph glyph-name="underscore" unicode="_" horiz-adv-x="1024" 
d="M0 -256v102h1024v-102h-1024z" />
    <glyph glyph-name="grave" unicode="`" horiz-adv-x="569" 
d="M336 1233l-287 287h277l180 -287h-170z" />
    <glyph glyph-name="a" unicode="a" horiz-adv-x="1251" 
d="M819 362v97l-246 -23q-99 -9 -139.5 -39.5t-40.5 -89.5q0 -123 185 -123q37 0 77 10.5t77.5 30.5t62 56t24.5 81zM831 0v137h-4q-126 -166 -360 -166q-52 0 -102 10t-99 34.5t-86 60.5t-59.5 92t-22.5 125q0 33 5 61.5t19.5 66t46 67.5t78.5 58t124 46t176 24l272 17v49
q0 92 -54 139t-153 47q-90 0 -141.5 -41.5t-56.5 -113.5h-283q3 52 19 101t53 98.5t91 86t139.5 59.5t191.5 23q80 0 149.5 -12t130.5 -38.5t104 -65.5t68 -96t25 -128v-610q0 -63 14 -131h-285z" />
    <glyph glyph-name="b" unicode="b" horiz-adv-x="1366" 
d="M973 520q0 128 -68.5 219.5t-189.5 91.5q-88 0 -151 -44.5t-91.5 -112.5t-28.5 -150q0 -137 70.5 -226t192.5 -89q125 0 195.5 90t70.5 221zM160 0v1540h295v-631h4q71 94 150 133t184 39q147 0 259.5 -77.5t170 -202.5t57.5 -273q0 -147 -61 -273.5t-175 -205
t-256 -78.5q-224 0 -342 176h-4v-147h-282z" />
    <glyph glyph-name="c" unicode="c" 
d="M1075 662l-307 -13q-4 100 -52 141t-118 41q-205 0 -205 -327q0 -56 10.5 -105.5t33 -93.5t63.5 -70t96 -26q81 0 127 46t59 126l289 -10q-36 -185 -150.5 -292.5t-316.5 -107.5q-252 0 -385 147.5t-133 397.5q0 256 137.5 410.5t374.5 154.5q114 0 204 -34t147 -92.5
t89 -132.5t37 -160z" />
    <glyph glyph-name="d" unicode="d" horiz-adv-x="1366" 
d="M922 524q0 82 -28.5 150t-91.5 112.5t-151 44.5q-121 0 -189.5 -91.5t-68.5 -219.5q0 -131 70.5 -221t195.5 -90q122 0 192.5 89t70.5 226zM924 0v147h-4q-118 -176 -342 -176q-142 0 -256 78.5t-175 205t-61 273.5q0 148 57.5 273t170 202.5t259.5 77.5q105 0 184 -39
t150 -133h4v631h295v-1540h-282z" />
    <glyph glyph-name="e" unicode="e" horiz-adv-x="1249" 
d="M1163 442h-770q10 -102 72.5 -173.5t173.5 -71.5q69 0 125 32.5t86 92.5l287 -23q-53 -159 -188 -243.5t-324 -84.5q-240 0 -389.5 151.5t-149.5 401.5q0 253 149.5 405t389.5 152t389 -152t149 -405v-82zM393 631h475q-8 86 -69.5 155.5t-159.5 69.5q-109 0 -171 -64
t-75 -161z" />
    <glyph glyph-name="f" unicode="f" horiz-adv-x="681" 
d="M172 0v827h-149v226h149v137q0 87 18 150.5t50 104t84.5 64.5t113 33.5t142.5 9.5h57v-249h-82q-40 0 -64 -21.5t-24 -64.5v-164h170v-226h-170v-827h-295z" />
    <glyph glyph-name="g" unicode="g" horiz-adv-x="1366" 
d="M924 887v166h282v-1037q0 -234 -154 -364.5t-411 -130.5q-223 0 -352.5 94t-159.5 264h303q21 -66 69.5 -99.5t147.5 -33.5q44 0 84 10.5t81.5 36.5t68 79t30.5 128l9 180l-4 4q-91 -194 -340 -194q-99 0 -188 38.5t-157 107.5t-107.5 173.5t-39.5 229.5q0 147 63 270.5
t179 197.5t262 74q117 0 203.5 -53t126.5 -141h4zM920 528q0 145 -70.5 224t-200.5 79q-116 0 -186 -83.5t-70 -208.5q0 -73 19 -130t48 -90t66 -55t69.5 -29.5t63.5 -7.5q28 0 57.5 5.5t67.5 25t67 50.5t49 88t20 132z" />
    <glyph glyph-name="h" unicode="h" horiz-adv-x="1249" 
d="M813 0v641q0 106 -53 154.5t-131 48.5q-88 0 -140.5 -68.5t-52.5 -177.5v-598h-295v1540h295v-625h4q107 166 299 166q182 0 275.5 -102t93.5 -264v-715h-295z" />
    <glyph glyph-name="i" unicode="i" horiz-adv-x="569" 
d="M137 0v1053h295v-1053h-295zM113 1378q0 67 50.5 120.5t121.5 53.5q67 0 119.5 -50.5t52.5 -119.5q0 -68 -51 -121t-121 -53q-71 0 -121.5 53t-50.5 117z" />
    <glyph glyph-name="j" unicode="j" horiz-adv-x="569" 
d="M-35 -475v246h78q94 0 94 135v1147h295v-1159q0 -93 -25 -163t-62 -109t-89.5 -62.5t-98 -31t-96.5 -7.5q-15 0 -47 2t-49 2zM113 1378q0 67 50.5 120.5t121.5 53.5q67 0 119.5 -50.5t52.5 -119.5q0 -68 -51 -121t-121 -53q-71 0 -121.5 53t-50.5 117z" />
    <glyph glyph-name="k" unicode="k" 
d="M752 0l-312 516h-4v-516h-295v1540h295v-948h4l318 461h342l-352 -475l366 -578h-362z" />
    <glyph glyph-name="l" unicode="l" horiz-adv-x="569" 
d="M137 0v1540h295v-1540h-295z" />
    <glyph glyph-name="m" unicode="m" horiz-adv-x="1818" 
d="M1382 0v678q0 69 -39 117.5t-118 48.5t-123.5 -59t-44.5 -130v-655h-295v649q0 195 -160 195q-84 0 -125 -59.5t-41 -145.5v-639h-295v1053h283v-138h4q66 97 140.5 131.5t176.5 34.5q32 0 64.5 -5.5t74.5 -21t80 -50.5t64 -86q122 163 309 163q145 0 242.5 -84
t97.5 -241v-756h-295z" />
    <glyph glyph-name="n" unicode="n" horiz-adv-x="1249" 
d="M813 0v641q0 106 -53 154.5t-131 48.5q-88 0 -140.5 -68.5t-52.5 -177.5v-598h-295v1053h283v-138h4q63 91 139 128.5t172 37.5q182 0 275.5 -102t93.5 -264v-715h-295z" />
    <glyph glyph-name="o" unicode="o" horiz-adv-x="1249" 
d="M1163 526q0 -252 -149 -403.5t-389 -151.5t-389.5 152t-149.5 403t149.5 403t389.5 152t389 -151.5t149 -403.5zM856 526q0 143 -59 230.5t-172 87.5t-172.5 -88t-59.5 -230t59.5 -229.5t172.5 -87.5t172 87t59 230z" />
    <glyph glyph-name="p" unicode="p" horiz-adv-x="1366" 
d="M973 532q0 132 -70.5 222t-195.5 90q-122 0 -192.5 -89.5t-70.5 -226.5q0 -82 28.5 -150t91.5 -112.5t151 -44.5q121 0 189.5 91.5t68.5 219.5zM160 -459v1512h282v-148h4q118 176 342 176q142 0 256 -78.5t175 -205t61 -273.5q0 -148 -57.5 -273t-170 -202.5
t-259.5 -77.5q-105 0 -184 39t-150 133h-4v-602h-295z" />
    <glyph glyph-name="q" unicode="q" horiz-adv-x="1366" 
d="M922 528q0 137 -70.5 226.5t-192.5 89.5q-125 0 -195.5 -90t-70.5 -222q0 -128 68.5 -219.5t189.5 -91.5q88 0 151 44.5t91.5 112.5t28.5 150zM911 -459v602h-4q-71 -94 -150 -133t-184 -39q-147 0 -259.5 77.5t-170 202.5t-57.5 273q0 147 61 273.5t175 205t256 78.5
q224 0 342 -176h4v148h282v-1512h-295z" />
    <glyph glyph-name="r" unicode="r" horiz-adv-x="796" 
d="M141 0v1053h283v-203h4q41 112 119.5 171.5t183.5 59.5h41v-286h-65q-119 0 -195 -72.5t-76 -206.5v-516h-295z" />
    <glyph glyph-name="s" unicode="s" 
d="M1018 733l-295 -6q-3 67 -49.5 104t-130.5 37q-63 0 -109.5 -24.5t-46.5 -69.5q0 -33 28 -56t74 -34t105 -23t120.5 -22.5t120.5 -34.5t105 -56.5t74 -90t28 -133.5q0 -21 -3.5 -45.5t-16 -60t-32.5 -68t-57 -66t-85 -58t-122 -40t-163 -15.5q-52 0 -103.5 7t-116.5 30
t-115 60t-87.5 104t-44.5 156h295q3 -71 56 -107.5t126 -36.5q70 0 122.5 25.5t52.5 83.5q0 35 -35 57t-90.5 34t-123 23t-134.5 32.5t-122.5 55t-90.5 97t-35 151.5q0 63 25 121.5t75.5 108t137 79t198.5 29.5q206 0 329.5 -89.5t135.5 -258.5z" />
    <glyph glyph-name="t" unicode="t" horiz-adv-x="681" 
d="M37 827v226h135v303h295v-303h156v-226h-156v-532q0 -37 20.5 -53.5t75.5 -16.5q33 0 60 6v-231q-94 -12 -142 -12q-78 0 -131 11t-95 40.5t-62.5 84.5t-20.5 138v565h-135z" />
    <glyph glyph-name="u" unicode="u" horiz-adv-x="1249" 
d="M825 0v137h-4q-63 -91 -139 -128.5t-172 -37.5q-123 0 -208 50.5t-123 131t-38 185.5v715h295v-641q0 -106 53.5 -154.5t131.5 -48.5q88 0 140 68.5t52 177.5v598h295v-1053h-283z" />
    <glyph glyph-name="v" unicode="v" 
d="M416 0l-396 1053h324l223 -697h4l224 697h323l-395 -1053h-307z" />
    <glyph glyph-name="w" unicode="w" horiz-adv-x="1703" 
d="M1038 0l-184 698h-4l-184 -698h-310l-336 1053h314l174 -717h4l186 717h308l186 -717h4l174 717h313l-335 -1053h-310z" />
    <glyph glyph-name="x" unicode="x" 
d="M745 0l-186 301l-178 -301h-361l369 526l-360 527h370l168 -291l178 291h363l-369 -516l379 -537h-373z" />
    <glyph glyph-name="y" unicode="y" 
d="M240 -459l176 459l-396 1053h324l223 -697h4l224 697h323l-569 -1512h-309z" />
    <glyph glyph-name="z" unicode="z" horiz-adv-x="1024" 
d="M68 0v213l514 602h-486v238h860v-213l-507 -602h507v-238h-888z" />
    <glyph glyph-name="braceleft" unicode="{" horiz-adv-x="681" 
d="M205 862v463q0 66 26.5 121t68 88t88 50.5t91.5 17.5h183v-189h-89q-67 0 -88.5 -40.5t-21.5 -121.5v-417q0 -61 -22.5 -106.5t-59.5 -69.5t-72.5 -36.5t-72.5 -15.5v-4q29 -3 57 -10t60 -24t55.5 -41t39 -63.5t15.5 -88.5v-418q0 -81 21.5 -121.5t88.5 -40.5h89v-188
h-183q-45 0 -91.5 17.5t-88 50t-68 87.5t-26.5 121v463q0 84 -52 124t-114 40v188q62 0 114 40t52 124z" />
    <glyph glyph-name="bar" unicode="|" horiz-adv-x="454" 
d="M121 -29v1598h213v-1598h-213z" />
    <glyph glyph-name="braceright" unicode="}" horiz-adv-x="681" 
d="M477 346v-463q0 -66 -26.5 -121t-68 -87.5t-88 -50t-91.5 -17.5h-183v188h89q67 0 88.5 40.5t21.5 121.5v418q0 49 15.5 88.5t39 63.5t55.5 41t60 24t57 10v4q-37 3 -72.5 15.5t-72.5 36.5t-59.5 69.5t-22.5 106.5v417q0 81 -21.5 121.5t-88.5 40.5h-89v189h183
q45 0 91.5 -17.5t88 -50.5t68 -88t26.5 -121v-463q0 -84 52 -124t114 -40v-188q-62 0 -114 -40t-52 -124z" />
    <glyph glyph-name="asciitilde" unicode="~" horiz-adv-x="1228" 
d="M1014 696l73 -170q-23 -32 -38.5 -52t-41 -46.5t-49.5 -41t-57 -25.5t-70 -11q-23 0 -44.5 3t-36.5 6.5t-36 12.5t-30.5 13.5t-33.5 17.5t-32 17q-3 2 -20 10.5t-20.5 10.5t-19 9.5t-21 9.5t-20 7.5t-23 7.5t-23 5.5t-26.5 5t-27 2.5t-31 1q-106 0 -172 -149l-74 170
q94 180 256 180q23 0 46 -3.5t38 -6.5t40 -12.5t33.5 -13.5t38 -18.5t36.5 -17.5q18 -8 52.5 -25t51.5 -24.5t45 -14.5t56 -7q29 0 55 11.5t49 36t38.5 45.5t37.5 56z" />
    <glyph glyph-name="uni00A0" unicode="&#xa0;" horiz-adv-x="569" 
 />
    <glyph glyph-name="exclamdown" unicode="&#xa1;" horiz-adv-x="679" 
d="M193 -430v1057h294v-1057h-294zM168 963q0 71 51 121.5t121 50.5t121 -50.5t51 -121.5t-51 -121.5t-121 -50.5t-121 50.5t-51 121.5z" />
    <glyph glyph-name="cent" unicode="&#xa2;" 
d="M530 217v614q-147 -44 -147 -327q0 -48 7.5 -91.5t24 -83.5t46 -69.5t69.5 -42.5zM530 -225v200q-222 20 -338 164.5t-116 376.5q0 240 121 393t333 172v195h111v-195q101 -7 181 -44t130.5 -95t78 -129t32.5 -151l-307 -13q-3 79 -34.5 124t-80.5 58v-614
q109 23 129 164l289 -10q-33 -175 -135.5 -280.5t-282.5 -115.5v-200h-111z" />
    <glyph glyph-name="sterling" unicode="&#xa3;" 
d="M63 692v127h146q-22 28 -56 119.5t-34 183.5q0 61 16 119.5t51.5 113t87 95.5t127.5 65.5t168 24.5q230 0 344.5 -109t145.5 -321h-301q-2 80 -45.5 130t-126.5 50q-52 0 -88.5 -17t-53.5 -45.5t-23.5 -55.5t-6.5 -58q0 -39 16.5 -91.5t32 -86.5t47.5 -97q7 -13 10 -20
h311v-127h-272q12 -55 12 -112q0 -85 -39 -160.5t-145 -169.5l4 -4q93 22 125 22q38 0 144.5 -21.5t125.5 -21.5q61 0 110.5 15.5t111.5 66.5l69 -248q-150 -84 -268 -84q-70 0 -201.5 40t-193.5 40q-129 0 -248 -80l-105 222q53 28 90.5 54.5t74.5 64t56 86t19 106.5
q0 72 -35 184h-203z" />
    <glyph glyph-name="currency" unicode="&#xa4;" 
d="M43 346l117 119q-49 49 -74 127.5t-25 165.5t25 165.5t74 127.5l-117 118l117 115l116 -113q51 43 131 69t162 26t162 -26t131 -69l117 113l117 -115l-117 -118q49 -49 73.5 -127t24.5 -166t-24.5 -166t-73.5 -127l117 -119l-117 -115l-117 113q-51 -43 -131 -68.5
t-162 -25.5t-162 25.5t-131 68.5l-116 -113zM274 758q0 -123 86 -209t209 -86t209 86t86 209t-86 209t-209 86t-209 -86t-86 -209z" />
    <glyph glyph-name="yen" unicode="&#xa5;" 
d="M147 317v177h293v116l-10 25h-283v176h203l-319 705h313l225 -582l244 582h295l-320 -705h203v-176h-282l-11 -25v-116h293v-177h-293v-317h-258v317h-293z" />
    <glyph glyph-name="brokenbar" unicode="&#xa6;" horiz-adv-x="454" 
d="M121 -29v598h213v-598h-213zM121 971v598h213v-598h-213z" />
    <glyph glyph-name="section" unicode="&#xa7;" 
d="M133 -74h283q9 -69 43 -106q38 -41 100 -41q67 0 108.5 34t41.5 105q0 47 -21.5 82.5t-57.5 58.5t-83 41.5t-99 36t-103.5 38t-98.5 52t-83 73t-57.5 106.5t-21.5 147q0 123 59 214.5t166 135.5q-82 49 -118.5 116t-36.5 167q0 40 9 84t37.5 99t73 98t123.5 72.5
t181 29.5q108 0 189 -31t129 -86.5t73 -123.5t30 -150h-282q-3 76 -43 116q-37 37 -105 37q-56 0 -94.5 -35t-38.5 -92q0 -42 21 -74t57 -53t82.5 -39.5t98 -37t102.5 -40t97.5 -54t82.5 -74t57 -105.5t21 -143q0 -241 -219 -348q155 -83 155 -297q0 -80 -26.5 -150
t-78.5 -126t-137.5 -89t-193.5 -33q-386 0 -422 385zM760 557q0 209 -199 209q-75 0 -128.5 -52t-53.5 -147q0 -200 194 -200q90 0 138.5 55.5t48.5 134.5z" />
    <glyph glyph-name="dieresis" unicode="&#xa8;" horiz-adv-x="569" 
d="M66 1540q63 0 108 -45.5t45 -108.5t-45 -108t-108 -45t-108.5 45t-45.5 108t45.5 108.5t108.5 45.5zM504 1540q63 0 108 -45.5t45 -108.5t-45 -108t-108 -45t-108.5 45t-45.5 108t45.5 108.5t108.5 45.5z" />
    <glyph glyph-name="copyright" unicode="&#xa9;" horiz-adv-x="1638" 
d="M1405 770q0 134 -47 251t-127 198t-187 127.5t-225 46.5q-120 0 -228 -46.5t-187 -127.5t-125 -198t-46 -251q0 -179 79 -322.5t212.5 -222t294.5 -78.5q118 0 225 46.5t187 127t127 198t47 251.5zM1040 641h197q-24 -157 -132 -245.5t-255 -88.5q-202 0 -326.5 133.5
t-124.5 335.5q0 207 121 338t326 131q152 0 256 -85.5t127 -244.5h-189q-14 75 -70.5 114.5t-135.5 39.5q-112 0 -173 -79.5t-61 -211.5q0 -125 66.5 -210t171.5 -85q85 0 140 41.5t62 116.5zM20 770q0 162 63.5 310t170.5 255t255 170.5t310 63.5t310 -63.5t255 -170.5
t170.5 -255t63.5 -310t-63.5 -310t-170.5 -255t-255 -170.5t-310 -63.5t-310 63.5t-255 170.5t-170.5 255t-63.5 310z" />
    <glyph glyph-name="ordfeminine" unicode="&#xaa;" horiz-adv-x="811" 
d="M494 1161v27l-123 -10q-40 -4 -65 -15.5t-31.5 -21.5t-6.5 -19q0 -34 28 -50.5t60 -16.5q41 0 89.5 28t48.5 78zM506 920v81h-4q-46 -98 -207 -98q-35 0 -67 6t-64 21.5t-56 38.5t-38.5 59t-14.5 82q0 48 21 84t56 57t73.5 32.5t81.5 14.5l207 15v18q0 37 -31.5 61.5
t-81.5 24.5q-44 0 -75 -24t-34 -58h-196q8 122 106 183q81 51 215 51q136 0 223 -51t87 -154v-367q0 -39 10 -77h-211z" />
    <glyph glyph-name="guillemotleft" unicode="&#xab;" 
d="M559 537l221 372h226l-226 -372l215 -373h-225zM133 537l221 372h226l-226 -372l215 -373h-225z" />
    <glyph glyph-name="logicalnot" unicode="&#xac;" horiz-adv-x="1228" 
d="M920 221v414h-824v213h1037v-627h-213z" />
    <glyph glyph-name="uni00AD" unicode="&#xad;" horiz-adv-x="681" 
d="M41 399v275h600v-275h-600z" />
    <glyph glyph-name="registered" unicode="&#xae;" horiz-adv-x="1638" 
d="M20 770q0 162 63.5 310t170.5 255t255 170.5t310 63.5t310 -63.5t255 -170.5t170.5 -255t63.5 -310t-63.5 -310t-170.5 -255t-255 -170.5t-310 -63.5t-310 63.5t-255 170.5t-170.5 255t-63.5 310zM1405 770q0 134 -47 251t-127 198t-187 127.5t-225 46.5
q-120 0 -228 -46.5t-187 -127.5t-125 -198t-46 -251q0 -179 79 -322.5t212.5 -222t294.5 -78.5q118 0 225 46.5t187 127t127 198t47 251.5zM991 330l-211 375h-104v-375h-176v882h334q177 0 264.5 -60t87.5 -204q0 -215 -234 -235l234 -383h-195zM676 840h178
q77 0 116.5 25.5t39.5 99.5q0 112 -176 112h-158v-237z" />
    <glyph glyph-name="macron" unicode="&#xaf;" horiz-adv-x="569" 
d="M-12 1280v135h594v-135h-594z" />
    <glyph glyph-name="degree" unicode="&#xb0;" horiz-adv-x="819" 
d="M117 1247q0 123 85 208t208 85t207.5 -85t84.5 -208t-84.5 -208t-207.5 -85t-208 85t-85 208zM252 1247q0 -66 46 -111.5t112 -45.5t111.5 45.5t45.5 111.5t-45.5 112t-111.5 46t-112 -46t-46 -112z" />
    <glyph glyph-name="plusminus" unicode="&#xb1;" horiz-adv-x="1228" 
d="M508 766v270h213v-270h412v-213h-412v-272h-213v272h-412v213h412zM96 0v213h1037v-213h-1037z" />
    <glyph glyph-name="twosuperior" unicode="&#xb2;" horiz-adv-x="739" 
d="M41 614v140l270 274q115 116 138.5 152.5t23.5 95.5q0 40 -26 64t-78 24q-117 0 -117 -145h-197q0 76 22 134.5t55.5 93t77.5 56.5t83.5 29.5t79.5 7.5q137 0 225 -74.5t88 -187.5q0 -86 -46 -157t-173 -189l-154 -141h385v-177h-657z" />
    <glyph glyph-name="threesuperior" unicode="&#xb3;" horiz-adv-x="739" 
d="M223 1012v168l189 184h-346v176h583v-162l-207 -202q121 0 194 -73.5t73 -187.5q0 -133 -99 -217t-258 -84q-40 0 -79.5 7t-82.5 26t-76 48t-56 77t-27 109l213 16q2 -35 15.5 -58.5t34 -32.5t34.5 -12t30 -3q53 0 89 38.5t36 90.5q0 57 -35.5 88.5t-101.5 31.5
q-47 0 -123 -28z" />
    <glyph glyph-name="acute" unicode="&#xb4;" horiz-adv-x="569" 
d="M63 1233l181 287h276l-287 -287h-170z" />
    <glyph glyph-name="mu" unicode="&#xb5;" horiz-adv-x="1249" 
d="M825 0v137h-4q-63 -91 -120.5 -128.5t-122.5 -37.5q-100 0 -138 66h-4v-496h-295v1512h295v-641q0 -106 53.5 -154.5t131.5 -48.5q88 0 140 68.5t52 177.5v598h295v-1053h-283z" />
    <glyph glyph-name="paragraph" unicode="&#xb6;" horiz-adv-x="1269" 
d="M891 -430v1794h-217v-1794h-213v1188q-214 0 -331.5 101t-117.5 284q0 113 36 192.5t104.5 123t153.5 62.5t198 19h600v-1970h-213z" />
    <glyph glyph-name="periodcentered" unicode="&#xb7;" horiz-adv-x="569" 
d="M113 606q0 70 50.5 121t121.5 51t121.5 -51t50.5 -121t-50.5 -121t-121.5 -51t-121.5 51t-50.5 121z" />
    <glyph glyph-name="cedilla" unicode="&#xb8;" horiz-adv-x="569" 
d="M164 -219l-45 39l135 192h139l-78 -106l4 -4q32 4 56 4q70 0 116 -49t46 -129q0 -94 -68.5 -150.5t-181.5 -56.5q-77 0 -142.5 17t-101.5 36l39 109q84 -37 145 -37q113 0 113 78q0 30 -23 52.5t-71 22.5q-55 0 -82 -18z" />
    <glyph glyph-name="onesuperior" unicode="&#xb9;" horiz-adv-x="739" 
d="M289 614v680q-66 -55 -205 -110v178q185 91 266 178h152v-926h-213z" />
    <glyph glyph-name="ordmasculine" unicode="&#xba;" horiz-adv-x="811" 
d="M55 1235q0 151 98 242.5t253 91.5q156 0 253 -91.5t97 -242.5t-96.5 -241.5t-253.5 -90.5q-155 0 -253 90.5t-98 241.5zM530 1237q0 85 -34.5 126.5t-89.5 41.5q-54 0 -89.5 -42t-35.5 -126t35.5 -127t89.5 -43q55 0 89.5 42.5t34.5 127.5z" />
    <glyph glyph-name="guillemotright" unicode="&#xbb;" 
d="M358 909l222 -372l-211 -373h-226l215 373l-225 372h225zM784 909l222 -372l-211 -373h-226l215 373l-225 372h225z" />
    <glyph glyph-name="onequarter" unicode="&#xbc;" horiz-adv-x="1708" 
d="M1350 369v327h-4l-209 -327h213zM975 217v162l354 530h217v-540h113v-152h-113v-217h-196v217h-375zM293 -25l874 1565h168l-866 -1565h-176zM297 614v680q-66 -55 -205 -110v178q185 91 266 178h152v-926h-213z" />
    <glyph glyph-name="onehalf" unicode="&#xbd;" horiz-adv-x="1708" 
d="M276 -25l875 1565h168l-866 -1565h-177zM297 614v680q-66 -55 -205 -110v178q185 91 266 178h152v-926h-213zM958 0v139l271 275q115 116 138.5 152.5t23.5 95.5q0 40 -26.5 64t-78.5 24q-56 0 -86.5 -36.5t-30.5 -109.5h-196q0 76 22 134.5t55 93t77.5 56.5t83.5 30
t79 8q137 0 225.5 -74.5t88.5 -187.5q0 -86 -46.5 -157.5t-173.5 -189.5l-153 -141h385v-176h-658z" />
    <glyph glyph-name="threequarters" unicode="&#xbe;" horiz-adv-x="1708" 
d="M1350 369v327h-4l-209 -327h213zM975 217v162l354 530h217v-540h113v-152h-113v-217h-196v217h-375zM381 -25l874 1565h168l-866 -1565h-176zM242 1012v168l188 184h-346v176h584v-162l-207 -202q121 0 193.5 -73.5t72.5 -187.5q0 -133 -98.5 -217t-257.5 -84
q-40 0 -79.5 7t-82.5 26t-76 48t-56.5 77t-27.5 109l213 16q2 -28 12 -49t22.5 -31.5t29.5 -16.5t28 -7.5t23 -1.5q53 0 89 38.5t36 90.5q0 57 -35.5 88.5t-101.5 31.5q-47 0 -123 -28z" />
    <glyph glyph-name="questiondown" unicode="&#xbf;" 
d="M473 627h283v-64q0 -67 -19.5 -124t-50.5 -98t-68.5 -78t-75.5 -70.5t-69 -68t-50.5 -78t-19.5 -93.5q0 -79 48.5 -120.5t119.5 -41.5q87 0 132 51t45 140v24h282q0 -216 -125.5 -340.5t-341.5 -124.5q-89 0 -169 25t-144.5 73.5t-102.5 129t-38 182.5q0 71 20 132.5
t52 105t71 82t78 73t71 69t52 78.5t20 93v43zM602 1135q70 0 121 -50.5t51 -121.5t-51 -121.5t-121 -50.5t-121 50.5t-51 121.5t51 121.5t121 50.5z" />
    <glyph glyph-name="Agrave" unicode="&#xc0;" horiz-adv-x="1478" 
d="M934 571l-197 598h-4l-194 -598h395zM1120 0l-104 322h-563l-101 -322h-332l562 1540h323l553 -1540h-338zM729 1628l-287 287h277l180 -287h-170z" />
    <glyph glyph-name="Aacute" unicode="&#xc1;" horiz-adv-x="1478" 
d="M934 571l-197 598h-4l-194 -598h395zM1120 0l-104 322h-563l-101 -322h-332l562 1540h323l553 -1540h-338zM590 1628l180 287h277l-287 -287h-170z" />
    <glyph glyph-name="Acircumflex" unicode="&#xc2;" horiz-adv-x="1478" 
d="M934 571l-197 598h-4l-194 -598h395zM1120 0l-104 322h-563l-101 -322h-332l562 1540h323l553 -1540h-338zM883 1616l-144 184l-143 -184h-188l219 299h225l219 -299h-188z" />
    <glyph glyph-name="Atilde" unicode="&#xc3;" horiz-adv-x="1478" 
d="M934 571l-197 598h-4l-194 -598h395zM1120 0l-104 322h-563l-101 -322h-332l562 1540h323l553 -1540h-338zM496 1630h-117q6 45 20.5 85t40.5 76t67.5 57.5t94.5 21.5q57 0 154 -37q11 -4 34.5 -13.5t35.5 -13.5t29 -8t30 -4q82 0 98 86h117q-8 -60 -30.5 -111t-72.5 -89
t-118 -38q-57 0 -154 37q-11 4 -34.5 13.5t-35.5 13.5t-29 8t-30 4q-84 0 -100 -88z" />
    <glyph glyph-name="Adieresis" unicode="&#xc4;" horiz-adv-x="1478" 
d="M934 571l-197 598h-4l-194 -598h395zM1120 0l-104 322h-563l-101 -322h-332l562 1540h323l553 -1540h-338zM520 1935q63 0 108.5 -45t45.5 -108t-45.5 -108.5t-108.5 -45.5t-108 45.5t-45 108.5t45 108t108 45zM958 1935q63 0 108.5 -45t45.5 -108t-45.5 -108.5
t-108.5 -45.5t-108 45.5t-45 108.5t45 108t108 45z" />
    <glyph glyph-name="Aring" unicode="&#xc5;" horiz-adv-x="1478" 
d="M934 571l-197 598h-4l-194 -598h395zM1120 0l-104 322h-563l-101 -322h-332l562 1540h323l553 -1540h-338zM528 1798q0 85 62 148t149 63q85 0 148 -62.5t63 -148.5q0 -85 -63 -148t-148 -63q-87 0 -149 63.5t-62 147.5zM639 1798q0 -41 29.5 -70.5t70.5 -29.5t71 29.5
t30 70.5t-30 70.5t-71 29.5t-70.5 -29.5t-29.5 -70.5z" />
    <glyph glyph-name="AE" unicode="&#xc6;" horiz-adv-x="1933" 
d="M952 0v330h-448l-148 -330h-336l705 1540h1110v-274h-575v-351h555v-274h-555v-367h575v-274h-883zM952 592v711h-22l-303 -711h325z" />
    <glyph glyph-name="Ccedilla" unicode="&#xc7;" horiz-adv-x="1593" 
d="M1489 1014l-309 -21q-33 146 -127.5 223.5t-229.5 77.5q-121 0 -213.5 -72t-140 -190.5t-47.5 -263.5q0 -243 110.5 -382.5t298.5 -139.5q114 0 210 72.5t135 199.5l315 -22q-74 -240 -234 -374t-380 -149l-50 -67l4 -4q32 4 56 4q70 0 116 -49t46 -129
q0 -94 -68.5 -150.5t-181.5 -56.5q-77 0 -142.5 17t-101.5 36l39 109q84 -37 145 -37q113 0 113 78q0 30 -23 52.5t-71 22.5q-55 0 -82 -18l-45 39l108 153q-141 13 -257.5 72t-201.5 158t-131.5 244t-46.5 323q0 230 90 412t254 284.5t373 102.5q124 0 230.5 -32t195.5 -97
t152 -173t92 -253z" />
    <glyph glyph-name="Egrave" unicode="&#xc8;" horiz-adv-x="1251" 
d="M170 0v1540h983v-274h-676v-351h658v-274h-658v-367h676v-274h-983zM657 1628l-286 287h276l180 -287h-170z" />
    <glyph glyph-name="Eacute" unicode="&#xc9;" horiz-adv-x="1251" 
d="M170 0v1540h983v-274h-676v-351h658v-274h-658v-367h676v-274h-983zM518 1628l180 287h277l-287 -287h-170z" />
    <glyph glyph-name="Ecircumflex" unicode="&#xca;" horiz-adv-x="1251" 
d="M170 0v1540h983v-274h-676v-351h658v-274h-658v-367h676v-274h-983zM770 1616l-143 184l-144 -184h-188l219 299h225l219 -299h-188z" />
    <glyph glyph-name="Edieresis" unicode="&#xcb;" horiz-adv-x="1251" 
d="M170 0v1540h983v-274h-676v-351h658v-274h-658v-367h676v-274h-983zM408 1935q63 0 108 -45t45 -108t-45 -108.5t-108 -45.5t-108.5 45.5t-45.5 108.5t45.5 108t108.5 45zM846 1935q63 0 108 -45t45 -108t-45 -108.5t-108 -45.5t-108.5 45.5t-45.5 108.5t45.5 108
t108.5 45z" />
    <glyph glyph-name="Igrave" unicode="&#xcc;" horiz-adv-x="679" 
d="M186 0v1540h308v-1540h-308zM330 1628l-287 287h276l181 -287h-170z" />
    <glyph glyph-name="Iacute" unicode="&#xcd;" horiz-adv-x="679" 
d="M186 0v1540h308v-1540h-308zM180 1628l180 287h277l-287 -287h-170z" />
    <glyph glyph-name="Icircumflex" unicode="&#xce;" horiz-adv-x="679" 
d="M186 0v1540h308v-1540h-308zM483 1616l-143 184l-143 -184h-189l219 299h226l219 -299h-189z" />
    <glyph glyph-name="Idieresis" unicode="&#xcf;" horiz-adv-x="679" 
d="M186 0v1540h308v-1540h-308zM121 1935q63 0 108 -45t45 -108t-45 -108.5t-108 -45.5t-108.5 45.5t-45.5 108.5t45.5 108t108.5 45zM559 1935q63 0 108.5 -45t45.5 -108t-45.5 -108.5t-108.5 -45.5t-108 45.5t-45 108.5t45 108t108 45z" />
    <glyph glyph-name="Eth" unicode="&#xd0;" horiz-adv-x="1593" 
d="M10 717v188h160v635h580q352 0 546.5 -200t194.5 -570q0 -144 -38.5 -268.5t-106.5 -215.5t-160 -156t-201 -97.5t-227 -32.5h-588v717h-160zM881 905v-188h-404v-455h260q91 0 165.5 30t123.5 80t82.5 117t48 137.5t14.5 145.5q0 81 -14 152t-47.5 137t-84.5 113.5
t-131 75.5t-181 28h-236v-373h404z" />
    <glyph glyph-name="Ntilde" unicode="&#xd1;" horiz-adv-x="1593" 
d="M1106 0l-637 1051h-4v-1051h-295v1540h330l624 -1034h4v1034h295v-1540h-317zM553 1630h-117q6 45 20.5 85t40.5 76t67.5 57.5t94.5 21.5q57 0 154 -37q11 -4 34.5 -13.5t35.5 -13.5t29 -8t30 -4q82 0 98 86h117q-8 -60 -30.5 -111t-72.5 -89t-118 -38q-57 0 -154 37
q-11 4 -34.5 13.5t-35.5 13.5t-29 8t-30 4q-84 0 -100 -88z" />
    <glyph glyph-name="Ograve" unicode="&#xd2;" horiz-adv-x="1703" 
d="M1282 770q0 105 -27.5 198.5t-79.5 166.5t-135.5 116t-187.5 43t-187.5 -43t-135.5 -116t-79.5 -166.5t-27.5 -198.5t27.5 -198.5t79.5 -166.5t135.5 -116t187.5 -43t187.5 43t135.5 116t79.5 166.5t27.5 198.5zM102 770q0 125 31.5 242t95 218t152 177t210 119t261.5 43
t261.5 -43t210 -119t152 -177t95 -218t31.5 -242t-31.5 -242t-95 -218t-152 -177t-210 -119t-261.5 -43t-261.5 43t-210 119t-152 177t-95 218t-31.5 242zM862 1628l-287 287h277l180 -287h-170z" />
    <glyph glyph-name="Oacute" unicode="&#xd3;" horiz-adv-x="1703" 
d="M1282 770q0 105 -27.5 198.5t-79.5 166.5t-135.5 116t-187.5 43t-187.5 -43t-135.5 -116t-79.5 -166.5t-27.5 -198.5t27.5 -198.5t79.5 -166.5t135.5 -116t187.5 -43t187.5 43t135.5 116t79.5 166.5t27.5 198.5zM102 770q0 125 31.5 242t95 218t152 177t210 119t261.5 43
t261.5 -43t210 -119t152 -177t95 -218t31.5 -242t-31.5 -242t-95 -218t-152 -177t-210 -119t-261.5 -43t-261.5 43t-210 119t-152 177t-95 218t-31.5 242zM672 1628l180 287h276l-286 -287h-170z" />
    <glyph glyph-name="Ocircumflex" unicode="&#xd4;" horiz-adv-x="1703" 
d="M1282 770q0 105 -27.5 198.5t-79.5 166.5t-135.5 116t-187.5 43t-187.5 -43t-135.5 -116t-79.5 -166.5t-27.5 -198.5t27.5 -198.5t79.5 -166.5t135.5 -116t187.5 -43t187.5 43t135.5 116t79.5 166.5t27.5 198.5zM102 770q0 125 31.5 242t95 218t152 177t210 119t261.5 43
t261.5 -43t210 -119t152 -177t95 -218t31.5 -242t-31.5 -242t-95 -218t-152 -177t-210 -119t-261.5 -43t-261.5 43t-210 119t-152 177t-95 218t-31.5 242zM995 1616l-143 184l-143 -184h-189l219 299h226l219 -299h-189z" />
    <glyph glyph-name="Otilde" unicode="&#xd5;" horiz-adv-x="1703" 
d="M1282 770q0 105 -27.5 198.5t-79.5 166.5t-135.5 116t-187.5 43t-187.5 -43t-135.5 -116t-79.5 -166.5t-27.5 -198.5t27.5 -198.5t79.5 -166.5t135.5 -116t187.5 -43t187.5 43t135.5 116t79.5 166.5t27.5 198.5zM102 770q0 125 31.5 242t95 218t152 177t210 119t261.5 43
t261.5 -43t210 -119t152 -177t95 -218t31.5 -242t-31.5 -242t-95 -218t-152 -177t-210 -119t-261.5 -43t-261.5 43t-210 119t-152 177t-95 218t-31.5 242zM608 1630h-116q6 45 20.5 85t40.5 76t67.5 57.5t94.5 21.5q56 0 153 -37q11 -4 34.5 -13.5t35.5 -13.5t29 -8t30 -4
q41 0 66 22.5t33 63.5h116q-8 -60 -30.5 -111t-72.5 -89t-118 -38q-56 0 -153 37q-11 4 -34.5 13.5t-35.5 13.5t-29 8t-30 4q-85 0 -101 -88z" />
    <glyph glyph-name="Odieresis" unicode="&#xd6;" horiz-adv-x="1703" 
d="M1282 770q0 105 -27.5 198.5t-79.5 166.5t-135.5 116t-187.5 43t-187.5 -43t-135.5 -116t-79.5 -166.5t-27.5 -198.5t27.5 -198.5t79.5 -166.5t135.5 -116t187.5 -43t187.5 43t135.5 116t79.5 166.5t27.5 198.5zM102 770q0 125 31.5 242t95 218t152 177t210 119t261.5 43
t261.5 -43t210 -119t152 -177t95 -218t31.5 -242t-31.5 -242t-95 -218t-152 -177t-210 -119t-261.5 -43t-261.5 43t-210 119t-152 177t-95 218t-31.5 242zM633 1935q63 0 108 -45t45 -108t-45 -108.5t-108 -45.5t-108.5 45.5t-45.5 108.5t45.5 108t108.5 45zM1071 1935
q63 0 108.5 -45t45.5 -108t-45.5 -108.5t-108.5 -45.5t-108 45.5t-45 108.5t45 108t108 45z" />
    <glyph glyph-name="multiply" unicode="&#xd7;" horiz-adv-x="1228" 
d="M467 518l-332 332l148 147l331 -331l332 331l148 -147l-334 -332l334 -332l-148 -147l-332 334l-331 -334l-148 147z" />
    <glyph glyph-name="Oslash" unicode="&#xd8;" horiz-adv-x="1703" 
d="M1219 1063l-656 -696q111 -121 289 -121q104 0 187.5 43t135.5 116t79.5 166.5t27.5 198.5q0 167 -63 293zM487 479l654 695q-111 120 -289 120q-104 0 -187.5 -43t-135.5 -116t-79.5 -166.5t-27.5 -198.5q0 -167 65 -291zM68 35l202 215q-82 105 -125 239t-43 281
q0 125 31.5 242t95 218t152 177t210 119t261.5 43q293 0 489 -180l199 208l96 -92l-202 -215q82 -105 125 -239t43 -281q0 -125 -31.5 -242t-95 -218t-152 -177t-210 -119t-261.5 -43q-294 0 -490 183l-198 -211z" />
    <glyph glyph-name="Ugrave" unicode="&#xd9;" horiz-adv-x="1593" 
d="M1130 637v903h308v-901q0 -140 -34.5 -253.5t-94 -190t-142 -127.5t-174.5 -74t-196 -23t-196 23t-174.5 74t-142 127.5t-94 190t-34.5 253.5v901h307v-903q0 -192 85 -291.5t249 -99.5t248.5 99.5t84.5 291.5zM776 1628l-287 287h277l180 -287h-170z" />
    <glyph glyph-name="Uacute" unicode="&#xda;" horiz-adv-x="1593" 
d="M1130 637v903h308v-901q0 -140 -34.5 -253.5t-94 -190t-142 -127.5t-174.5 -74t-196 -23t-196 23t-174.5 74t-142 127.5t-94 190t-34.5 253.5v901h307v-903q0 -192 85 -291.5t249 -99.5t248.5 99.5t84.5 291.5zM647 1628l180 287h277l-287 -287h-170z" />
    <glyph glyph-name="Ucircumflex" unicode="&#xdb;" horiz-adv-x="1593" 
d="M1130 637v903h308v-901q0 -140 -34.5 -253.5t-94 -190t-142 -127.5t-174.5 -74t-196 -23t-196 23t-174.5 74t-142 127.5t-94 190t-34.5 253.5v901h307v-903q0 -192 85 -291.5t249 -99.5t248.5 99.5t84.5 291.5zM940 1616l-143 184l-144 -184h-188l219 299h225l219 -299
h-188z" />
    <glyph glyph-name="Udieresis" unicode="&#xdc;" horiz-adv-x="1593" 
d="M1130 637v903h308v-901q0 -140 -34.5 -253.5t-94 -190t-142 -127.5t-174.5 -74t-196 -23t-196 23t-174.5 74t-142 127.5t-94 190t-34.5 253.5v901h307v-903q0 -192 85 -291.5t249 -99.5t248.5 99.5t84.5 291.5zM578 1935q63 0 108 -45t45 -108t-45 -108.5t-108 -45.5
t-108.5 45.5t-45.5 108.5t45.5 108t108.5 45zM1016 1935q63 0 108 -45t45 -108t-45 -108.5t-108 -45.5t-108.5 45.5t-45.5 108.5t45.5 108t108.5 45z" />
    <glyph glyph-name="Yacute" unicode="&#xdd;" horiz-adv-x="1251" 
d="M631 948l262 592h338l-449 -924v-616h-307v616l-455 924h359zM477 1628l180 287h277l-287 -287h-170z" />
    <glyph glyph-name="Thorn" unicode="&#xde;" horiz-adv-x="1251" 
d="M477 561h172q59 0 104 14t72 35.5t44 52.5t23.5 60.5t6.5 62.5q0 41 -14.5 80t-43 73t-78 54.5t-112.5 20.5h-174v-453zM170 0v1540h307v-264h195q63 0 123.5 -10.5t122 -32t112.5 -60.5t91 -91.5t62.5 -128t22.5 -167.5q0 -103 -29.5 -186.5t-79 -138.5t-116 -92
t-138 -53.5t-147.5 -16.5h-219v-299h-307z" />
    <glyph glyph-name="germandbls" unicode="&#xdf;" horiz-adv-x="1249" 
d="M580 690v238q25 0 38.5 0.5t39 4t40 10.5t34.5 21.5t30.5 34.5t18 52t7.5 73q0 52 -16.5 89t-44 55.5t-56.5 26.5t-61 8q-174 0 -174 -220v-1083h-295v1096q0 201 126 328.5t356 127.5q89 0 170 -25t146 -72t104 -123t40 -171q0 -206 -184 -321v-4q37 -4 72.5 -18.5
t70.5 -43.5t61.5 -69.5t43 -101t16.5 -132.5q0 -206 -131 -344.5t-340 -138.5q-65 0 -139 12v254q50 -4 70 -4q233 0 233 215q0 46 -11 82.5t-27 59.5t-42.5 40t-48.5 25t-53.5 12.5t-49 5t-44.5 0.5z" />
    <glyph glyph-name="agrave" unicode="&#xe0;" horiz-adv-x="1251" 
d="M819 362v97l-246 -23q-99 -9 -139.5 -39.5t-40.5 -89.5q0 -123 185 -123q37 0 77 10.5t77.5 30.5t62 56t24.5 81zM831 0v137h-4q-126 -166 -360 -166q-52 0 -102 10t-99 34.5t-86 60.5t-59.5 92t-22.5 125q0 33 5 61.5t19.5 66t46 67.5t78.5 58t124 46t176 24l272 17v49
q0 92 -54 139t-153 47q-90 0 -141.5 -41.5t-56.5 -113.5h-283q3 52 19 101t53 98.5t91 86t139.5 59.5t191.5 23q80 0 149.5 -12t130.5 -38.5t104 -65.5t68 -96t25 -128v-610q0 -63 14 -131h-285zM616 1233l-286 287h276l180 -287h-170z" />
    <glyph glyph-name="aacute" unicode="&#xe1;" horiz-adv-x="1251" 
d="M819 362v97l-246 -23q-99 -9 -139.5 -39.5t-40.5 -89.5q0 -123 185 -123q37 0 77 10.5t77.5 30.5t62 56t24.5 81zM831 0v137h-4q-126 -166 -360 -166q-52 0 -102 10t-99 34.5t-86 60.5t-59.5 92t-22.5 125q0 33 5 61.5t19.5 66t46 67.5t78.5 58t124 46t176 24l272 17v49
q0 92 -54 139t-153 47q-90 0 -141.5 -41.5t-56.5 -113.5h-283q3 52 19 101t53 98.5t91 86t139.5 59.5t191.5 23q80 0 149.5 -12t130.5 -38.5t104 -65.5t68 -96t25 -128v-610q0 -63 14 -131h-285zM477 1233l180 287h277l-287 -287h-170z" />
    <glyph glyph-name="acircumflex" unicode="&#xe2;" horiz-adv-x="1251" 
d="M819 362v97l-246 -23q-99 -9 -139.5 -39.5t-40.5 -89.5q0 -123 185 -123q37 0 77 10.5t77.5 30.5t62 56t24.5 81zM831 0v137h-4q-126 -166 -360 -166q-52 0 -102 10t-99 34.5t-86 60.5t-59.5 92t-22.5 125q0 33 5 61.5t19.5 66t46 67.5t78.5 58t124 46t176 24l272 17v49
q0 92 -54 139t-153 47q-90 0 -141.5 -41.5t-56.5 -113.5h-283q3 52 19 101t53 98.5t91 86t139.5 59.5t191.5 23q80 0 149.5 -12t130.5 -38.5t104 -65.5t68 -96t25 -128v-610q0 -63 14 -131h-285zM770 1221l-143 184l-144 -184h-188l219 299h225l219 -299h-188z" />
    <glyph glyph-name="atilde" unicode="&#xe3;" horiz-adv-x="1251" 
d="M819 362v97l-246 -23q-99 -9 -139.5 -39.5t-40.5 -89.5q0 -123 185 -123q37 0 77 10.5t77.5 30.5t62 56t24.5 81zM831 0v137h-4q-126 -166 -360 -166q-52 0 -102 10t-99 34.5t-86 60.5t-59.5 92t-22.5 125q0 33 5 61.5t19.5 66t46 67.5t78.5 58t124 46t176 24l272 17v49
q0 92 -54 139t-153 47q-90 0 -141.5 -41.5t-56.5 -113.5h-283q3 52 19 101t53 98.5t91 86t139.5 59.5t191.5 23q80 0 149.5 -12t130.5 -38.5t104 -65.5t68 -96t25 -128v-610q0 -63 14 -131h-285zM383 1235h-117q6 45 20.5 85t40.5 76t67.5 57.5t94.5 21.5q57 0 154 -37
q11 -4 34.5 -13.5t35.5 -13.5t29 -8t30 -4q82 0 98 86h117q-8 -60 -30.5 -111t-72.5 -89t-118 -38q-57 0 -154 37q-11 4 -34.5 13.5t-35.5 13.5t-29 8t-30 4q-84 0 -100 -88z" />
    <glyph glyph-name="adieresis" unicode="&#xe4;" horiz-adv-x="1251" 
d="M819 362v97l-246 -23q-99 -9 -139.5 -39.5t-40.5 -89.5q0 -123 185 -123q37 0 77 10.5t77.5 30.5t62 56t24.5 81zM831 0v137h-4q-126 -166 -360 -166q-52 0 -102 10t-99 34.5t-86 60.5t-59.5 92t-22.5 125q0 33 5 61.5t19.5 66t46 67.5t78.5 58t124 46t176 24l272 17v49
q0 92 -54 139t-153 47q-90 0 -141.5 -41.5t-56.5 -113.5h-283q3 52 19 101t53 98.5t91 86t139.5 59.5t191.5 23q80 0 149.5 -12t130.5 -38.5t104 -65.5t68 -96t25 -128v-610q0 -63 14 -131h-285zM408 1540q63 0 108 -45.5t45 -108.5t-45 -108t-108 -45t-108.5 45t-45.5 108
t45.5 108.5t108.5 45.5zM846 1540q63 0 108 -45.5t45 -108.5t-45 -108t-108 -45t-108.5 45t-45.5 108t45.5 108.5t108.5 45.5z" />
    <glyph glyph-name="aring" unicode="&#xe5;" horiz-adv-x="1251" 
d="M819 362v97l-246 -23q-99 -9 -139.5 -39.5t-40.5 -89.5q0 -123 185 -123q37 0 77 10.5t77.5 30.5t62 56t24.5 81zM831 0v137h-4q-126 -166 -360 -166q-52 0 -102 10t-99 34.5t-86 60.5t-59.5 92t-22.5 125q0 33 5 61.5t19.5 66t46 67.5t78.5 58t124 46t176 24l272 17v49
q0 92 -54 139t-153 47q-90 0 -141.5 -41.5t-56.5 -113.5h-283q3 52 19 101t53 98.5t91 86t139.5 59.5t191.5 23q80 0 149.5 -12t130.5 -38.5t104 -65.5t68 -96t25 -128v-610q0 -63 14 -131h-285zM416 1403q0 85 62 148t149 63q85 0 148 -62.5t63 -148.5q0 -85 -63 -148
t-148 -63q-87 0 -149 63.5t-62 147.5zM526 1403q0 -41 30 -70.5t71 -29.5t70.5 29.5t29.5 70.5t-29.5 70.5t-70.5 29.5t-71 -29.5t-30 -70.5z" />
    <glyph glyph-name="ae" unicode="&#xe6;" horiz-adv-x="1933" 
d="M395 713h-270q3 52 19 101t53 98.5t90.5 86t139 59.5t191.5 23q96 0 197.5 -31.5t173.5 -99.5q59 59 144.5 95t169.5 36q240 0 389 -152t149 -405v-82h-770q10 -102 72.5 -173.5t173.5 -71.5q69 0 125 32.5t86 92.5l287 -23q-53 -159 -188 -243.5t-324 -84.5
q-142 0 -234 46.5t-182 144.5q-100 -107 -188 -148.5t-238 -42.5q-52 0 -102 10t-99 34.5t-86 60.5t-59.5 92t-22.5 125q0 27 3 52t16 60.5t34.5 64.5t62.5 60t96 52.5t139 35t188 13.5h157v51q0 186 -182 186q-98 0 -152 -41.5t-59 -113.5zM788 362v80h-141
q-68 0 -116.5 -7.5t-76 -18.5t-43 -29.5t-20 -36.5t-4.5 -43q0 -65 49 -94t123 -29q32 0 69.5 10.5t74.5 30.5t61 56t24 81zM1071 631h475q-8 86 -69.5 155.5t-159.5 69.5q-109 0 -171 -64t-75 -161z" />
    <glyph glyph-name="ccedilla" unicode="&#xe7;" 
d="M1075 662l-307 -13q-4 100 -52 141t-118 41q-205 0 -205 -327q0 -56 10.5 -105.5t33 -93.5t63.5 -70t96 -26q81 0 127 46t59 126l289 -10q-34 -175 -138 -281t-284 -117l-49 -67l4 -4q32 4 55 4q70 0 116 -49t46 -129q0 -94 -68.5 -150.5t-181.5 -56.5q-77 0 -142 16.5
t-101 36.5l39 109q84 -37 145 -37q113 0 113 78q0 30 -23.5 52.5t-71.5 22.5q-54 0 -81 -18l-46 39l111 157q-209 27 -318.5 170.5t-109.5 368.5q0 256 137.5 410.5t374.5 154.5q114 0 204 -34t147 -92.5t89 -132.5t37 -160z" />
    <glyph glyph-name="egrave" unicode="&#xe8;" horiz-adv-x="1249" 
d="M1163 442h-770q10 -102 72.5 -173.5t173.5 -71.5q69 0 125 32.5t86 92.5l287 -23q-53 -159 -188 -243.5t-324 -84.5q-240 0 -389.5 151.5t-149.5 401.5q0 253 149.5 405t389.5 152t389 -152t149 -405v-82zM393 631h475q-8 86 -69.5 155.5t-159.5 69.5q-109 0 -171 -64
t-75 -161zM655 1233l-286 287h276l180 -287h-170z" />
    <glyph glyph-name="eacute" unicode="&#xe9;" horiz-adv-x="1249" 
d="M1163 442h-770q10 -102 72.5 -173.5t173.5 -71.5q69 0 125 32.5t86 92.5l287 -23q-53 -159 -188 -243.5t-324 -84.5q-240 0 -389.5 151.5t-149.5 401.5q0 253 149.5 405t389.5 152t389 -152t149 -405v-82zM393 631h475q-8 86 -69.5 155.5t-159.5 69.5q-109 0 -171 -64
t-75 -161zM516 1233l180 287h277l-287 -287h-170z" />
    <glyph glyph-name="ecircumflex" unicode="&#xea;" horiz-adv-x="1249" 
d="M1163 442h-770q10 -102 72.5 -173.5t173.5 -71.5q69 0 125 32.5t86 92.5l287 -23q-53 -159 -188 -243.5t-324 -84.5q-240 0 -389.5 151.5t-149.5 401.5q0 253 149.5 405t389.5 152t389 -152t149 -405v-82zM393 631h475q-8 86 -69.5 155.5t-159.5 69.5q-109 0 -171 -64
t-75 -161zM768 1221l-143 184l-144 -184h-188l219 299h225l219 -299h-188z" />
    <glyph glyph-name="edieresis" unicode="&#xeb;" horiz-adv-x="1249" 
d="M1163 442h-770q10 -102 72.5 -173.5t173.5 -71.5q69 0 125 32.5t86 92.5l287 -23q-53 -159 -188 -243.5t-324 -84.5q-240 0 -389.5 151.5t-149.5 401.5q0 253 149.5 405t389.5 152t389 -152t149 -405v-82zM393 631h475q-8 86 -69.5 155.5t-159.5 69.5q-109 0 -171 -64
t-75 -161zM406 1540q63 0 108 -45.5t45 -108.5t-45 -108t-108 -45t-108.5 45t-45.5 108t45.5 108.5t108.5 45.5zM844 1540q63 0 108 -45.5t45 -108.5t-45 -108t-108 -45t-108.5 45t-45.5 108t45.5 108.5t108.5 45.5z" />
    <glyph glyph-name="igrave" unicode="&#xec;" horiz-adv-x="569" 
d="M137 0v1053h295v-1053h-295zM274 1233l-286 287h276l180 -287h-170z" />
    <glyph glyph-name="iacute" unicode="&#xed;" horiz-adv-x="569" 
d="M137 0v1053h295v-1053h-295zM125 1233l180 287h277l-287 -287h-170z" />
    <glyph glyph-name="icircumflex" unicode="&#xee;" horiz-adv-x="569" 
d="M137 0v1053h295v-1053h-295zM428 1221l-143 184l-144 -184h-188l219 299h225l219 -299h-188z" />
    <glyph glyph-name="idieresis" unicode="&#xef;" horiz-adv-x="569" 
d="M137 0v1053h295v-1053h-295zM66 1540q63 0 108 -45.5t45 -108.5t-45 -108t-108 -45t-108.5 45t-45.5 108t45.5 108.5t108.5 45.5zM504 1540q63 0 108 -45.5t45 -108.5t-45 -108t-108 -45t-108.5 45t-45.5 108t45.5 108.5t108.5 45.5z" />
    <glyph glyph-name="eth" unicode="&#xf0;" horiz-adv-x="1249" 
d="M326 1192l-115 104l246 109q-89 69 -197 129l242 117q92 -66 186 -144l256 113l103 -109l-240 -106q183 -172 269.5 -361.5t86.5 -435.5q0 -106 -17.5 -198.5t-58.5 -174t-102 -139.5t-153 -91.5t-207 -33.5q-240 0 -389.5 151.5t-149.5 401.5q0 251 140 404t356 153
q128 0 227 -69h4q-36 72 -98.5 150.5t-136.5 140.5zM856 524q0 140 -63 230t-166 90q-106 0 -170 -90t-64 -230q0 -137 64 -226t170 -89q103 0 166 89t63 226z" />
    <glyph glyph-name="ntilde" unicode="&#xf1;" horiz-adv-x="1249" 
d="M813 0v641q0 106 -53 154.5t-131 48.5q-88 0 -140.5 -68.5t-52.5 -177.5v-598h-295v1053h283v-138h4q63 91 139 128.5t172 37.5q182 0 275.5 -102t93.5 -264v-715h-295zM381 1235h-117q6 45 20.5 85t40.5 76t67.5 57.5t94.5 21.5q57 0 154 -37q11 -4 34.5 -13.5
t35.5 -13.5t29 -8t30 -4q82 0 98 86h117q-8 -60 -30.5 -111t-72.5 -89t-118 -38q-57 0 -154 37q-11 4 -34.5 13.5t-35.5 13.5t-29 8t-30 4q-84 0 -100 -88z" />
    <glyph glyph-name="ograve" unicode="&#xf2;" horiz-adv-x="1249" 
d="M1163 526q0 -252 -149 -403.5t-389 -151.5t-389.5 152t-149.5 403t149.5 403t389.5 152t389 -151.5t149 -403.5zM856 526q0 143 -59 230.5t-172 87.5t-172.5 -88t-59.5 -230t59.5 -229.5t172.5 -87.5t172 87t59 230zM635 1233l-287 287h277l180 -287h-170z" />
    <glyph glyph-name="oacute" unicode="&#xf3;" horiz-adv-x="1249" 
d="M1163 526q0 -252 -149 -403.5t-389 -151.5t-389.5 152t-149.5 403t149.5 403t389.5 152t389 -151.5t149 -403.5zM856 526q0 143 -59 230.5t-172 87.5t-172.5 -88t-59.5 -230t59.5 -229.5t172.5 -87.5t172 87t59 230zM444 1233l181 287h276l-287 -287h-170z" />
    <glyph glyph-name="ocircumflex" unicode="&#xf4;" horiz-adv-x="1249" 
d="M1163 526q0 -252 -149 -403.5t-389 -151.5t-389.5 152t-149.5 403t149.5 403t389.5 152t389 -151.5t149 -403.5zM856 526q0 143 -59 230.5t-172 87.5t-172.5 -88t-59.5 -230t59.5 -229.5t172.5 -87.5t172 87t59 230zM768 1221l-143 184l-144 -184h-188l219 299h225
l219 -299h-188z" />
    <glyph glyph-name="otilde" unicode="&#xf5;" horiz-adv-x="1249" 
d="M1163 526q0 -252 -149 -403.5t-389 -151.5t-389.5 152t-149.5 403t149.5 403t389.5 152t389 -151.5t149 -403.5zM856 526q0 143 -59 230.5t-172 87.5t-172.5 -88t-59.5 -230t59.5 -229.5t172.5 -87.5t172 87t59 230zM381 1235h-117q6 45 20.5 85t40.5 76t67.5 57.5
t94.5 21.5q57 0 154 -37q11 -4 34.5 -13.5t35.5 -13.5t29 -8t30 -4q82 0 98 86h117q-8 -60 -30.5 -111t-72.5 -89t-118 -38q-57 0 -154 37q-11 4 -34.5 13.5t-35.5 13.5t-29 8t-30 4q-84 0 -100 -88z" />
    <glyph glyph-name="odieresis" unicode="&#xf6;" horiz-adv-x="1249" 
d="M1163 526q0 -252 -149 -403.5t-389 -151.5t-389.5 152t-149.5 403t149.5 403t389.5 152t389 -151.5t149 -403.5zM856 526q0 143 -59 230.5t-172 87.5t-172.5 -88t-59.5 -230t59.5 -229.5t172.5 -87.5t172 87t59 230zM406 1540q63 0 108 -45.5t45 -108.5t-45 -108
t-108 -45t-108.5 45t-45.5 108t45.5 108.5t108.5 45.5zM844 1540q63 0 108 -45.5t45 -108.5t-45 -108t-108 -45t-108.5 45t-45.5 108t45.5 108.5t108.5 45.5z" />
    <glyph glyph-name="divide" unicode="&#xf7;" horiz-adv-x="1228" 
d="M96 412v213h1037v-213h-1037zM442 942q0 70 51 121t121 51t121 -51t51 -121t-51 -121t-121 -51t-121 51t-51 121zM442 94q0 70 51 121t121 51t121 -51t51 -121t-51 -121t-121 -51t-121 51t-51 121z" />
    <glyph glyph-name="oslash" unicode="&#xf8;" horiz-adv-x="1249" 
d="M838 672l-373 -396q67 -67 160 -67q113 0 172 87t59 230q0 88 -18 146zM412 381l368 395q-60 68 -155 68q-113 0 -172.5 -88t-59.5 -230q0 -80 19 -145zM61 8l142 152q-117 149 -117 366q0 251 149.5 403t389.5 152q204 0 342 -110l141 149l80 -76l-141 -151
q116 -147 116 -367q0 -252 -149 -403.5t-389 -151.5q-203 0 -342 111l-142 -150z" />
    <glyph glyph-name="ugrave" unicode="&#xf9;" horiz-adv-x="1249" 
d="M825 0v137h-4q-63 -91 -139 -128.5t-172 -37.5q-123 0 -208 50.5t-123 131t-38 185.5v715h295v-641q0 -106 53.5 -154.5t131.5 -48.5q88 0 140 68.5t52 177.5v598h295v-1053h-283zM604 1233l-287 287h277l180 -287h-170z" />
    <glyph glyph-name="uacute" unicode="&#xfa;" horiz-adv-x="1249" 
d="M825 0v137h-4q-63 -91 -139 -128.5t-172 -37.5q-123 0 -208 50.5t-123 131t-38 185.5v715h295v-641q0 -106 53.5 -154.5t131.5 -48.5q88 0 140 68.5t52 177.5v598h295v-1053h-283zM475 1233l180 287h277l-287 -287h-170z" />
    <glyph glyph-name="ucircumflex" unicode="&#xfb;" horiz-adv-x="1249" 
d="M825 0v137h-4q-63 -91 -139 -128.5t-172 -37.5q-123 0 -208 50.5t-123 131t-38 185.5v715h295v-641q0 -106 53.5 -154.5t131.5 -48.5q88 0 140 68.5t52 177.5v598h295v-1053h-283zM768 1221l-143 184l-144 -184h-188l219 299h225l219 -299h-188z" />
    <glyph glyph-name="udieresis" unicode="&#xfc;" horiz-adv-x="1249" 
d="M825 0v137h-4q-63 -91 -139 -128.5t-172 -37.5q-123 0 -208 50.5t-123 131t-38 185.5v715h295v-641q0 -106 53.5 -154.5t131.5 -48.5q88 0 140 68.5t52 177.5v598h295v-1053h-283zM406 1540q63 0 108 -45.5t45 -108.5t-45 -108t-108 -45t-108.5 45t-45.5 108t45.5 108.5
t108.5 45.5zM844 1540q63 0 108 -45.5t45 -108.5t-45 -108t-108 -45t-108.5 45t-45.5 108t45.5 108.5t108.5 45.5z" />
    <glyph glyph-name="yacute" unicode="&#xfd;" 
d="M240 -459l176 459l-396 1053h324l223 -697h4l224 697h323l-569 -1512h-309zM420 1233l180 287h277l-287 -287h-170z" />
    <glyph glyph-name="thorn" unicode="&#xfe;" horiz-adv-x="1366" 
d="M973 532q0 132 -70.5 222t-195.5 90q-122 0 -192.5 -89.5t-70.5 -226.5q0 -82 28.5 -150t91.5 -112.5t151 -44.5q121 0 189.5 91.5t68.5 219.5zM160 -459v1999h295v-620h4q50 78 137.5 119.5t191.5 41.5q142 0 256 -78.5t175 -205t61 -273.5q0 -148 -57.5 -273
t-170 -202.5t-259.5 -77.5q-105 0 -184 39t-150 133h-4v-602h-295z" />
    <glyph glyph-name="ydieresis" unicode="&#xff;" 
d="M240 -459l176 459l-396 1053h324l223 -697h4l224 697h323l-569 -1512h-309zM350 1540q63 0 108.5 -45.5t45.5 -108.5t-45.5 -108t-108.5 -45t-108 45t-45 108t45 108.5t108 45.5zM788 1540q63 0 108.5 -45.5t45.5 -108.5t-45.5 -108t-108.5 -45t-108 45t-45 108t45 108.5
t108 45.5z" />
    <glyph glyph-name="dotlessi" unicode="&#x131;" horiz-adv-x="569" 
d="M137 0v1053h295v-1053h-295z" />
    <glyph glyph-name="Lslash" unicode="&#x141;" 
d="M-4 430v236l174 102v772h307v-592l416 244v-236l-416 -243v-426h592v-287h-899v532z" />
    <glyph glyph-name="lslash" unicode="&#x142;" horiz-adv-x="569" 
d="M-12 537v208l149 93v702h295v-520l150 92v-209l-150 -92v-811h-295v629z" />
    <glyph glyph-name="OE" unicode="&#x152;" horiz-adv-x="2048" 
d="M1141 768q0 41 -3 82.5t-13 95t-26 100.5t-45 93.5t-66.5 80t-93 54t-122.5 20.5q-180 0 -277.5 -146t-97.5 -382q0 -240 101.5 -380t271.5 -140q120 0 205.5 71t125.5 187t40 264zM1141 0v178h-4q-42 -65 -98.5 -109.5t-115 -64t-103.5 -26.5t-89 -7q-56 0 -112.5 10
t-121 36.5t-121.5 67t-110.5 106t-91.5 148.5t-61 200.5t-23 255.5q0 172 52 319t138.5 245.5t200 154t236.5 55.5q162 0 266.5 -53t155.5 -142h4v166h807v-274h-514v-351h495v-274h-495v-367h514v-274h-809z" />
    <glyph glyph-name="oe" unicode="&#x153;" horiz-adv-x="1933" 
d="M842 543q0 134 -64 211t-162 77q-105 0 -168 -85t-63 -222q0 -143 61 -223t170 -80q62 0 108 30t70.5 79t36 102.5t11.5 110.5zM1112 627h436q0 63 -19 109.5t-51.5 71.5t-68.5 36.5t-76 11.5q-96 0 -152.5 -61.5t-68.5 -167.5zM1855 451h-741q0 -113 53 -183.5
t160 -70.5q143 0 213 125l287 -23q-25 -77 -70.5 -136.5t-98 -95t-116 -58t-118 -30.5t-109.5 -8q-236 0 -354 166q-27 -34 -55 -59t-71 -51.5t-103.5 -41t-133.5 -14.5q-227 0 -373.5 152t-146.5 401q0 253 149 405t389 152t361 -161q124 161 375 161q235 0 369 -152.5
t134 -416.5v-61z" />
    <glyph glyph-name="Scaron" unicode="&#x160;" horiz-adv-x="1366" 
d="M1223 1141l-308 -6q0 77 -65 124.5t-160 47.5q-114 0 -180 -46.5t-66 -123.5q0 -124 179 -183l282 -90q167 -54 258.5 -154t91.5 -268q0 -60 -17 -121.5t-58.5 -125.5t-103.5 -113t-161 -80t-221 -31q-110 0 -200.5 20t-149.5 51.5t-103.5 76.5t-68.5 88t-38.5 93
t-18.5 85t-4 70l307 6q0 -116 78 -172t200 -56q57 0 112 17t97.5 57t42.5 96q0 64 -37.5 102.5t-148.5 78.5l-336 121q-129 46 -209 151t-80 234q0 62 17 125.5t57 128t99.5 114t153 80.5t208.5 31q98 0 180 -18t137.5 -47t98.5 -68t68 -78.5t40.5 -82.5t21 -74.5t5.5 -59.5
zM684 1731l143 184h189l-219 -299h-226l-219 299h189z" />
    <glyph glyph-name="scaron" unicode="&#x161;" 
d="M1018 733l-295 -6q-3 67 -49.5 104t-130.5 37q-63 0 -109.5 -24.5t-46.5 -69.5q0 -33 28 -56t74 -34t105 -23t120.5 -22.5t120.5 -34.5t105 -56.5t74 -90t28 -133.5q0 -21 -3.5 -45.5t-16 -60t-32.5 -68t-57 -66t-85 -58t-122 -40t-163 -15.5q-52 0 -103.5 7t-116.5 30
t-115 60t-87.5 104t-44.5 156h295q3 -71 56 -107.5t126 -36.5q70 0 122.5 25.5t52.5 83.5q0 35 -35 57t-90.5 34t-123 23t-134.5 32.5t-122.5 55t-90.5 97t-35 151.5q0 63 25 121.5t75.5 108t137 79t198.5 29.5q206 0 329.5 -89.5t135.5 -258.5zM569 1335l144 185h188
l-219 -299h-225l-219 299h188z" />
    <glyph glyph-name="Ydieresis" unicode="&#x178;" horiz-adv-x="1251" 
d="M631 948l262 592h338l-449 -924v-616h-307v616l-455 924h359zM408 1935q63 0 108 -45t45 -108t-45 -108.5t-108 -45.5t-108.5 45.5t-45.5 108.5t45.5 108t108.5 45zM846 1935q63 0 108 -45t45 -108t-45 -108.5t-108 -45.5t-108.5 45.5t-45.5 108.5t45.5 108t108.5 45z
" />
    <glyph glyph-name="Zcaron" unicode="&#x17d;" horiz-adv-x="1251" 
d="M74 0v242l714 1024h-665v274h1055v-242l-717 -1024h717v-274h-1104zM627 1731l143 184h188l-219 -299h-225l-219 299h188z" />
    <glyph glyph-name="zcaron" unicode="&#x17e;" horiz-adv-x="1024" 
d="M68 0v213l514 602h-486v238h860v-213l-507 -602h507v-238h-888zM512 1335l143 185h189l-219 -299h-226l-219 299h189z" />
    <glyph glyph-name="florin" unicode="&#x192;" 
d="M242 614l18 226h166l25 241q6 58 11 94t17.5 90t28 88t42.5 73t62.5 61.5t87 37.5t115.5 15q63 0 125 -10l-20 -242q-43 15 -68 15q-101 0 -117 -160l-28 -303h178l-21 -226h-168l-55 -671q-7 -85 -20.5 -146.5t-40 -116t-67 -88t-103 -52.5t-146.5 -19q-46 0 -108 12
l20 234q4 0 30 -4.5t42 -4.5q94 0 110 189l54 667h-170z" />
    <glyph glyph-name="circumflex" unicode="&#x2c6;" horiz-adv-x="569" 
d="M428 1221l-143 184l-144 -184h-188l219 299h225l219 -299h-188z" />
    <glyph glyph-name="caron" unicode="&#x2c7;" horiz-adv-x="569" 
d="M285 1335l143 185h188l-219 -299h-225l-219 299h188z" />
    <glyph glyph-name="uni02C9" unicode="&#x2c9;" horiz-adv-x="569" 
d="M-12 1280v135h594v-135h-594z" />
    <glyph glyph-name="breve" unicode="&#x2d8;" horiz-adv-x="569" 
d="M500 1516h114q-7 -130 -97.5 -209.5t-231.5 -79.5q-140 0 -231.5 79.5t-98.5 209.5h117q15 -76 69.5 -115t143.5 -39q180 0 215 154z" />
    <glyph glyph-name="dotaccent" unicode="&#x2d9;" horiz-adv-x="569" 
d="M131 1386q0 63 45.5 108.5t108.5 45.5t108 -45.5t45 -108.5t-45 -108t-108 -45t-108.5 45t-45.5 108z" />
    <glyph glyph-name="ring" unicode="&#x2da;" horiz-adv-x="569" 
d="M74 1403q0 85 62 148t149 63q85 0 148 -62.5t63 -148.5q0 -85 -63 -148t-148 -63q-87 0 -149 63.5t-62 147.5zM184 1403q0 -41 30 -70.5t71 -29.5t70.5 29.5t29.5 70.5t-29.5 70.5t-70.5 29.5t-71 -29.5t-30 -70.5z" />
    <glyph glyph-name="ogonek" unicode="&#x2db;" horiz-adv-x="569" 
d="M293 0h98q-145 -145 -145 -219q0 -42 26 -65t64 -23q44 0 86 10l16 -109q-70 -24 -139 -24q-55 0 -105 17t-87 59.5t-37 103.5q0 63 55.5 120t167.5 130z" />
    <glyph glyph-name="tilde" unicode="&#x2dc;" horiz-adv-x="569" 
d="M41 1235h-117q6 45 20.5 85t40.5 76t67.5 57.5t94.5 21.5q57 0 154 -37q11 -4 34.5 -13.5t35.5 -13.5t29 -8t30 -4q82 0 98 86h117q-8 -60 -30.5 -111t-72.5 -89t-118 -38q-57 0 -154 37q-11 4 -34.5 13.5t-35.5 13.5t-29 8t-30 4q-84 0 -100 -88z" />
    <glyph glyph-name="hungarumlaut" unicode="&#x2dd;" horiz-adv-x="569" 
d="M-152 1233l181 287h276l-287 -287h-170zM279 1233l180 287h276l-286 -287h-170z" />
    <glyph glyph-name="uni03A9" unicode="&#x3a9;" horiz-adv-x="1433" 
d="M346 225v6q-105 108 -174.5 264t-69.5 343q0 141 45 267.5t124.5 221t196.5 150t253 55.5q116 0 215.5 -40.5t170 -108.5t120.5 -156t74 -183t24 -190q0 -191 -71.5 -354.5t-176.5 -268.5v-6h277v-225h-539v166q100 69 167 227.5t67 399.5q0 136 -36.5 248.5t-113 183.5
t-180.5 71q-155 0 -247.5 -144t-92.5 -370q0 -224 67.5 -387.5t165.5 -228.5v-166h-540v225h274z" />
    <glyph glyph-name="uni03BC" unicode="&#x3bc;" horiz-adv-x="1249" 
d="M825 0v137h-4q-63 -91 -120.5 -128.5t-122.5 -37.5q-100 0 -138 66h-4v-496h-295v1512h295v-641q0 -106 53.5 -154.5t131.5 -48.5q88 0 140 68.5t52 177.5v598h295v-1053h-283z" />
    <glyph glyph-name="pi" unicode="&#x3c0;" horiz-adv-x="1241" 
d="M1192 897h-141v-584q0 -203 26 -313h-264q-37 70 -37 303v594h-272q-7 -194 -43.5 -464t-87.5 -433h-264q52 189 88.5 453.5t38.5 443.5q-122 0 -197 -20l-29 186q90 72 340 72h862z" />
    <glyph glyph-name="uni2010" unicode="&#x2010;" horiz-adv-x="681" 
d="M41 399v275h600v-275h-600z" />
    <glyph glyph-name="endash" unicode="&#x2013;" horiz-adv-x="1024" 
d="M0 424v225h1024v-225h-1024z" />
    <glyph glyph-name="emdash" unicode="&#x2014;" horiz-adv-x="2048" 
d="M0 424v225h2048v-225h-2048z" />
    <glyph glyph-name="quoteleft" unicode="&#x2018;" horiz-adv-x="569" 
d="M498 1511l-152 -569l-274 86l233 541z" />
    <glyph glyph-name="quoteright" unicode="&#x2019;" horiz-adv-x="569" 
d="M223 1569l275 -86l-236 -541l-190 57z" />
    <glyph glyph-name="quotesinglbase" unicode="&#x201a;" horiz-adv-x="569" 
d="M223 313l275 -86l-236 -540l-190 57z" />
    <glyph glyph-name="quotedblleft" unicode="&#x201c;" 
d="M346 1569l193 -58l-152 -569l-274 86zM834 1569l192 -58l-152 -569l-274 86z" />
    <glyph glyph-name="quotedblright" unicode="&#x201d;" 
d="M752 1569l274 -86l-235 -541l-191 57zM264 1569l275 -86l-236 -541l-190 57z" />
    <glyph glyph-name="quotedblbase" unicode="&#x201e;" 
d="M752 313l274 -86l-235 -540l-191 57zM264 313l275 -86l-236 -540l-190 57z" />
    <glyph glyph-name="dagger" unicode="&#x2020;" 
d="M428 -248v1057h-340v250h340v481h283v-481h340v-250h-340v-1057h-283z" />
    <glyph glyph-name="daggerdbl" unicode="&#x2021;" 
d="M428 410v473h-340v250h340v407h283v-407h340v-250h-340v-473h340v-250h-340v-408h-283v408h-340v250h340z" />
    <glyph glyph-name="bullet" unicode="&#x2022;" horiz-adv-x="1024" 
d="M127 770q0 160 112.5 272.5t272.5 112.5t272.5 -112.5t112.5 -272.5t-112.5 -272.5t-272.5 -112.5t-272.5 112.5t-112.5 272.5z" />
    <glyph glyph-name="ellipsis" unicode="&#x2026;" horiz-adv-x="2048" 
d="M170 147q0 71 51 121.5t121 50.5t121 -50.5t51 -121.5t-51 -121.5t-121 -50.5t-121 50.5t-51 121.5zM852 147q0 71 51 121.5t121 50.5t121 -50.5t51 -121.5t-51 -121.5t-121 -50.5t-121 50.5t-51 121.5zM1534 147q0 71 51 121.5t121 50.5t121 -50.5t51 -121.5t-51 -121.5
t-121 -50.5t-121 50.5t-51 121.5z" />
    <glyph glyph-name="perthousand" unicode="&#x2030;" horiz-adv-x="2048" 
d="M307 807q-142 0 -214.5 97t-72.5 270t72.5 269.5t214.5 96.5t214.5 -96.5t72.5 -269.5t-72.5 -270t-214.5 -97zM307 958q56 0 73 47t17 169q0 115 -17.5 165t-72.5 50t-72.5 -50t-17.5 -165q0 -122 17 -169t73 -47zM1741 127q56 0 73 46.5t17 168.5q0 115 -17.5 165
t-72.5 50t-72.5 -50t-17.5 -165q0 -122 17 -168.5t73 -46.5zM1741 -25q-142 0 -214.5 97t-72.5 270t72.5 270t214.5 97t214.5 -97t72.5 -270t-72.5 -270t-214.5 -97zM1047 127q56 0 73 46.5t17 168.5q0 115 -17.5 165t-72.5 50t-73 -50.5t-18 -164.5q0 -121 17.5 -168
t73.5 -47zM1047 -25q-142 0 -214.5 97t-72.5 270t72.5 270t214.5 97t214 -97t72 -270t-72 -270t-214 -97zM150 -43l890 1602h168l-882 -1602h-176z" />
    <glyph glyph-name="guilsinglleft" unicode="&#x2039;" horiz-adv-x="569" 
d="M61 537l222 372h225l-225 -372l215 -373h-226z" />
    <glyph glyph-name="guilsinglright" unicode="&#x203a;" horiz-adv-x="569" 
d="M287 909l221 -372l-211 -373h-225l215 373l-226 372h226z" />
    <glyph glyph-name="fraction" unicode="&#x2044;" horiz-adv-x="342" 
d="M-350 -25l874 1565h168l-866 -1565h-176z" />
    <glyph glyph-name="Euro" unicode="&#x20ac;" 
d="M1114 1116l-299 -18q0 74 -43.5 127t-116.5 53q-153 0 -186 -262h463l-64 -176h-419q-3 -40 -3 -84v-58h371l-61 -176h-289q9 -123 56.5 -203.5t117.5 -80.5q134 0 164 137l297 -19q-75 -381 -463 -381q-199 0 -321.5 142.5t-159.5 404.5h-166l61 176h88q-2 18 -2 60
q0 55 2 82h-149l61 176h111q44 248 167.5 386t315.5 138q114 0 198 -30t138 -87.5t85 -132t46 -174.5z" />
    <glyph glyph-name="afii61289" unicode="&#x2113;" horiz-adv-x="1054" 
d="M913 393l107 -112q-142 -297 -426 -297q-75 0 -135.5 19t-102 51.5t-71 78t-45 96t-21.5 109.5q0 16 -2 24q-8 -7 -46 -38.5t-58 -47.5l-68 146q21 18 57.5 48.5t63 54t49.5 46.5v547q0 267 106 405t269 138q73 0 128.5 -29.5t90 -82t51.5 -121t17 -150.5
q0 -180 -102.5 -362.5t-295.5 -378.5v-101q1 -113 50.5 -173t127.5 -60q137 0 256 190zM479 1110v-317q106 131 169 261t63 236q0 86 -25 129t-84 43q-24 0 -44.5 -17t-39 -55t-29 -109.5t-10.5 -170.5z" />
    <glyph glyph-name="trademark" unicode="&#x2122;" horiz-adv-x="2048" 
d="M1686 696v598h-5l-217 -598h-153l-217 598h-4v-598h-197v844h293l203 -532l200 532h293v-844h-196zM272 696v680h-239v164h692v-164h-240v-680h-213z" />
    <glyph glyph-name="Omega" unicode="&#x2126;" horiz-adv-x="1433" 
d="M346 225v6q-105 108 -174.5 264t-69.5 343q0 141 45 267.5t124.5 221t196.5 150t253 55.5q116 0 215.5 -40.5t170 -108.5t120.5 -156t74 -183t24 -190q0 -191 -71.5 -354.5t-176.5 -268.5v-6h277v-225h-539v166q100 69 167 227.5t67 399.5q0 136 -36.5 248.5t-113 183.5
t-180.5 71q-155 0 -247.5 -144t-92.5 -370q0 -224 67.5 -387.5t165.5 -228.5v-166h-540v225h274z" />
    <glyph glyph-name="estimated" unicode="&#x212e;" horiz-adv-x="1886" 
d="M1810 735h-1407q-10 0 -10 -8v-426q0 -27 19 -49q104 -109 241.5 -170.5t290.5 -61.5q163 0 308 69.5t251 191.5h125q-119 -141 -300 -222.5t-388 -81.5q-176 0 -336 62t-276 166t-185 249t-69 304t69 304t185 249.5t276 166.5t336 62q178 0 339 -62t277.5 -166.5
t185 -249.5t68.5 -304v-23zM1491 791v430q0 31 -21 49q-104 104 -240 163.5t-286 59.5q-152 0 -289 -61t-241 -168q-21 -21 -21 -54v-419q0 -4 3 -8.5t7 -4.5h1080q8 0 8 13z" />
    <glyph glyph-name="partialdiff" unicode="&#x2202;" horiz-adv-x="1187" 
d="M215 1374l-74 211q158 123 377 123q91 0 174 -32t155 -98.5t124.5 -162t83 -231t30.5 -297.5q0 -275 -67.5 -477t-198.5 -313t-313 -111q-83 0 -154 30.5t-120 81t-84 117t-51.5 138t-16.5 143.5q0 129 35.5 237.5t96 180.5t141 111.5t171.5 39.5q57 0 109 -17
t87.5 -43.5t59 -51.5t37.5 -48h2v70q0 130 -40.5 244t-119 186t-178.5 72q-145 0 -266 -103zM532 219h3q71 0 129 72t89 171.5t42 209.5q-16 60 -74.5 114t-142.5 54q-100 0 -165 -106.5t-65 -250.5q0 -113 50.5 -188.5t133.5 -75.5z" />
    <glyph glyph-name="uni2206" unicode="&#x2206;" horiz-adv-x="1345" 
d="M55 0v162l463 1378h324l446 -1374v-166h-1233zM334 223h665l-213 611q-15 59 -58.5 201t-55.5 190h-6q-8 -40 -49 -169.5t-56 -189.5z" />
    <glyph glyph-name="product" unicode="&#x220f;" horiz-adv-x="1488" 
d="M1434 1255h-205v-1464h-271v1464h-430v-1464h-270v1464h-205v252h1381v-252z" />
    <glyph glyph-name="summation" unicode="&#x2211;" horiz-adv-x="1142" 
d="M1106 -209h-1057v180l492 682l-475 660v194h1005v-233h-643v-6l418 -568l-467 -643v-6h727v-260z" />
    <glyph glyph-name="minus" unicode="&#x2212;" horiz-adv-x="1228" 
d="M96 412v213h1037v-213h-1037z" />
    <glyph glyph-name="uni2215" unicode="&#x2215;" horiz-adv-x="342" 
d="M-350 -25l874 1565h168l-866 -1565h-176z" />
    <glyph glyph-name="uni2219" unicode="&#x2219;" horiz-adv-x="569" 
d="M113 606q0 70 50.5 121t121.5 51t121.5 -51t50.5 -121t-50.5 -121t-121.5 -51t-121.5 51t-50.5 121z" />
    <glyph glyph-name="radical" unicode="&#x221a;" horiz-adv-x="1228" 
d="M1241 1812l-459 -2109h-217l-301 940l-153 -61l-43 155l360 146l203 -664q6 -33 21.5 -100.5t19.5 -93.5l4 -2q15 118 33 210l346 1579h186z" />
    <glyph glyph-name="infinity" unicode="&#x221e;" horiz-adv-x="1634" 
d="M1534 625v-4q0 -165 -101.5 -266t-238.5 -101q-98 0 -187 53t-188 185q-91 -116 -180 -177t-207 -61q-135 0 -233.5 101t-98.5 255q0 160 99.5 262.5t251.5 102.5q110 0 197 -58.5t177 -173.5q82 92 114 120q124 112 267 112q141 -2 234.5 -98.5t93.5 -251.5zM451 403h4
q34 0 67.5 12.5t58.5 29t56.5 47.5t49.5 52t50 60q-80 109 -117 145q-80 78 -176 78q-89 0 -139.5 -60.5t-50.5 -158.5q0 -86 56.5 -145.5t140.5 -59.5zM1190 827h-2q-30 0 -61 -11.5t-52.5 -24.5t-52 -41.5t-43 -42t-42 -49t-34.5 -40.5q97 -123 158.5 -169t138.5 -46
q81 0 130.5 65.5t49.5 141.5q0 95 -52.5 156t-137.5 61z" />
    <glyph glyph-name="integral" unicode="&#x222b;" horiz-adv-x="839" 
d="M786 1843l-28 -192q-32 18 -72 18q-64 0 -102 -55q-56 -77 -56 -363q0 -171 15.5 -502.5t15.5 -531.5q0 -289 -74 -434q-40 -81 -114.5 -119.5t-161.5 -38.5q-92 0 -160 35l35 199q47 -21 86 -21q60 0 90 41q53 77 53 334q0 202 -15 542.5t-15 522.5q0 189 29 301.5
t96 187.5q44 49 110.5 74t138.5 25q71 0 129 -23z" />
    <glyph glyph-name="approxequal" unicode="&#x2248;" horiz-adv-x="1132" 
d="M954 971l97 -88q-50 -100 -122.5 -160.5t-158.5 -60.5q-59 0 -108 18.5t-121 64.5q-42 27 -60.5 38t-51.5 22.5t-64 11.5q-33 0 -60.5 -11.5t-52.5 -38t-39 -45t-39 -56.5l-96 86q46 97 125.5 158t173.5 61q24 0 49 -4t41 -8.5t39.5 -15t32 -15t31.5 -18t26 -15.5
q10 -6 34 -21t32.5 -20t26.5 -14.5t28.5 -13t25.5 -6.5t29 -3q55 0 95.5 38.5t86.5 115.5zM954 575l97 -88q-49 -100 -122 -160.5t-161 -60.5q-56 0 -104 19t-123 65q-44 29 -61.5 39.5t-50.5 22.5t-64 12q-41 0 -78 -24.5t-54.5 -47t-51.5 -72.5q-5 -7 -7 -10l-96 86
q46 97 126 158t173 61q19 0 37.5 -2.5t32.5 -5t31 -9t27 -10t26.5 -12.5l22 -12t22 -13t18.5 -11q15 -8 46 -26.5t46.5 -26.5t39.5 -15.5t46 -7.5q55 0 95 36.5t87 114.5z" />
    <glyph glyph-name="notequal" unicode="&#x2260;" horiz-adv-x="1132" 
d="M836 1096l-80 -183h276v-159h-334l-120 -285h454v-158h-514l-100 -235l-125 49l82 186h-277v158h336l119 285h-455v159h514l99 232z" />
    <glyph glyph-name="lessequal" unicode="&#x2264;" horiz-adv-x="1132" 
d="M1026 213l-915 473v172l915 471v-186l-762 -369v-4l762 -369v-188zM1034 -27h-932v162h932v-162z" />
    <glyph glyph-name="greaterequal" unicode="&#x2265;" horiz-adv-x="1132" 
d="M115 1329l915 -471v-172l-915 -473v188l762 369v4l-762 369v186zM1032 -27h-928v162h928v-162z" />
    <glyph glyph-name="lozenge" unicode="&#x25ca;" horiz-adv-x="1226" 
d="M1122 754l-405 -858h-221l-392 858l406 858h219zM883 748l-226 499q-28 82 -36 137h-9q-15 -63 -41 -137l-227 -487l227 -510q27 -85 35 -129h10q14 76 35 125z" />
    <glyph glyph-name="fi" unicode="&#xfb01;" horiz-adv-x="1251" 
d="M172 0v827h-149v226h149v137q0 87 18 150.5t50 104t84.5 64.5t113 33.5t142.5 9.5h57v-249h-82q-40 0 -64 -21.5t-24 -64.5v-164h170v-226h-170v-827h-295zM819 0v1053h295v-1053h-295zM967 1208q-71 0 -121.5 53t-50.5 117q0 67 50.5 120.5t121.5 53.5q67 0 119.5 -50.5
t52.5 -119.5q0 -68 -51 -121t-121 -53z" />
    <glyph glyph-name="fl" unicode="&#xfb02;" horiz-adv-x="1251" 
d="M172 0v827h-149v226h149v137q0 87 18 150.5t50 104t84.5 64.5t113 33.5t142.5 9.5h57v-249h-82q-40 0 -64 -21.5t-24 -64.5v-164h170v-226h-170v-827h-295zM819 0v1540h295v-1540h-295z" />
    <glyph glyph-name="a.superior" horiz-adv-x="811" 
d="M494 1161v27l-123 -10q-40 -4 -65 -15.5t-31.5 -21.5t-6.5 -19q0 -34 28 -50.5t60 -16.5q41 0 89.5 28t48.5 78zM506 920v81h-4q-46 -98 -207 -98q-35 0 -67 6t-64 21.5t-56 38.5t-38.5 59t-14.5 82q0 48 21 84t56 57t73.5 32.5t81.5 14.5l207 15v18q0 37 -31.5 61.5
t-81.5 24.5q-44 0 -75 -24t-34 -58h-196q8 122 106 183q81 51 215 51q136 0 223 -51t87 -154v-367q0 -39 10 -77h-211z" />
    <glyph glyph-name="o.superior" horiz-adv-x="811" 
d="M55 1235q0 151 98 242.5t253 91.5q156 0 253 -91.5t97 -242.5t-96.5 -241.5t-253.5 -90.5q-155 0 -253 90.5t-98 241.5zM530 1237q0 85 -34.5 126.5t-89.5 41.5q-54 0 -89.5 -42t-35.5 -126t35.5 -127t89.5 -43q55 0 89.5 42.5t34.5 127.5z" />
    <glyph glyph-name="one.superior" horiz-adv-x="739" 
d="M289 614v680q-66 -55 -205 -110v178q185 91 266 178h152v-926h-213z" />
    <glyph glyph-name="two.superior" horiz-adv-x="739" 
d="M41 614v140l270 274q115 116 138.5 152.5t23.5 95.5q0 40 -26 64t-78 24q-117 0 -117 -145h-197q0 76 22 134.5t55.5 93t77.5 56.5t83.5 29.5t79.5 7.5q137 0 225 -74.5t88 -187.5q0 -86 -46 -157t-173 -189l-154 -141h385v-177h-657z" />
    <glyph glyph-name="three.superior" horiz-adv-x="739" 
d="M223 1012v168l189 184h-346v176h583v-162l-207 -202q121 0 194 -73.5t73 -187.5q0 -133 -99 -217t-258 -84q-40 0 -79.5 7t-82.5 26t-76 48t-56 77t-27 109l213 16q2 -35 15.5 -58.5t34 -32.5t34.5 -12t30 -3q53 0 89 38.5t36 90.5q0 57 -35.5 88.5t-101.5 31.5
q-47 0 -123 -28z" />
    </font>
</defs>
</svg>
