<?xml version="1.0" encoding="utf-8"?>
<!-- Generator: Adobe Illustrator 16.0.0, SVG Export Plug-In . SVG Version: 6.00 Build 0)  -->
<!DOCTYPE svg PUBLIC "-//W3C//DTD SVG 1.1//EN" "http://www.w3.org/Graphics/SVG/1.1/DTD/svg11.dtd">
<svg version="1.1" id="Layer_1" xmlns="http://www.w3.org/2000/svg" xmlns:xlink="http://www.w3.org/1999/xlink" x="0px" y="0px"
	 width="50.334px" height="50.334px" viewBox="0 0 50.334 50.334" enable-background="new 0 0 50.334 50.334" xml:space="preserve">
<linearGradient id="SVGID_1_" gradientUnits="userSpaceOnUse" x1="14.416" y1="26.167" x2="35.9189" y2="26.167" gradientTransform="matrix(1 0 0 -1 0 51.334)">
	<stop  offset="0.2809" style="stop-color:#FF7A41"/>
	<stop  offset="0.6685" style="stop-color:#FF4375"/>
	<stop  offset="0.8876" style="stop-color:#FF1D72"/>
	<stop  offset="1" style="stop-color:#FF006F"/>
</linearGradient>
<path fill="url(#SVGID_1_)" d="M30.3,31.676H19.917l-2.092,6.818h-3.409l8.64-26.654h4.261l8.602,26.654h-3.564L30.3,31.676z
	 M29.448,28.925l-4.34-14.296L20.77,28.925H29.448z"/>
<radialGradient id="SVGID_2_" cx="-16.1807" cy="45.5488" r="269.6227" gradientTransform="matrix(1 0 0 -1 0 51.334)" gradientUnits="userSpaceOnUse">
	<stop  offset="0" style="stop-color:#ED1C24"/>
	<stop  offset="0.5274" style="stop-color:#F58220"/>
	<stop  offset="1" style="stop-color:#ED1C24"/>
</radialGradient>
<path fill="url(#SVGID_2_)" d="M-112.159,24.088c0,6.083-4.378,8.562-10.228,8.562h-3.487v9.918h-3.332V15.914h6.819
	C-116.033,15.914-112.159,18.51-112.159,24.088z M-115.723,24.127c0-4.106-2.596-5.579-6.702-5.579h-3.448v11.428h3.371
	C-118.435,29.978-115.723,28.737-115.723,24.127z"/>
<radialGradient id="SVGID_3_" cx="-15.4619" cy="45.6455" r="269.627" gradientTransform="matrix(1 0 0 -1 0 51.334)" gradientUnits="userSpaceOnUse">
	<stop  offset="0" style="stop-color:#ED1C24"/>
	<stop  offset="0.5274" style="stop-color:#F58220"/>
	<stop  offset="1" style="stop-color:#ED1C24"/>
</radialGradient>
<path fill="url(#SVGID_3_)" d="M-44.339,17.946l-1.82,2.17c-1.705-1.355-3.293-1.976-5.23-1.976c-4.184,0-7.632,2.828-7.632,11.001
	c0,7.787,3.332,10.926,7.593,10.926c2.557,0,4.184-1.086,5.695-2.248l1.705,2.171c-1.472,1.512-3.991,2.944-7.516,2.944
	c-6.393,0-11.042-4.844-11.042-13.793c0-9.065,4.959-13.792,11.003-13.792C-48.29,15.35-46.431,16.281-44.339,17.946z"/>
<linearGradient id="SVGID_4_" gradientUnits="userSpaceOnUse" x1="0" y1="26.167" x2="50.334" y2="26.167" gradientTransform="matrix(1 0 0 -1 0 51.334)">
	<stop  offset="0.2809" style="stop-color:#FF7A41"/>
	<stop  offset="0.6685" style="stop-color:#FF4375"/>
	<stop  offset="0.8876" style="stop-color:#FF1D72"/>
	<stop  offset="1" style="stop-color:#FF006F"/>
</linearGradient>
<path fill="url(#SVGID_4_)" d="M50.334,50.334H0V0h50.334V50.334z M5,45.334h40.334V5H5V45.334z"/>
</svg>
