<?xml version="1.0" encoding="utf-8"?>
<!-- Generator: Adobe Illustrator 16.0.0, SVG Export Plug-In . SVG Version: 6.00 Build 0)  -->
<!DOCTYPE svg PUBLIC "-//W3C//DTD SVG 1.1//EN" "http://www.w3.org/Graphics/SVG/1.1/DTD/svg11.dtd">
<svg version="1.1" id="Layer_1" xmlns="http://www.w3.org/2000/svg" xmlns:xlink="http://www.w3.org/1999/xlink" x="0px" y="0px"
	 width="1600px" height="410.818px" viewBox="0 0 1600 410.818" enable-background="new 0 0 1600 410.818" xml:space="preserve">
<g>
	<linearGradient id="SVGID_1_" gradientUnits="userSpaceOnUse" x1="1291.042" y1="839.1406" x2="742.3503" y2="137.0519">
		<stop  offset="0" style="stop-color:#9FBCBF"/>
		<stop  offset="0.5323" style="stop-color:#566273"/>
		<stop  offset="1" style="stop-color:#1F2640"/>
	</linearGradient>
	<rect y="10.818" fill="url(#SVGID_1_)" width="1600" height="400"/>
	<linearGradient id="SVGID_2_" gradientUnits="userSpaceOnUse" x1="1140.8379" y1="698.0381" x2="-279.0948" y2="-310.6863">
		<stop  offset="0" style="stop-color:#9FBCBF"/>
		<stop  offset="0.5323" style="stop-color:#566273"/>
		<stop  offset="1" style="stop-color:#1F2640"/>
	</linearGradient>
	<path opacity="0.4" fill="url(#SVGID_2_)" d="M910.005,10.818H0v400h732C838.238,301.09,716.298,99.263,910.005,10.818z"/>
</g>
<g>
	<g>
		<g>
			<g>
				<path fill="#FFFFFF" d="M1657.675-56.573c0,2.903-1.503,4.533-3.705,4.533c-2.19,0-3.705-1.579-3.705-4.52
					c0-2.89,1.515-4.558,3.705-4.558C1656.172-61.118,1657.675-59.526,1657.675-56.573z M1651.551-56.56
					c0,2.534,0.993,3.527,2.419,3.527c1.478,0,2.419-0.993,2.419-3.54c0-2.521-0.916-3.552-2.419-3.552
					C1652.506-60.125,1651.551-59.093,1651.551-56.56z"/>
				<path fill="#FFFFFF" d="M1670.895-52.193h-1.617l-3.564-7.448c0.063,0.726,0.165,1.795,0.165,3.425v4.023h-1.133v-8.772h1.578
					l3.603,7.46c-0.024-0.204-0.165-1.604-0.165-2.673v-4.787h1.134V-52.193z"/>
				<path fill="#FFFFFF" d="M1679.746-53.25h3.604l-0.14,1.057h-4.673v-8.772h1.209V-53.25z"/>
				<path fill="#FFFFFF" d="M1691.183-52.193h-1.209v-8.772h1.209V-52.193z"/>
				<path fill="#FFFFFF" d="M1704.974-52.193h-1.616l-3.564-7.448c0.063,0.726,0.165,1.795,0.165,3.425v4.023h-1.134v-8.772h1.579
					l3.603,7.46c-0.025-0.204-0.165-1.604-0.165-2.673v-4.787h1.133V-52.193z"/>
				<path fill="#FFFFFF" d="M1717.227-59.998h-3.4v2.865h2.954v0.968h-2.954v3.004h3.642v0.968h-4.851v-8.772h4.748L1717.227-59.998
					z"/>
				<path fill="#FFFFFF" d="M1738.711-58.253c0,2.011-1.465,2.839-3.4,2.839h-1.107v3.221h-1.209v-8.772h2.304
					C1737.412-60.965,1738.711-60.099,1738.711-58.253z M1737.424-58.24c0-1.312-0.84-1.783-2.139-1.783h-1.082v3.654h1.057
					C1736.559-56.369,1737.424-56.751,1737.424-58.24z"/>
				<path fill="#FFFFFF" d="M1752.323-56.573c0,2.903-1.503,4.533-3.704,4.533c-2.189,0-3.705-1.579-3.705-4.52
					c0-2.89,1.516-4.558,3.705-4.558C1750.82-61.118,1752.323-59.526,1752.323-56.573z M1746.2-56.56
					c0,2.534,0.993,3.527,2.419,3.527c1.477,0,2.419-0.993,2.419-3.54c0-2.521-0.917-3.552-2.419-3.552
					C1747.155-60.125,1746.2-59.093,1746.2-56.56z"/>
				<path fill="#FFFFFF" d="M1761.966-55.911h-1.362v3.718h-1.21v-8.772h2.305c2.19,0,3.335,0.84,3.335,2.482
					c0,1.235-0.636,1.973-1.896,2.355l2.368,3.934h-1.438L1761.966-55.911z M1761.825-56.84c1.223,0,1.923-0.458,1.923-1.643
					c0-1.095-0.624-1.541-2.063-1.541h-1.082v3.183H1761.825z"/>
				<path fill="#FFFFFF" d="M1777.12-59.934h-2.432v7.741h-1.21v-7.741h-2.495v-1.031h6.264L1777.12-59.934z"/>
				<path fill="#FFFFFF" d="M1788.264-59.998h-3.311v2.992h2.865v0.955h-2.865v3.858h-1.209v-8.772h4.66L1788.264-59.998z"/>
				<path fill="#FFFFFF" d="M1801.928-56.573c0,2.903-1.502,4.533-3.704,4.533c-2.19,0-3.705-1.579-3.705-4.52
					c0-2.89,1.515-4.558,3.705-4.558C1800.426-61.118,1801.928-59.526,1801.928-56.573z M1795.804-56.56
					c0,2.534,0.994,3.527,2.42,3.527c1.477,0,2.419-0.993,2.419-3.54c0-2.521-0.917-3.552-2.419-3.552
					C1796.76-60.125,1795.804-59.093,1795.804-56.56z"/>
				<path fill="#FFFFFF" d="M1810.208-53.25h3.603l-0.141,1.057h-4.672v-8.772h1.21V-53.25z"/>
				<path fill="#FFFFFF" d="M1821.644-52.193h-1.21v-8.772h1.21V-52.193z"/>
				<path fill="#FFFFFF" d="M1836.122-56.573c0,2.903-1.502,4.533-3.704,4.533c-2.19,0-3.705-1.579-3.705-4.52
					c0-2.89,1.515-4.558,3.705-4.558C1834.62-61.118,1836.122-59.526,1836.122-56.573z M1829.998-56.56
					c0,2.534,0.994,3.527,2.42,3.527c1.477,0,2.419-0.993,2.419-3.54c0-2.521-0.917-3.552-2.419-3.552
					C1830.954-60.125,1829.998-59.093,1829.998-56.56z"/>
			</g>
			<g>
				<rect x="1842.976" y="-56.892" fill="#FFFFFF" width="5.298" height="0.625"/>
			</g>
			<g>
				<rect x="1638.113" y="-56.892" fill="#FFFFFF" width="5.297" height="0.625"/>
			</g>
		</g>
		<g>
			<path fill="#FFFFFF" d="M1835.102-126.241h-7.271c-8.869,15.332-25.447,25.647-44.432,25.647h-26.459h-12.018h-78.424
				l-7.007,12.824h123.907c26.293,0,48.889-15.825,58.783-38.471H1835.102z"/>
			<polygon fill="#FFFFFF" points="1724.367,-203.185 1731.373,-216.008 1724.036,-216.008 1716.761,-216.008 1652.22,-216.008 
				1644.205,-203.185 1709.752,-203.185 1653.699,-100.594 1646.692,-87.771 1661.305,-87.771 1668.312,-100.594 1721.53,-197.994 
							"/>
			<path fill="#FFFFFF" d="M1783.398-216.008c-0.512,0-1.021,0.006-1.527,0.019c0.001,0,0.003,0,0.006,0
				c-0.385,0.009-0.768,0.024-1.148,0.04c-0.002,0-0.002,0-0.002,0c-0.004,0-0.006,0.001-0.01,0.001
				c-0.557,0.022-1.111,0.052-1.665,0.09c-0.01,0-0.021,0-0.032,0.001h0.001c-33.37,2.251-59.742,30.027-59.742,63.969
				c0,12.432,3.538,24.037,9.664,33.864c0,0,0-0.001-0.001-0.001c0.003,0.005,0.007,0.008,0.008,0.013
				c0.364,0.583,0.739,1.161,1.121,1.732c0.076,0.113,0.155,0.224,0.231,0.336c0.308,0.454,0.62,0.904,0.939,1.349
				c0.037,0.054,0.074,0.109,0.112,0.162c0.173,0.242,0.351,0.48,0.528,0.718c0.129,0.175,0.26,0.35,0.393,0.523
				c0.239,0.316,0.482,0.63,0.727,0.941c0.128,0.161,0.253,0.321,0.383,0.48c0.256,0.319,0.514,0.636,0.776,0.949
				c0.122,0.148,0.248,0.295,0.372,0.441c0.27,0.317,0.541,0.631,0.816,0.942c0.128,0.144,0.257,0.288,0.386,0.431
				c0.291,0.325,0.588,0.647,0.886,0.966c0.101,0.107,0.202,0.214,0.303,0.32c0.31,0.325,0.62,0.646,0.936,0.963
				c0.122,0.124,0.246,0.248,0.37,0.371c0.338,0.335,0.678,0.668,1.022,0.995c0.064,0.061,0.129,0.123,0.193,0.183
				c0.354,0.333,0.712,0.661,1.072,0.987c0.116,0.103,0.231,0.207,0.35,0.311c0.382,0.34,0.769,0.676,1.158,1.007
				c0.028,0.024,0.057,0.047,0.085,0.071c0.396,0.334,0.799,0.663,1.205,0.988c0.109,0.087,0.219,0.175,0.329,0.263
				c0.421,0.334,0.847,0.665,1.278,0.988h12.018h26.459c-0.51,0-1.014-0.009-1.52-0.024c-0.157-0.005-0.311-0.012-0.47-0.018
				c-0.354-0.014-0.708-0.03-1.06-0.05c-0.172-0.011-0.344-0.021-0.514-0.033c-0.361-0.024-0.719-0.054-1.076-0.086
				c-0.143-0.012-0.288-0.024-0.432-0.038c-0.498-0.049-0.996-0.103-1.488-0.166c-0.025-0.003-0.048-0.007-0.07-0.01
				c-0.471-0.062-0.938-0.129-1.404-0.203c-0.143-0.022-0.283-0.047-0.424-0.07c-0.356-0.059-0.711-0.121-1.064-0.188
				c-0.15-0.028-0.301-0.056-0.449-0.086c-0.373-0.075-0.748-0.152-1.117-0.233c-0.111-0.024-0.223-0.048-0.331-0.073
				c-0.491-0.11-0.978-0.228-1.462-0.354c-0.013-0.003-0.025-0.007-0.041-0.011c-0.461-0.12-0.921-0.247-1.377-0.379
				c-0.115-0.034-0.231-0.069-0.348-0.104c-0.365-0.108-0.727-0.221-1.088-0.337c-0.12-0.039-0.24-0.078-0.361-0.117
				c-0.396-0.13-0.789-0.266-1.181-0.406c-0.067-0.024-0.134-0.047-0.202-0.071c-0.938-0.339-1.861-0.707-2.771-1.099
				c-0.094-0.04-0.186-0.08-0.278-0.121c-0.366-0.161-0.73-0.324-1.093-0.493c-0.092-0.044-0.187-0.087-0.279-0.131
				c-0.41-0.194-0.818-0.393-1.222-0.598c-0.028-0.014-0.056-0.027-0.085-0.041c-0.457-0.233-0.912-0.472-1.361-0.719l0.002,0.002
				c-2.91-1.591-5.648-3.455-8.182-5.558l0,0c-11.332-9.409-18.548-23.602-18.548-39.481c0-28.33,22.964-51.297,51.296-51.297
				c15.895,0,30.102,7.234,39.51,18.587c0.107,0.13,0.213,0.263,0.32,0.394c0.209,0.256,0.414,0.514,0.617,0.774
				c0.094,0.121,0.188,0.24,0.283,0.361c0.27,0.352,0.531,0.706,0.793,1.063c0.086,0.12,0.172,0.242,0.258,0.361
				c0.23,0.322,0.457,0.646,0.678,0.974c0.049,0.072,0.1,0.144,0.148,0.217c0.264,0.392,0.52,0.788,0.773,1.188
				c0.064,0.102,0.129,0.205,0.193,0.307c0.258,0.415,0.51,0.83,0.754,1.251h2.986h4.303h7.09
				C1832.172-200.263,1809.625-216.008,1783.398-216.008z"/>
		</g>
	</g>
</g>
<text transform="matrix(1 0 0 1 -615.0298 867)" font-family="'OpenSans-Semibold'" font-size="43.5001" letter-spacing="17">PORTFOLIO</text>
<path fill="#FFFFFF" d="M1179.571-198.86"/>
<linearGradient id="SVGID_3_" gradientUnits="userSpaceOnUse" x1="987.5811" y1="-153.8618" x2="987.5811" y2="-153.8618">
	<stop  offset="0" style="stop-color:#9FBCBF"/>
	<stop  offset="0.5323" style="stop-color:#566273"/>
	<stop  offset="1" style="stop-color:#1F2640"/>
</linearGradient>
<path fill="url(#SVGID_3_)" d="M987.581-153.862"/>
<linearGradient id="SVGID_4_" gradientUnits="userSpaceOnUse" x1="800.0005" y1="28.7769" x2="800.0005" y2="-1.3719">
	<stop  offset="0" style="stop-color:#9FBCBF;stop-opacity:0"/>
	<stop  offset="0.5323" style="stop-color:#566273"/>
	<stop  offset="1" style="stop-color:#1F2640"/>
</linearGradient>
<rect y="2.555" opacity="0.3" fill="url(#SVGID_4_)" width="1600" height="8.263"/>
</svg>
