<?xml version="1.0" encoding="utf-8"?>
<!-- Generator: Adobe Illustrator 16.0.0, SVG Export Plug-In . SVG Version: 6.00 Build 0)  -->
<!DOCTYPE svg PUBLIC "-//W3C//DTD SVG 1.1//EN" "http://www.w3.org/Graphics/SVG/1.1/DTD/svg11.dtd">
<svg version="1.1" id="Layer_1" xmlns="http://www.w3.org/2000/svg" xmlns:xlink="http://www.w3.org/1999/xlink" x="0px" y="0px"
	 width="1170px" height="400px" viewBox="0 0 1170 400" enable-background="new 0 0 1170 400" xml:space="preserve">
<radialGradient id="SVGID_1_" cx="-1193.6006" cy="178.8867" r="659.9288" gradientUnits="userSpaceOnUse">
	<stop  offset="0" style="stop-color:#74C7A8"/>
	<stop  offset="0.1446" style="stop-color:#73C1A4"/>
	<stop  offset="0.2916" style="stop-color:#6FB59D"/>
	<stop  offset="0.4398" style="stop-color:#6AA393"/>
	<stop  offset="0.5889" style="stop-color:#628C85"/>
	<stop  offset="0.7386" style="stop-color:#597174"/>
	<stop  offset="0.8868" style="stop-color:#4D5360"/>
	<stop  offset="1" style="stop-color:#443B51"/>
</radialGradient>
<rect x="-1764.177" y="33.003" fill="url(#SVGID_1_)" width="1170" height="400"/>
<g opacity="0.2">
	<g>
		<g>
			<path fill="#FFFFFF" d="M441.796,350.823c0,5.484-2.838,8.563-7,8.563c-4.137,0-7-2.982-7-8.54c0-5.458,2.863-8.611,7-8.611
				C438.958,342.234,441.796,345.241,441.796,350.823z M430.227,350.846c0,4.786,1.877,6.666,4.569,6.666
				c2.792,0,4.572-1.88,4.572-6.688c0-4.762-1.73-6.71-4.572-6.71C432.031,344.113,430.227,346.062,430.227,350.846z"/>
			<path fill="#FFFFFF" d="M466.773,359.099h-3.054l-6.734-14.072c0.117,1.369,0.31,3.393,0.31,6.469v7.604h-2.141v-16.574h2.983
				l6.805,14.096c-0.044-0.385-0.31-3.031-0.31-5.05v-9.046h2.141V359.099z"/>
			<path fill="#FFFFFF" d="M483.498,357.102h6.81l-0.266,1.997h-8.826v-16.574h2.282V357.102z"/>
			<path fill="#FFFFFF" d="M505.106,359.099h-2.285v-16.574h2.285V359.099z"/>
			<path fill="#FFFFFF" d="M531.162,359.099h-3.054l-6.734-14.072c0.12,1.369,0.312,3.393,0.312,6.469v7.604h-2.143v-16.574h2.985
				l6.806,14.096c-0.047-0.385-0.311-3.031-0.311-5.05v-9.046h2.139V359.099z"/>
			<path fill="#FFFFFF" d="M554.313,344.353h-6.424v5.414h5.582v1.826h-5.582v5.677h6.88v1.829h-9.166v-16.574h8.973
				L554.313,344.353z"/>
			<path fill="#FFFFFF" d="M594.906,347.646c0,3.803-2.768,5.367-6.424,5.367h-2.092v6.086h-2.285v-16.574h4.352
				C592.453,342.524,594.906,344.16,594.906,347.646z M592.473,347.673c0-2.48-1.587-3.369-4.04-3.369h-2.043v6.905h1.994
				C590.839,351.209,592.473,350.486,592.473,347.673z"/>
			<path fill="#FFFFFF" d="M620.625,350.823c0,5.484-2.841,8.563-7,8.563c-4.135,0-7-2.982-7-8.54c0-5.458,2.865-8.611,7-8.611
				C617.784,342.234,620.625,345.241,620.625,350.823z M609.055,350.846c0,4.786,1.877,6.666,4.569,6.666
				c2.792,0,4.572-1.88,4.572-6.688c0-4.762-1.733-6.71-4.572-6.71C610.861,344.113,609.055,346.062,609.055,350.846z"/>
			<path fill="#FFFFFF" d="M638.843,352.073h-2.573v7.025h-2.287v-16.574h4.354c4.14,0,6.3,1.589,6.3,4.691
				c0,2.331-1.201,3.728-3.583,4.45l4.474,7.433h-2.717L638.843,352.073z M638.577,350.318c2.312,0,3.632-0.866,3.632-3.103
				c0-2.069-1.177-2.912-3.896-2.912h-2.043v6.015H638.577z"/>
			<path fill="#FFFFFF" d="M667.476,344.47h-4.596v14.629h-2.285V344.47h-4.716v-1.945h11.836L667.476,344.47z"/>
			<path fill="#FFFFFF" d="M688.53,344.353h-6.256v5.653h5.414v1.804h-5.414v7.289h-2.285v-16.574h8.807L688.53,344.353z"/>
			<path fill="#FFFFFF" d="M714.347,350.823c0,5.484-2.839,8.563-6.999,8.563c-4.139,0-7-2.982-7-8.54c0-5.458,2.861-8.611,7-8.611
				C711.508,342.234,714.347,345.241,714.347,350.823z M702.775,350.846c0,4.786,1.879,6.666,4.574,6.666
				c2.788,0,4.57-1.88,4.57-6.688c0-4.762-1.733-6.71-4.57-6.71C704.581,344.113,702.775,346.062,702.775,350.846z"/>
			<path fill="#FFFFFF" d="M729.99,357.102h6.808l-0.266,1.997h-8.827v-16.574h2.285V357.102z"/>
			<path fill="#FFFFFF" d="M751.598,359.099h-2.287v-16.574h2.287V359.099z"/>
			<path fill="#FFFFFF" d="M778.953,350.823c0,5.484-2.838,8.563-7,8.563c-4.138,0-6.999-2.982-6.999-8.54
				c0-5.458,2.861-8.611,6.999-8.611C776.114,342.234,778.953,345.241,778.953,350.823z M767.381,350.846
				c0,4.786,1.879,6.666,4.572,6.666c2.79,0,4.571-1.88,4.571-6.688c0-4.762-1.733-6.71-4.571-6.71
				C769.189,344.113,767.381,346.062,767.381,350.846z"/>
		</g>
		<g>
			<rect x="791.901" y="350.219" fill="#FFFFFF" width="10.01" height="1.181"/>
		</g>
		<g>
			<rect x="404.838" y="350.219" fill="#FFFFFF" width="10.01" height="1.181"/>
		</g>
	</g>
	<g>
		<path fill="#FFFFFF" d="M777.022,219.192h-13.737c-16.758,28.968-48.079,48.458-83.947,48.458h-49.994H606.64H458.468
			l-13.239,24.229h234.109c49.676,0,92.368-29.899,111.063-72.686H777.022z"/>
		<polygon fill="#FFFFFF" points="567.804,73.816 581.04,49.589 567.179,49.589 553.433,49.589 431.49,49.589 416.348,73.816 
			540.19,73.816 434.287,267.649 421.048,291.878 448.655,291.878 461.894,267.649 562.445,83.625 		"/>
		<path fill="#FFFFFF" d="M679.338,49.589c-0.968,0-1.928,0.011-2.888,0.036c0.002,0,0.007,0,0.011,0
			c-0.727,0.018-1.449,0.046-2.169,0.075c-0.002,0-0.002,0-0.002,0c-0.009,0-0.011,0.002-0.02,0.002
			c-1.051,0.04-2.101,0.097-3.145,0.168c-0.02,0-0.042,0-0.063,0.005h0.002c-63.05,4.252-112.877,56.732-112.877,120.861
			c0,23.488,6.686,45.415,18.26,63.981c0,0,0-0.002-0.002-0.002c0.007,0.011,0.013,0.015,0.016,0.026
			c0.689,1.102,1.396,2.192,2.119,3.273c0.144,0.213,0.292,0.423,0.437,0.634c0.583,0.86,1.172,1.711,1.775,2.551
			c0.071,0.102,0.14,0.204,0.213,0.304c0.326,0.457,0.663,0.906,0.997,1.356c0.244,0.333,0.492,0.661,0.742,0.991
			c0.452,0.598,0.911,1.19,1.374,1.779c0.242,0.302,0.477,0.603,0.723,0.906c0.483,0.603,0.97,1.201,1.467,1.795
			c0.23,0.277,0.468,0.556,0.703,0.831c0.509,0.599,1.021,1.195,1.542,1.78c0.242,0.275,0.485,0.545,0.729,0.815
			c0.55,0.614,1.11,1.223,1.673,1.826c0.19,0.204,0.381,0.403,0.572,0.603c0.585,0.618,1.172,1.221,1.769,1.819
			c0.23,0.235,0.465,0.47,0.7,0.7c0.638,0.636,1.281,1.263,1.93,1.881c0.122,0.115,0.244,0.23,0.366,0.344
			c0.669,0.631,1.345,1.25,2.025,1.868c0.219,0.192,0.438,0.39,0.66,0.585c0.723,0.643,1.454,1.278,2.189,1.903
			c0.053,0.044,0.106,0.089,0.16,0.133c0.749,0.634,1.509,1.254,2.278,1.866c0.206,0.166,0.412,0.333,0.621,0.499
			c0.795,0.631,1.6,1.254,2.416,1.866h22.705h49.994c-0.964,0-1.917-0.015-2.872-0.046c-0.297-0.006-0.587-0.022-0.889-0.033
			c-0.667-0.026-1.336-0.055-2.001-0.095c-0.326-0.02-0.649-0.04-0.971-0.062c-0.683-0.044-1.358-0.102-2.032-0.162
			c-0.27-0.024-0.545-0.047-0.817-0.071c-0.94-0.093-1.881-0.197-2.81-0.314c-0.049-0.007-0.091-0.016-0.133-0.02
			c-0.891-0.115-1.773-0.242-2.655-0.383c-0.268-0.038-0.534-0.086-0.8-0.131c-0.673-0.111-1.343-0.228-2.01-0.356
			c-0.286-0.051-0.569-0.104-0.851-0.16c-0.705-0.142-1.412-0.291-2.109-0.441c-0.21-0.049-0.421-0.093-0.625-0.138
			c-0.929-0.208-1.848-0.43-2.763-0.669c-0.024-0.005-0.049-0.011-0.078-0.02c-0.871-0.226-1.74-0.468-2.602-0.716
			c-0.217-0.066-0.437-0.133-0.656-0.195c-0.691-0.207-1.372-0.419-2.056-0.639c-0.226-0.075-0.452-0.148-0.683-0.222
			c-0.747-0.248-1.492-0.5-2.229-0.767c-0.128-0.044-0.252-0.091-0.383-0.133c-1.771-0.643-3.517-1.336-5.234-2.079
			c-0.179-0.076-0.352-0.151-0.527-0.228c-0.691-0.304-1.38-0.614-2.065-0.931c-0.173-0.082-0.352-0.164-0.527-0.246
			c-0.773-0.368-1.547-0.743-2.307-1.13c-0.056-0.027-0.106-0.051-0.162-0.078c-0.864-0.441-1.722-0.893-2.573-1.358l0.004,0.004
			c-5.498-3.009-10.672-6.528-15.459-10.501l0,0c-21.409-17.777-35.042-44.593-35.042-74.594c0-53.528,43.387-96.92,96.917-96.92
			c30.029,0,56.872,13.669,74.649,35.118c0.202,0.248,0.401,0.496,0.605,0.745c0.394,0.485,0.782,0.973,1.166,1.465
			c0.177,0.228,0.354,0.452,0.534,0.682c0.509,0.663,1.004,1.334,1.498,2.008c0.164,0.226,0.326,0.457,0.487,0.683
			c0.437,0.607,0.864,1.221,1.281,1.839c0.093,0.135,0.188,0.272,0.282,0.41c0.499,0.74,0.979,1.487,1.46,2.245
			c0.122,0.193,0.244,0.385,0.366,0.578c0.488,0.782,0.964,1.569,1.425,2.365h5.642h8.128h13.396
			C771.489,79.337,728.889,49.589,679.338,49.589z"/>
	</g>
</g>
<radialGradient id="SVGID_2_" cx="589.6982" cy="-152.2373" r="538.9845" gradientUnits="userSpaceOnUse">
	<stop  offset="0.0049" style="stop-color:#EF4136;stop-opacity:0.9"/>
	<stop  offset="1" style="stop-color:#FFFFFF"/>
</radialGradient>
<circle fill="url(#SVGID_2_)" cx="585" cy="352.223" r="312.222"/>
</svg>
