<?xml version="1.0" encoding="utf-8"?>
<!-- Generator: Adobe Illustrator 16.0.0, SVG Export Plug-In . SVG Version: 6.00 Build 0)  -->
<!DOCTYPE svg PUBLIC "-//W3C//DTD SVG 1.1//EN" "http://www.w3.org/Graphics/SVG/1.1/DTD/svg11.dtd">
<svg version="1.1" id="Layer_1" xmlns="http://www.w3.org/2000/svg" xmlns:xlink="http://www.w3.org/1999/xlink" x="0px" y="0px"
	 width="50.334px" height="50.334px" viewBox="0 0 50.334 50.334" enable-background="new 0 0 50.334 50.334" xml:space="preserve">
<radialGradient id="SVGID_1_" cx="173.3271" cy="-28.7017" r="269.6216" gradientTransform="matrix(1 0 0 -1 0 51.334)" gradientUnits="userSpaceOnUse">
	<stop  offset="0" style="stop-color:#ED1C24"/>
	<stop  offset="0.5274" style="stop-color:#F58220"/>
	<stop  offset="1" style="stop-color:#ED1C24"/>
</radialGradient>
<path fill="url(#SVGID_1_)" d="M5.133,110H-5.25l-2.092,6.817h-3.409l8.64-26.653H2.15l8.601,26.653H7.187L5.133,110z
	 M4.281,107.249l-4.34-14.296l-4.339,14.296H4.281z"/>
<radialGradient id="SVGID_2_" cx="75.668" cy="-5.3765" r="269.622" gradientTransform="matrix(1 0 0 -1 0 51.334)" gradientUnits="userSpaceOnUse">
	<stop  offset="0" style="stop-color:#ED1C24"/>
	<stop  offset="0.5274" style="stop-color:#F58220"/>
	<stop  offset="1" style="stop-color:#ED1C24"/>
</radialGradient>
<path fill="url(#SVGID_2_)" d="M-20.31,75.015c0,6.082-4.378,8.563-10.229,8.563h-3.486v9.918h-3.332V66.84h6.818
	C-24.185,66.84-20.31,69.437-20.31,75.015z M-23.874,75.053c0-4.106-2.596-5.579-6.702-5.579h-3.448v11.43h3.371
	C-26.586,80.901-23.874,79.662-23.874,75.053z"/>
<linearGradient id="SVGID_3_" gradientUnits="userSpaceOnUse" x1="-41.333" y1="26.167" x2="116.6702" y2="26.167" gradientTransform="matrix(1 0 0 -1 0 51.334)">
	<stop  offset="0.2809" style="stop-color:#FF7A41"/>
	<stop  offset="0.6685" style="stop-color:#FF4375"/>
	<stop  offset="0.8876" style="stop-color:#FF1D72"/>
	<stop  offset="1" style="stop-color:#FF006F"/>
</linearGradient>
<path fill="url(#SVGID_3_)" d="M33.136,13.97l-1.82,2.17c-1.705-1.355-3.293-1.976-5.229-1.976c-4.185,0-7.633,2.828-7.633,11.003
	c0,7.787,3.332,10.926,7.594,10.926c2.558,0,4.185-1.086,5.695-2.248l1.704,2.17c-1.473,1.512-3.99,2.945-7.516,2.945
	c-6.394,0-11.042-4.844-11.042-13.793c0-9.066,4.959-13.793,11.003-13.793C29.185,11.374,31.044,12.305,33.136,13.97z"/>
<g>
	
		<linearGradient id="SVGID_4_" gradientUnits="userSpaceOnUse" x1="-41.333" y1="26.167" x2="116.6702" y2="26.167" gradientTransform="matrix(1 0 0 -1 0 51.334)">
		<stop  offset="0.2809" style="stop-color:#FF7A41"/>
		<stop  offset="0.6685" style="stop-color:#FF4375"/>
		<stop  offset="0.8876" style="stop-color:#FF1D72"/>
		<stop  offset="1" style="stop-color:#FF006F"/>
	</linearGradient>
	<path fill="url(#SVGID_4_)" d="M50.334,50.334H0V0h50.334V50.334z M5,45.334h40.334V5H5V45.334z"/>
</g>
<linearGradient id="SVGID_5_" gradientUnits="userSpaceOnUse" x1="303.6318" y1="-157.833" x2="395.9648" y2="-157.833" gradientTransform="matrix(1 0 0 -1 0 51.334)">
	<stop  offset="0.2809" style="stop-color:#FF7A41"/>
	<stop  offset="0.6685" style="stop-color:#FF4375"/>
	<stop  offset="0.8876" style="stop-color:#FF1D72"/>
	<stop  offset="1" style="stop-color:#FF006F"/>
</linearGradient>
<rect x="303.632" y="173.729" fill="url(#SVGID_5_)" width="92.333" height="70.875"/>
</svg>
