<?xml version="1.0" encoding="utf-8"?>
<!-- Generator: Adobe Illustrator 16.0.0, SVG Export Plug-In . SVG Version: 6.00 Build 0)  -->
<!DOCTYPE svg PUBLIC "-//W3C//DTD SVG 1.1//EN" "http://www.w3.org/Graphics/SVG/1.1/DTD/svg11.dtd">
<svg version="1.1" id="Layer_1" xmlns="http://www.w3.org/2000/svg" xmlns:xlink="http://www.w3.org/1999/xlink" x="0px" y="0px"
	 width="411.627px" height="129.07px" viewBox="0 0 411.627 129.07" enable-background="new 0 0 411.627 129.07"
	 xml:space="preserve">
<g>
	
		<linearGradient id="SVGID_1_" gradientUnits="userSpaceOnUse" x1="21.3135" y1="65.5144" x2="360.3135" y2="65.5144" gradientTransform="matrix(1 0 0 -1 0 130.0698)">
		<stop  offset="0.2809" style="stop-color:#FF7A41"/>
		<stop  offset="0.6685" style="stop-color:#FF4375"/>
		<stop  offset="0.8876" style="stop-color:#FF1D72"/>
		<stop  offset="1" style="stop-color:#FF006F"/>
	</linearGradient>
	<path fill="url(#SVGID_1_)" d="M90.228,76.545c-4.843,0-8.679-3.834-8.679-12.01c0-8.6,3.952-12.048,8.795-12.048
		c2.247,0,3.719,0.62,5.501,2.015l1.008-1.24c-1.821-1.473-3.604-2.362-6.625-2.362c-5.851,0-10.615,4.533-10.615,13.637
		c0,8.913,4.494,13.676,10.538,13.676c3.177,0,5.385-1.162,7.012-2.672l-1.046-1.24C94.566,75.539,93.017,76.545,90.228,76.545z"/>
	
		<linearGradient id="SVGID_2_" gradientUnits="userSpaceOnUse" x1="21.3135" y1="65.5154" x2="360.3135" y2="65.5154" gradientTransform="matrix(1 0 0 -1 0 130.0698)">
		<stop  offset="0.2809" style="stop-color:#FF7A41"/>
		<stop  offset="0.6685" style="stop-color:#FF4375"/>
		<stop  offset="0.8876" style="stop-color:#FF1D72"/>
		<stop  offset="1" style="stop-color:#FF006F"/>
	</linearGradient>
	<path fill="url(#SVGID_2_)" d="M128.118,50.898c-6.276,0-10.654,4.959-10.654,13.715c0,8.795,4.34,13.598,10.654,13.598
		c6.509,0,10.692-4.959,10.692-13.637C138.811,55.624,134.472,50.898,128.118,50.898z M128.118,76.584
		c-5.152,0-8.717-3.951-8.717-11.971c0-8.174,3.525-12.126,8.717-12.126c5.308,0,8.756,3.913,8.756,12.087
		C136.874,72.633,133.542,76.584,128.118,76.584z"/>
	
		<linearGradient id="SVGID_3_" gradientUnits="userSpaceOnUse" x1="21.3135" y1="65.5349" x2="360.3135" y2="65.5349" gradientTransform="matrix(1 0 0 -1 0 130.0698)">
		<stop  offset="0.2809" style="stop-color:#FF7A41"/>
		<stop  offset="0.6685" style="stop-color:#FF4375"/>
		<stop  offset="0.8876" style="stop-color:#FF1D72"/>
		<stop  offset="1" style="stop-color:#FF006F"/>
	</linearGradient>
	<path fill="url(#SVGID_3_)" d="M178.678,67.984c0,3.485,0.154,6.469,0.232,7.748l-13.134-24.447h-2.363v26.5h1.743V62.017
		c0-4.688-0.116-6.975-0.232-8.679l13.134,24.446h2.363v-26.5h-1.743V67.984z"/>
	
		<linearGradient id="SVGID_4_" gradientUnits="userSpaceOnUse" x1="21.3135" y1="65.5349" x2="360.3135" y2="65.5349" gradientTransform="matrix(1 0 0 -1 0 130.0698)">
		<stop  offset="0.2809" style="stop-color:#FF7A41"/>
		<stop  offset="0.6685" style="stop-color:#FF4375"/>
		<stop  offset="0.8876" style="stop-color:#FF1D72"/>
		<stop  offset="1" style="stop-color:#FF006F"/>
	</linearGradient>
	<polygon fill="url(#SVGID_4_)" points="202.892,52.951 210.833,52.951 210.833,77.785 212.655,77.785 212.655,52.951 
		220.558,52.951 220.79,51.285 202.892,51.285 	"/>
	
		<linearGradient id="SVGID_5_" gradientUnits="userSpaceOnUse" x1="21.3135" y1="65.5349" x2="360.3135" y2="65.5349" gradientTransform="matrix(1 0 0 -1 0 130.0698)">
		<stop  offset="0.2809" style="stop-color:#FF7A41"/>
		<stop  offset="0.6685" style="stop-color:#FF4375"/>
		<stop  offset="0.8876" style="stop-color:#FF1D72"/>
		<stop  offset="1" style="stop-color:#FF006F"/>
	</linearGradient>
	<path fill="url(#SVGID_5_)" d="M246.013,51.285l-8.949,26.5h1.859l2.439-7.438h11.545l2.402,7.438h1.977l-8.949-26.5H246.013
		L246.013,51.285z M241.905,68.719l5.27-15.924l5.191,15.924H241.905z"/>
	
		<linearGradient id="SVGID_6_" gradientUnits="userSpaceOnUse" x1="21.3135" y1="65.5144" x2="360.3135" y2="65.5144" gradientTransform="matrix(1 0 0 -1 0 130.0698)">
		<stop  offset="0.2809" style="stop-color:#FF7A41"/>
		<stop  offset="0.6685" style="stop-color:#FF4375"/>
		<stop  offset="0.8876" style="stop-color:#FF1D72"/>
		<stop  offset="1" style="stop-color:#FF006F"/>
	</linearGradient>
	<path fill="url(#SVGID_6_)" d="M287.661,76.545c-4.844,0-8.68-3.834-8.68-12.01c0-8.6,3.953-12.048,8.795-12.048
		c2.248,0,3.719,0.62,5.502,2.015l1.008-1.24c-1.822-1.473-3.604-2.362-6.625-2.362c-5.852,0-10.615,4.533-10.615,13.637
		c0,8.913,4.494,13.676,10.537,13.676c3.178,0,5.385-1.162,7.012-2.672l-1.045-1.24C291.999,75.539,290.45,76.545,287.661,76.545z"
		/>
	
		<linearGradient id="SVGID_7_" gradientUnits="userSpaceOnUse" x1="21.3135" y1="65.5349" x2="360.3135" y2="65.5349" gradientTransform="matrix(1 0 0 -1 0 130.0698)">
		<stop  offset="0.2809" style="stop-color:#FF7A41"/>
		<stop  offset="0.6685" style="stop-color:#FF4375"/>
		<stop  offset="0.8876" style="stop-color:#FF1D72"/>
		<stop  offset="1" style="stop-color:#FF006F"/>
	</linearGradient>
	<polygon fill="url(#SVGID_7_)" points="313.04,50.785 313.04,53.451 320.983,53.451 320.983,78.285 323.804,78.285 323.804,53.451 
		331.642,53.451 332.015,50.785 	"/>
</g>
<g>
	
		<linearGradient id="SVGID_8_" gradientUnits="userSpaceOnUse" x1="285.335" y1="65.5349" x2="667.3311" y2="65.5349" gradientTransform="matrix(0.7717 0 0 -1 -161.7731 130.0698)">
		<stop  offset="0.2809" style="stop-color:#FF7A41"/>
		<stop  offset="0.6685" style="stop-color:#FF4375"/>
		<stop  offset="0.8876" style="stop-color:#FF1D72"/>
		<stop  offset="1" style="stop-color:#FF006F"/>
	</linearGradient>
	<path fill="url(#SVGID_8_)" d="M353.206,97.976H58.42V31.094h294.786V97.976z M62.278,92.976h287.07V36.094H62.278V92.976z"/>
</g>
<linearGradient id="SVGID_9_" gradientUnits="userSpaceOnUse" x1="156.7256" y1="-94.0081" x2="249.0586" y2="-94.0081">
	<stop  offset="0.2809" style="stop-color:#FF7A41"/>
	<stop  offset="0.6685" style="stop-color:#FF4375"/>
	<stop  offset="0.8876" style="stop-color:#FF1D72"/>
	<stop  offset="1" style="stop-color:#FF006F"/>
</linearGradient>
<rect x="156.726" y="-129.446" fill="url(#SVGID_9_)" width="92.333" height="70.875"/>
</svg>
