<?xml version="1.0" encoding="utf-8"?>
<!-- Generator: Adobe Illustrator 16.0.0, SVG Export Plug-In . SVG Version: 6.00 Build 0)  -->
<!DOCTYPE svg PUBLIC "-//W3C//DTD SVG 1.1//EN" "http://www.w3.org/Graphics/SVG/1.1/DTD/svg11.dtd">
<svg version="1.1" id="Layer_1" xmlns="http://www.w3.org/2000/svg" xmlns:xlink="http://www.w3.org/1999/xlink" x="0px" y="0px"
	 width="264.092px" height="324.847px" viewBox="0 0 264.092 324.847" enable-background="new 0 0 264.092 324.847"
	 xml:space="preserve">
<g>
	<g>
		<g>
			<linearGradient id="SVGID_1_" gradientUnits="userSpaceOnUse" x1="167.1709" y1="298.7598" x2="161.4261" y2="268.8867">
				<stop  offset="0" style="stop-color:#FFFFFF"/>
				<stop  offset="1" style="stop-color:#D1D3D4"/>
			</linearGradient>
			<path fill="url(#SVGID_1_)" d="M158.824,287.748c-1.991-16.932-5.761-31.477-7.898-33.939c0.234,0.27,2.841-11.982,2.841-11.982
				c7.689,0,11.075,9.365,13.588,19.486c2.062,8.302,3.626,18.314,4.402,24.914L158.824,287.748z"/>
		</g>
	</g>
	<g>
		<g>
			
				<linearGradient id="SVGID_2_" gradientUnits="userSpaceOnUse" x1="-5052.7969" y1="309.5918" x2="-5052.7969" y2="256.7398" gradientTransform="matrix(-1 0 0 1 -4943.0928 0)">
				<stop  offset="0" style="stop-color:#FFFFFF"/>
				<stop  offset="1" style="stop-color:#D1D3D4"/>
			</linearGradient>
			<path fill="url(#SVGID_2_)" d="M112.221,290.117c1.991-16.932,5.761-31.477,7.898-33.939c-0.234,0.27-2.841-11.982-2.841-11.982
				c-7.689,0-11.075,9.365-13.588,19.485c-2.062,8.302-3.626,18.314-4.402,24.915L112.221,290.117z"/>
		</g>
	</g>
	<linearGradient id="SVGID_3_" gradientUnits="userSpaceOnUse" x1="132.3301" y1="130.2642" x2="132.3301" y2="194.3536">
		<stop  offset="0" style="stop-color:#FFFFFF"/>
		<stop  offset="1" style="stop-color:#D1D3D4"/>
	</linearGradient>
	<path fill="url(#SVGID_3_)" d="M164.385,192.322l-31.517-1.105l-0.538,0.02l-0.539-0.02l-31.517,1.105
		c0,0-9.618,45.787-5.963,57.211c2.25,7.029,19.958,11.529,37.891,11.484l0,0c0.043,0,0.085,0,0.128,0s0.085,0,0.127,0l0,0
		c17.933,0.045,35.642-4.455,37.891-11.484C174.003,238.109,164.385,192.322,164.385,192.322z"/>
	<g>
		<linearGradient id="SVGID_4_" gradientUnits="userSpaceOnUse" x1="88.291" y1="293.6582" x2="89.057" y2="212.0822">
			<stop  offset="0" style="stop-color:#FFFFFF"/>
			<stop  offset="1" style="stop-color:#D1D3D4"/>
		</linearGradient>
		<path fill="url(#SVGID_4_)" d="M86.532,240.035l-12.001-2.483c3.354-16.206,11.578-43.392,28.979-43.392l-4.077,10.692
			C94.454,204.853,91.1,217.964,86.532,240.035z"/>
	</g>
	<g>
		<g>
			
				<linearGradient id="SVGID_5_" gradientUnits="userSpaceOnUse" x1="-4330.6519" y1="1124.8584" x2="-4329.8857" y2="1043.2798" gradientTransform="matrix(-0.934 0.3572 0.3572 0.934 -4244.1899 778.0336)">
				<stop  offset="0" style="stop-color:#FFFFFF"/>
				<stop  offset="1" style="stop-color:#D1D3D4"/>
			</linearGradient>
			<path fill="url(#SVGID_5_)" d="M184.927,231.029l10.323-6.605c-8.923-13.939-26.316-36.394-42.57-30.178l7.629,8.531
				C164.96,200.998,172.776,212.047,184.927,231.029z"/>
		</g>
	</g>
	<linearGradient id="SVGID_6_" gradientUnits="userSpaceOnUse" x1="130.9678" y1="204.5176" x2="130.9678" y2="227.112">
		<stop  offset="0" style="stop-color:#000000"/>
		<stop  offset="1" style="stop-color:#414042"/>
	</linearGradient>
	<path fill="url(#SVGID_6_)" d="M137.485,226.625c-4.284-1.029-8.751-1.029-13.035,0c-1.138-4.737-2.275-9.475-3.412-14.211
		c6.527-1.567,13.332-1.567,19.859,0C139.761,217.15,138.623,221.888,137.485,226.625z"/>
	<linearGradient id="SVGID_7_" gradientUnits="userSpaceOnUse" x1="130.9678" y1="226.6816" x2="130.9678" y2="235.8421">
		<stop  offset="0" style="stop-color:#000000"/>
		<stop  offset="1" style="stop-color:#414042"/>
	</linearGradient>
	<path fill="url(#SVGID_7_)" d="M138.983,229.406c-0.499,2.08-0.999,4.159-1.498,6.238c-4.284-1.029-8.751-1.029-13.035,0
		c-0.499-2.08-0.999-4.158-1.498-6.238"/>
	<linearGradient id="SVGID_8_" gradientUnits="userSpaceOnUse" x1="130.9678" y1="235.6494" x2="130.9678" y2="242.5241">
		<stop  offset="0" style="stop-color:#000000"/>
		<stop  offset="1" style="stop-color:#414042"/>
	</linearGradient>
	<path fill="url(#SVGID_8_)" d="M135.214,242.376c-2.791-0.67-5.701-0.67-8.492,0c-0.324-1.354-0.65-2.709-0.976-4.063
		c3.432-0.824,7.012-0.824,10.443,0C135.864,239.667,135.539,241.021,135.214,242.376z"/>
	<linearGradient id="SVGID_9_" gradientUnits="userSpaceOnUse" x1="192.7285" y1="290.4385" x2="193.6419" y2="193.1643">
		<stop  offset="0" style="stop-color:#000000"/>
		<stop  offset="1" style="stop-color:#414042"/>
	</linearGradient>
	<path fill="url(#SVGID_9_)" d="M207.368,231.027c-2.242-4.412-7.402-7.555-12.486-8.01c-0.456-2.674-0.912-5.348-1.368-8.02
		c-5.95,1.922-11.627,4.922-16.567,8.756c2.146,2.07,4.293,4.141,6.438,6.211c-2.405,6.258-2.452,16.717,4.56,17.989
		c2.236,0.399,2.354-4.402,4.087-4.841c1.753-0.444,11.169,6.453,13.989,5.02C210.081,246.07,210.926,238.027,207.368,231.027z"/>
	
		<linearGradient id="SVGID_10_" gradientUnits="userSpaceOnUse" x1="-4654.1797" y1="965.7588" x2="-4653.2661" y2="868.4832" gradientTransform="matrix(-0.9615 0.2749 0.2749 0.9615 -4645.9395 651.8589)">
		<stop  offset="0" style="stop-color:#000000"/>
		<stop  offset="1" style="stop-color:#414042"/>
	</linearGradient>
	<path fill="url(#SVGID_10_)" d="M63.998,247.764c0.941-4.858,5.039-9.299,9.803-11.135c-0.297-2.695-0.593-5.391-0.889-8.086
		c6.249,0.213,12.531,1.536,18.335,3.863c-1.493,2.58-2.989,5.162-4.482,7.742c4.033,5.355,6.953,15.398,0.562,18.55
		c-2.04,0.999-3.474-3.585-5.26-3.53c-1.809,0.055-8.965,9.274-12.07,8.672C65.525,262.973,62.502,255.472,63.998,247.764z"/>
	<g>
		
			<linearGradient id="SVGID_11_" gradientUnits="userSpaceOnUse" x1="-329.1245" y1="877.7559" x2="-329.1245" y2="932.1582" gradientTransform="matrix(0.9677 -0.2521 0.2521 0.9677 184.1084 -662.6543)">
			<stop  offset="0" style="stop-color:#000000"/>
			<stop  offset="1" style="stop-color:#414042"/>
		</linearGradient>
		<path fill="url(#SVGID_11_)" d="M115.342,299.456c1.17-4.776,2.341-9.554,3.511-14.331c-8.686-2.127-17.75-2.169-26.456-0.121
			c0.832,3.544,1.667,7.088,2.5,10.632c-12.057,2.093-23.404,10.55-22.995,23.325c0.386,12.021,29.639,2.493,35.431-1.113
			c6.08-3.786,14.156-6.432,8.134-18.306C115.442,299.497,115.382,299.486,115.342,299.456z"/>
	</g>
	<g>
		
			<linearGradient id="SVGID_12_" gradientUnits="userSpaceOnUse" x1="-5270.0225" y1="-409.2925" x2="-5270.0225" y2="-354.8894" gradientTransform="matrix(-0.9677 -0.2521 -0.2521 0.9677 -5017.5674 -662.6543)">
			<stop  offset="0" style="stop-color:#000000"/>
			<stop  offset="1" style="stop-color:#414042"/>
		</linearGradient>
		<path fill="url(#SVGID_12_)" d="M156.976,299.456c-1.17-4.776-2.341-9.554-3.511-14.331c8.686-2.127,17.75-2.169,26.456-0.121
			c-0.832,3.544-1.667,7.088-2.5,10.632c12.057,2.093,23.404,10.55,22.995,23.325c-0.386,12.021-29.639,2.493-35.431-1.113
			c-6.08-3.786-14.156-6.432-8.134-18.306C156.875,299.497,156.936,299.486,156.976,299.456z"/>
	</g>
</g>
<g>
	<g>
		<linearGradient id="SVGID_13_" gradientUnits="userSpaceOnUse" x1="131.7617" y1="-40.3486" x2="131.7617" y2="160.3184">
			<stop  offset="0" style="stop-color:#FFFFFF"/>
			<stop  offset="1" style="stop-color:#D1D3D4"/>
		</linearGradient>
		<path fill="url(#SVGID_13_)" d="M218.163,176.75c-33.602,28.301-139.2,28.301-172.802,0c-28.519-24.021-25.926-125.846,0-152.87
			c30.547-31.84,142.254-31.84,172.802,0C244.088,50.904,246.681,152.729,218.163,176.75z"/>
		<g>
			<linearGradient id="SVGID_14_" gradientUnits="userSpaceOnUse" x1="131.7617" y1="11.7593" x2="131.7617" y2="169.76">
				<stop  offset="0" style="stop-color:#000000"/>
				<stop  offset="1" style="stop-color:#414042"/>
			</linearGradient>
			<path fill="url(#SVGID_14_)" d="M204.408,109.288c-0.404-20.351-5.232-40.687-13.867-49.321
				c-20.781-20.781-96.777-20.781-117.559,0c-8.635,8.635-13.462,28.971-13.867,49.321c-0.422,21.218,3.964,42.451,13.867,50.453
				c22.859,18.472,94.699,18.472,117.559,0C200.444,151.739,204.83,130.506,204.408,109.288z"/>
			<ellipse opacity="0.7" fill="#EEEFF1" cx="83.512" cy="101.92" rx="10" ry="9.75"/>
			<ellipse opacity="0.7" fill="#EEEFF1" cx="179.012" cy="101.92" rx="10" ry="9.75"/>
			<linearGradient id="SVGID_15_" gradientUnits="userSpaceOnUse" x1="117.1372" y1="52.8926" x2="93.1373" y2="76.2255">
				<stop  offset="0" style="stop-color:#FFFFFF"/>
				<stop  offset="1" style="stop-color:#D1D3D4"/>
			</linearGradient>
			<path opacity="0.2" fill="url(#SVGID_15_)" d="M80.47,64.162c-5.813,5.048-9.752,17.623-10.91,30.404
				c-0.886,9.782-0.14,19.681,2.642,26.42l38.841-64.28C98.31,56.671,86.377,59.033,80.47,64.162z"/>
			<linearGradient id="SVGID_16_" gradientUnits="userSpaceOnUse" x1="173.959" y1="139.5156" x2="192.4004" y2="139.5156">
				<stop  offset="0" style="stop-color:#FFFFFF"/>
				<stop  offset="1" style="stop-color:#D1D3D4"/>
			</linearGradient>
			<path opacity="0.2" fill="url(#SVGID_16_)" d="M188.521,151.029c2.598-2.738,3.922-9.062,3.879-15.353
				c-0.032-4.815-0.867-9.608-2.545-12.766l-15.896,33.209C180.173,155.532,185.883,153.813,188.521,151.029z"/>
		</g>
	</g>
	<g>
		<circle fill="#C2C1C6" cx="158.33" cy="33.165" r="4.223"/>
		<circle fill="#C2C1C6" cx="132.388" cy="30.165" r="4.223"/>
		<circle fill="#C2C1C6" cx="106.445" cy="33.165" r="4.223"/>
	</g>
	<g>
		<circle fill="#C2C1C6" cx="158.33" cy="183.496" r="4.223"/>
		<circle fill="#C2C1C6" cx="132.388" cy="186.496" r="4.223"/>
		<circle fill="#C2C1C6" cx="106.445" cy="183.496" r="4.223"/>
	</g>
	<linearGradient id="SVGID_17_" gradientUnits="userSpaceOnUse" x1="31.1294" y1="7.54" x2="14.1293" y2="139.0405">
		<stop  offset="0" style="stop-color:#FFFFFF"/>
		<stop  offset="1" style="stop-color:#D1D3D4"/>
	</linearGradient>
	<path fill="url(#SVGID_17_)" d="M5.209,93.454c6.286,6.995,24.376,16.241,30.663,9.246c7.271-8.09,18.61-62.193,12-71.294
		c-5.716-7.869-36.948,2.691-42.663,10.56C-1.401,51.067-2.063,85.364,5.209,93.454z"/>
	<linearGradient id="SVGID_18_" gradientUnits="userSpaceOnUse" x1="19.374" y1="122.4292" x2="19.374" y2="52.4292">
		<stop  offset="0" style="stop-color:#000000"/>
		<stop  offset="1" style="stop-color:#414042"/>
	</linearGradient>
	<circle fill="url(#SVGID_18_)" cx="19.374" cy="53.929" r="7.223"/>
	<linearGradient id="SVGID_19_" gradientUnits="userSpaceOnUse" x1="19.374" y1="122.4292" x2="19.374" y2="52.4292">
		<stop  offset="0" style="stop-color:#000000"/>
		<stop  offset="1" style="stop-color:#414042"/>
	</linearGradient>
	<circle fill="url(#SVGID_19_)" cx="19.374" cy="77.834" r="7.223"/>
	<linearGradient id="SVGID_20_" gradientUnits="userSpaceOnUse" x1="210.3877" y1="5.6045" x2="260.3872" y2="106.6035">
		<stop  offset="0" style="stop-color:#FFFFFF"/>
		<stop  offset="1" style="stop-color:#D1D3D4"/>
	</linearGradient>
	<path fill="url(#SVGID_20_)" d="M258.883,93.453c-6.286,6.995-24.376,16.241-30.663,9.246c-7.271-8.09-18.61-62.193-12-71.294
		c5.716-7.869,36.948,2.691,42.663,10.56C265.493,51.066,266.155,85.363,258.883,93.453z"/>
	
		<linearGradient id="SVGID_21_" gradientUnits="userSpaceOnUse" x1="-4961.6436" y1="122.4292" x2="-4961.6436" y2="52.4292" gradientTransform="matrix(-1 0 0 1 -4716.9258 0)">
		<stop  offset="0" style="stop-color:#000000"/>
		<stop  offset="1" style="stop-color:#414042"/>
	</linearGradient>
	<circle fill="url(#SVGID_21_)" cx="244.718" cy="53.929" r="7.223"/>
	
		<linearGradient id="SVGID_22_" gradientUnits="userSpaceOnUse" x1="-4961.6436" y1="122.4292" x2="-4961.6436" y2="52.4292" gradientTransform="matrix(-1 0 0 1 -4716.9258 0)">
		<stop  offset="0" style="stop-color:#000000"/>
		<stop  offset="1" style="stop-color:#414042"/>
	</linearGradient>
	<circle fill="url(#SVGID_22_)" cx="244.718" cy="77.834" r="7.223"/>
</g>
</svg>
