<?xml version="1.0" encoding="utf-8"?>
<!-- Generator: Adobe Illustrator 16.0.0, SVG Export Plug-In . SVG Version: 6.00 Build 0)  -->
<!DOCTYPE svg PUBLIC "-//W3C//DTD SVG 1.1//EN" "http://www.w3.org/Graphics/SVG/1.1/DTD/svg11.dtd">
<svg version="1.1" id="Layer_1" xmlns="http://www.w3.org/2000/svg" xmlns:xlink="http://www.w3.org/1999/xlink" x="0px" y="0px"
	 width="264.092px" height="197.977px" viewBox="0 0 264.092 197.977" enable-background="new 0 0 264.092 197.977"
	 xml:space="preserve">
<g>
	<g>
		<linearGradient id="SVGID_1_" gradientUnits="userSpaceOnUse" x1="131.7617" y1="-40.3481" x2="131.7617" y2="160.3194">
			<stop  offset="0" style="stop-color:#FFFFFF"/>
			<stop  offset="1" style="stop-color:#D1D3D4"/>
		</linearGradient>
		<path fill="url(#SVGID_1_)" d="M218.163,176.751c-33.602,28.301-139.2,28.301-172.802,0c-28.519-24.021-25.926-125.847,0-152.871
			c30.547-31.84,142.254-31.84,172.802,0C244.088,50.904,246.681,152.729,218.163,176.751z"/>
		<g>
			<linearGradient id="SVGID_2_" gradientUnits="userSpaceOnUse" x1="131.7612" y1="11.7593" x2="131.7612" y2="169.7606">
				<stop  offset="0" style="stop-color:#000000"/>
				<stop  offset="1" style="stop-color:#414042"/>
			</linearGradient>
			<path fill="url(#SVGID_2_)" d="M204.408,109.288c-0.404-20.35-5.232-40.686-13.867-49.321
				c-20.781-20.781-96.777-20.781-117.559,0c-8.635,8.635-13.462,28.971-13.867,49.321c-0.422,21.219,3.964,42.451,13.867,50.453
				c22.859,18.473,94.699,18.473,117.559,0C200.444,151.739,204.83,130.507,204.408,109.288z"/>
			<ellipse opacity="0.7" fill="#EEEFF1" cx="83.512" cy="101.921" rx="10" ry="9.75"/>
			<ellipse opacity="0.7" fill="#EEEFF1" cx="179.012" cy="101.921" rx="10" ry="9.75"/>
			<linearGradient id="SVGID_3_" gradientUnits="userSpaceOnUse" x1="117.1372" y1="52.8931" x2="93.1373" y2="76.226">
				<stop  offset="0" style="stop-color:#FFFFFF"/>
				<stop  offset="1" style="stop-color:#D1D3D4"/>
			</linearGradient>
			<path opacity="0.2" fill="url(#SVGID_3_)" d="M80.47,64.163c-5.813,5.048-9.752,17.623-10.91,30.404
				c-0.886,9.782-0.14,19.68,2.642,26.42l38.841-64.281C98.31,56.671,86.377,59.034,80.47,64.163z"/>
			<linearGradient id="SVGID_4_" gradientUnits="userSpaceOnUse" x1="173.959" y1="139.5156" x2="192.4004" y2="139.5156">
				<stop  offset="0" style="stop-color:#FFFFFF"/>
				<stop  offset="1" style="stop-color:#D1D3D4"/>
			</linearGradient>
			<path opacity="0.2" fill="url(#SVGID_4_)" d="M188.521,151.03c2.598-2.738,3.922-9.063,3.879-15.354
				c-0.032-4.814-0.867-9.607-2.545-12.766l-15.896,33.209C180.173,155.532,185.883,153.813,188.521,151.03z"/>
		</g>
	</g>
	<g>
		<circle fill="#C2C1C6" cx="158.33" cy="33.165" r="4.223"/>
		<circle fill="#C2C1C6" cx="132.388" cy="30.165" r="4.223"/>
		<circle fill="#C2C1C6" cx="106.445" cy="33.165" r="4.223"/>
	</g>
	<g>
		<circle fill="#C2C1C6" cx="158.33" cy="183.497" r="4.223"/>
		<circle fill="#C2C1C6" cx="132.388" cy="186.497" r="4.223"/>
		<circle fill="#C2C1C6" cx="106.445" cy="183.497" r="4.223"/>
	</g>
	<linearGradient id="SVGID_5_" gradientUnits="userSpaceOnUse" x1="31.1304" y1="7.54" x2="14.1305" y2="139.0389">
		<stop  offset="0" style="stop-color:#FFFFFF"/>
		<stop  offset="1" style="stop-color:#D1D3D4"/>
	</linearGradient>
	<path fill="url(#SVGID_5_)" d="M5.209,93.454c6.286,6.994,24.376,16.24,30.663,9.246c7.271-8.09,18.61-62.193,12-71.294
		c-5.716-7.869-36.948,2.691-42.663,10.56C-1.401,51.067-2.063,85.364,5.209,93.454z"/>
	<linearGradient id="SVGID_6_" gradientUnits="userSpaceOnUse" x1="19.374" y1="122.4297" x2="19.374" y2="52.4297">
		<stop  offset="0" style="stop-color:#000000"/>
		<stop  offset="1" style="stop-color:#414042"/>
	</linearGradient>
	<circle fill="url(#SVGID_6_)" cx="19.374" cy="53.93" r="7.223"/>
	<linearGradient id="SVGID_7_" gradientUnits="userSpaceOnUse" x1="19.374" y1="122.4297" x2="19.374" y2="52.4297">
		<stop  offset="0" style="stop-color:#000000"/>
		<stop  offset="1" style="stop-color:#414042"/>
	</linearGradient>
	<circle fill="url(#SVGID_7_)" cx="19.374" cy="77.835" r="7.223"/>
	<linearGradient id="SVGID_8_" gradientUnits="userSpaceOnUse" x1="210.3877" y1="5.6045" x2="260.3878" y2="106.6048">
		<stop  offset="0" style="stop-color:#FFFFFF"/>
		<stop  offset="1" style="stop-color:#D1D3D4"/>
	</linearGradient>
	<path fill="url(#SVGID_8_)" d="M258.883,93.454c-6.286,6.995-24.376,16.241-30.663,9.247c-7.271-8.09-18.61-62.193-12-71.295
		c5.716-7.869,36.948,2.691,42.663,10.56C265.493,51.067,266.155,85.364,258.883,93.454z"/>
	
		<linearGradient id="SVGID_9_" gradientUnits="userSpaceOnUse" x1="-4944.6436" y1="122.4297" x2="-4944.6436" y2="52.4297" gradientTransform="matrix(-1 0 0 1 -4699.9258 0)">
		<stop  offset="0" style="stop-color:#000000"/>
		<stop  offset="1" style="stop-color:#414042"/>
	</linearGradient>
	<circle fill="url(#SVGID_9_)" cx="244.718" cy="53.929" r="7.223"/>
	
		<linearGradient id="SVGID_10_" gradientUnits="userSpaceOnUse" x1="-4944.6436" y1="122.4297" x2="-4944.6436" y2="52.4297" gradientTransform="matrix(-1 0 0 1 -4699.9258 0)">
		<stop  offset="0" style="stop-color:#000000"/>
		<stop  offset="1" style="stop-color:#414042"/>
	</linearGradient>
	<circle fill="url(#SVGID_10_)" cx="244.718" cy="77.834" r="7.223"/>
</g>
</svg>
