<?xml version="1.0" encoding="utf-8"?>
<!-- Generator: Adobe Illustrator 16.0.0, SVG Export Plug-In . SVG Version: 6.00 Build 0)  -->
<!DOCTYPE svg PUBLIC "-//W3C//DTD SVG 1.1//EN" "http://www.w3.org/Graphics/SVG/1.1/DTD/svg11.dtd">
<svg version="1.1" id="Layer_1" xmlns="http://www.w3.org/2000/svg" xmlns:xlink="http://www.w3.org/1999/xlink" x="0px" y="0px"
	 width="197.975px" height="147.221px" viewBox="86.477 101.736 197.975 147.221"
	 enable-background="new 86.477 101.736 197.975 147.221" xml:space="preserve">
<g>
	<g>
		<path fill="#5D5D5D" d="M100.103,279.565c0,2.902-1.503,4.533-3.705,4.533c-2.19,0-3.705-1.58-3.705-4.521
			c0-2.891,1.515-4.559,3.705-4.559C98.6,275.02,100.103,276.612,100.103,279.565z M93.979,279.578c0,2.533,0.993,3.525,2.419,3.525
			c1.478,0,2.419-0.992,2.419-3.539c0-2.521-0.916-3.553-2.419-3.553C94.934,276.012,93.979,277.044,93.979,279.578z"/>
		<path fill="#5D5D5D" d="M113.323,283.944h-1.617l-3.564-7.445c0.063,0.727,0.165,1.795,0.165,3.424v4.021h-1.133v-8.771h1.578
			l3.603,7.461c-0.024-0.205-0.165-1.604-0.165-2.674v-4.787h1.134L113.323,283.944L113.323,283.944z"/>
		<path fill="#5D5D5D" d="M122.174,282.887h3.604l-0.14,1.057h-4.673v-8.771h1.209V282.887z"/>
		<path fill="#5D5D5D" d="M133.611,283.944h-1.209v-8.771h1.209V283.944z"/>
		<path fill="#5D5D5D" d="M147.402,283.944h-1.616l-3.564-7.445c0.063,0.727,0.165,1.795,0.165,3.424v4.021h-1.134v-8.771h1.579
			l3.603,7.461c-0.025-0.205-0.165-1.604-0.165-2.674v-4.787h1.133L147.402,283.944L147.402,283.944z"/>
		<path fill="#5D5D5D" d="M159.655,276.139h-3.4v2.865h2.954v0.969h-2.954v3.004h3.642v0.967h-4.851v-8.771h4.748L159.655,276.139z"
			/>
		<path fill="#5D5D5D" d="M181.139,277.885c0,2.01-1.465,2.838-3.4,2.838h-1.107v3.221h-1.209v-8.771h2.304
			C179.84,275.173,181.139,276.039,181.139,277.885z M179.852,277.897c0-1.311-0.84-1.781-2.139-1.781h-1.082v3.652h1.057
			C178.987,279.768,179.852,279.387,179.852,277.897z"/>
		<path fill="#5D5D5D" d="M194.752,279.565c0,2.902-1.506,4.533-3.705,4.533c-2.189,0-3.705-1.58-3.705-4.521
			c0-2.891,1.516-4.559,3.705-4.559C193.246,275.02,194.752,276.612,194.752,279.565z M188.629,279.578
			c0,2.533,0.99,3.525,2.418,3.525c1.477,0,2.42-0.992,2.42-3.539c0-2.521-0.918-3.553-2.42-3.553
			C189.582,276.012,188.629,277.044,188.629,279.578z"/>
		<path fill="#5D5D5D" d="M204.395,280.227h-1.363v3.717h-1.209v-8.771h2.305c2.189,0,3.334,0.84,3.334,2.482
			c0,1.234-0.635,1.973-1.896,2.354l2.369,3.934h-1.439L204.395,280.227z M204.254,279.298c1.223,0,1.922-0.459,1.922-1.645
			c0-1.096-0.623-1.541-2.063-1.541h-1.082v3.186H204.254z"/>
		<path fill="#5D5D5D" d="M219.549,276.205h-2.434v7.738h-1.211v-7.738h-2.494v-1.031h6.266L219.549,276.205z"/>
		<path fill="#5D5D5D" d="M230.691,276.139h-3.311v2.992h2.863v0.955h-2.863v3.855h-1.209v-8.771h4.658L230.691,276.139z"/>
		<path fill="#5D5D5D" d="M244.355,279.565c0,2.902-1.502,4.533-3.703,4.533c-2.191,0-3.705-1.58-3.705-4.521
			c0-2.891,1.514-4.559,3.705-4.559C242.854,275.02,244.355,276.612,244.355,279.565z M238.232,279.578
			c0,2.533,0.994,3.525,2.42,3.525c1.477,0,2.418-0.992,2.418-3.539c0-2.521-0.916-3.553-2.418-3.553
			C239.188,276.012,238.232,277.044,238.232,279.578z"/>
		<path fill="#5D5D5D" d="M252.637,282.887h3.602l-0.141,1.057h-4.672v-8.771h1.211V282.887z"/>
		<path fill="#5D5D5D" d="M264.072,283.944h-1.211v-8.771h1.211V283.944z"/>
		<path fill="#5D5D5D" d="M278.551,279.565c0,2.902-1.502,4.533-3.705,4.533c-2.189,0-3.705-1.58-3.705-4.521
			c0-2.891,1.516-4.559,3.705-4.559C277.049,275.02,278.551,276.612,278.551,279.565z M272.426,279.578
			c0,2.533,0.994,3.525,2.42,3.525c1.477,0,2.42-0.992,2.42-3.539c0-2.521-0.918-3.553-2.42-3.553
			C273.383,276.012,272.426,277.044,272.426,279.578z"/>
	</g>
	<g>
		<rect x="285.404" y="279.248" fill="#5D5D5D" width="5.297" height="0.625"/>
	</g>
	<g>
		<rect x="80.541" y="279.248" fill="#5D5D5D" width="5.297" height="0.625"/>
	</g>
</g>
<path fill="#5D5D5D" d="M270.103,191.503c-8.869,15.332-25.447,25.648-44.432,25.648c-0.51,0-1.014-0.01-1.52-0.024
	c-0.156-0.005-0.313-0.012-0.469-0.018c-0.354-0.017-0.709-0.03-1.063-0.05c-0.174-0.014-0.346-0.021-0.516-0.033
	c-0.359-0.025-0.719-0.057-1.076-0.086c-0.143-0.015-0.285-0.024-0.432-0.039c-0.498-0.049-0.996-0.104-1.488-0.166
	c-0.023-0.003-0.047-0.007-0.068-0.01c-0.473-0.063-0.938-0.131-1.404-0.202c-0.143-0.022-0.281-0.048-0.424-0.07
	c-0.354-0.059-0.711-0.12-1.063-0.188c-0.15-0.028-0.302-0.058-0.45-0.088c-0.373-0.073-0.748-0.15-1.117-0.231
	c-0.111-0.024-0.223-0.048-0.33-0.072c-0.492-0.111-0.979-0.229-1.463-0.354c-0.012-0.004-0.025-0.01-0.041-0.014
	c-0.461-0.117-0.92-0.246-1.377-0.379c-0.115-0.034-0.23-0.067-0.348-0.104c-0.365-0.108-0.729-0.223-1.088-0.338
	c-0.119-0.038-0.24-0.077-0.361-0.117c-0.396-0.13-0.789-0.268-1.18-0.405c-0.068-0.022-0.137-0.048-0.203-0.071
	c-0.938-0.34-1.861-0.707-2.771-1.1c-0.094-0.039-0.186-0.08-0.277-0.12c-0.367-0.161-0.729-0.324-1.094-0.493
	c-0.092-0.043-0.186-0.086-0.279-0.131c-0.41-0.191-0.816-0.393-1.221-0.598c-0.029-0.016-0.057-0.027-0.086-0.041
	c-0.457-0.232-0.912-0.473-1.361-0.719l0.002,0.002c-2.91-1.593-5.646-3.455-8.182-5.56c-11.331-9.409-18.547-23.603-18.547-39.48
	c0-28.331,22.963-51.298,51.296-51.298c15.895,0,30.102,7.232,39.51,18.588c0.107,0.131,0.213,0.263,0.32,0.395
	c0.209,0.256,0.414,0.515,0.617,0.773c0.094,0.121,0.188,0.238,0.283,0.359c0.27,0.354,0.531,0.707,0.793,1.063
	c0.086,0.12,0.172,0.241,0.258,0.36c0.23,0.32,0.457,0.646,0.678,0.975c0.049,0.072,0.1,0.145,0.148,0.217
	c0.264,0.394,0.52,0.787,0.771,1.188c0.063,0.102,0.131,0.205,0.193,0.307c0.258,0.414,0.51,0.83,0.754,1.252h14.38
	c-9.936-22.556-32.479-38.301-58.708-38.301c-0.512,0-1.021,0.006-1.525,0.02c0.002,0,0.004,0,0.006,0
	c-0.385,0.009-0.77,0.023-1.148,0.039c-0.002,0-0.002,0-0.002,0c-0.004,0-0.006,0.001-0.01,0.001
	c-0.557,0.022-1.111,0.054-1.664,0.09c-0.01,0-0.021,0-0.033,0.001h0.002c-33.372,2.253-59.744,30.028-59.744,63.972
	c0,12.433,3.538,24.037,9.665,33.864c0.003,0.006,0.006,0.01,0.007,0.014c0.364,0.584,0.739,1.16,1.121,1.73
	c0.076,0.113,0.155,0.227,0.23,0.336c0.309,0.455,0.62,0.904,0.939,1.352c0.037,0.053,0.074,0.106,0.112,0.161
	c0.173,0.239,0.351,0.479,0.527,0.718c0.129,0.176,0.261,0.351,0.394,0.521c0.239,0.316,0.481,0.633,0.727,0.941
	c0.128,0.161,0.253,0.321,0.383,0.479c0.257,0.318,0.515,0.638,0.776,0.948c0.122,0.148,0.248,0.295,0.372,0.441
	c0.27,0.316,0.541,0.631,0.816,0.941c0.128,0.145,0.257,0.287,0.386,0.432c0.291,0.324,0.588,0.646,0.886,0.967
	c0.102,0.107,0.202,0.214,0.303,0.319c0.311,0.324,0.62,0.646,0.937,0.963c0.122,0.124,0.246,0.248,0.37,0.37
	c0.338,0.336,0.678,0.668,1.021,0.996c0.064,0.061,0.129,0.121,0.193,0.182c0.354,0.334,0.712,0.662,1.072,0.988
	c0.115,0.103,0.23,0.207,0.35,0.311c0.382,0.34,0.769,0.676,1.158,1.006c0.027,0.024,0.057,0.047,0.085,0.072
	c0.396,0.334,0.799,0.662,1.204,0.987c0.108,0.087,0.219,0.175,0.33,0.263c0.42,0.334,0.846,0.664,1.276,0.988h-76.607
	l63.061-115.411h-7.337h-7.275H94.49l-8.015,12.823h65.548L95.97,217.151l-7.008,12.824h136.253
	c26.293,0,49.346-15.831,59.239-38.479L270.103,191.503z"/>
<linearGradient id="SVGID_1_" gradientUnits="userSpaceOnUse" x1="464.6318" y1="207.7214" x2="556.9648" y2="207.7214" gradientTransform="matrix(1 0 0 -1 0 368.4409)">
	<stop  offset="0.2809" style="stop-color:#FF7A41"/>
	<stop  offset="0.6685" style="stop-color:#FF4375"/>
	<stop  offset="0.8876" style="stop-color:#FF1D72"/>
	<stop  offset="1" style="stop-color:#FF006F"/>
</linearGradient>
<rect x="464.632" y="125.282" fill="url(#SVGID_1_)" width="92.333" height="70.875"/>
<g>
	<path fill="#5D5D5D" d="M93.973,244.833c0,2.629-1.476,4.124-3.755,4.124c-2.213,0-3.742-1.449-3.742-4.111
		c0-2.641,1.542-4.147,3.742-4.147C92.457,240.698,93.973,242.135,93.973,244.833z M87.32,244.845c0,2.394,1.193,3.515,2.897,3.515
		c1.797,0,2.91-1.121,2.91-3.527c0-2.43-1.141-3.539-2.91-3.539C88.487,241.294,87.32,242.415,87.32,244.845z"/>
	<path fill="#5D5D5D" d="M108.095,248.828h-1.06l-4.332-7.23c0.04,0.549,0.107,1.32,0.107,2.757v4.474h-0.765v-8.002h1.032
		l4.359,7.23c-0.027-0.338-0.107-1.331-0.107-2.371v-4.859h0.765V248.828z"/>
	<path fill="#5D5D5D" d="M117.576,248.197h3.836l-0.107,0.631h-4.533v-8.002h0.805V248.197z"/>
	<path fill="#5D5D5D" d="M129.674,248.828h-0.806v-8.002h0.806V248.828z"/>
	<path fill="#5D5D5D" d="M144.399,248.828h-1.06l-4.332-7.23c0.04,0.549,0.107,1.32,0.107,2.757v4.474h-0.765v-8.002h1.033
		l4.358,7.23c-0.027-0.338-0.107-1.331-0.107-2.371v-4.859h0.765V248.828z"/>
	<path fill="#5D5D5D" d="M157.65,241.411h-3.77v2.978h3.26v0.585h-3.26v3.27h3.956v0.585h-4.761v-8.002h4.667L157.65,241.411z"/>
	<path fill="#5D5D5D" d="M180.637,243.221c0,1.798-1.435,2.487-3.434,2.487h-1.314v3.119h-0.805v-8.002h2.159
		C179.376,240.826,180.637,241.562,180.637,243.221z M179.791,243.233c0-1.355-0.952-1.835-2.561-1.835h-1.342v3.738h1.314
		C178.732,245.136,179.791,244.704,179.791,243.233z"/>
	<path fill="#5D5D5D" d="M195.322,244.833c0,2.629-1.476,4.124-3.755,4.124c-2.214,0-3.742-1.449-3.742-4.111
		c0-2.641,1.543-4.147,3.742-4.147C193.807,240.698,195.322,242.135,195.322,244.833z M188.67,244.845
		c0,2.394,1.193,3.515,2.897,3.515c1.797,0,2.91-1.121,2.91-3.527c0-2.43-1.141-3.539-2.91-3.539
		C189.836,241.294,188.67,242.415,188.67,244.845z"/>
	<path fill="#5D5D5D" d="M206.038,245.242h-1.837v3.586h-0.805v-8.002h2.227c2.213,0,3.272,0.76,3.272,2.174
		c0,1.19-0.752,1.821-2.052,2.113l2.521,3.715h-0.952L206.038,245.242z M205.73,244.67c1.461,0,2.307-0.503,2.307-1.67
		c0-1.063-0.684-1.602-2.441-1.602h-1.395v3.271H205.73z"/>
	<path fill="#5D5D5D" d="M221.662,241.446h-2.695v7.382h-0.792v-7.382h-2.722v-0.62h6.304L221.662,241.446z"/>
	<path fill="#5D5D5D" d="M229.079,240.826h4.587l-0.095,0.585h-3.688v3.119h3.18v0.583h-3.18v3.715h-0.804V240.826z"/>
	<path fill="#5D5D5D" d="M247.908,244.833c0,2.629-1.475,4.124-3.754,4.124c-2.214,0-3.742-1.449-3.742-4.111
		c0-2.641,1.542-4.147,3.742-4.147C246.394,240.698,247.908,242.135,247.908,244.833z M241.256,244.845
		c0,2.394,1.194,3.515,2.898,3.515c1.797,0,2.91-1.121,2.91-3.527c0-2.43-1.141-3.539-2.91-3.539
		C242.424,241.294,241.256,242.415,241.256,244.845z"/>
	<path fill="#5D5D5D" d="M256.786,248.197h3.837l-0.108,0.631h-4.532v-8.002h0.804V248.197z"/>
	<path fill="#5D5D5D" d="M268.883,248.828h-0.804v-8.002h0.804V248.828z"/>
	<path fill="#5D5D5D" d="M284.454,244.833c0,2.629-1.475,4.124-3.755,4.124c-2.213,0-3.741-1.449-3.741-4.111
		c0-2.641,1.542-4.147,3.741-4.147C282.939,240.698,284.454,242.135,284.454,244.833z M277.802,244.845
		c0,2.394,1.194,3.515,2.897,3.515c1.798,0,2.911-1.121,2.911-3.527c0-2.43-1.141-3.539-2.911-3.539
		C278.969,241.294,277.802,242.415,277.802,244.845z"/>
</g>
<text transform="matrix(1.1481 0 0 1 89.9624 335.4744)" stroke="#000000" stroke-width="0.25" stroke-miterlimit="10" font-family="'FiraSans-Light'" font-size="11.3228" letter-spacing="3.484">ONLINE PORTFOLIO</text>
<text transform="matrix(1.1481 0 0 1 89.9624 281.3601)" stroke="#000000" stroke-width="0.25" stroke-miterlimit="10" font-family="'FiraSans-Light'" font-size="12.2132" letter-spacing="3.484">ONLINE PORTFOLIO</text>
<text transform="matrix(1.1481 0 0 1 314.9629 254.4919)" stroke="#000000" stroke-width="0.25" stroke-miterlimit="10" font-family="'FiraSans-Light'" font-size="12.2132" letter-spacing="3.484">PORTFOLIO | PROFESSIONAL</text>
<text transform="matrix(1.1481 0 0 1 373.9629 297.6931)" stroke="#000000" stroke-width="0.25" stroke-miterlimit="10" font-family="'FiraSans-Light'" font-size="12.2132" letter-spacing="3.484">ONLINE PORTFOLIO</text>
<text transform="matrix(1 0 0 1 99.6294 309.5535)" stroke="#000000" stroke-width="0.25" stroke-miterlimit="10" font-family="'FiraSans-Light'" font-size="13" letter-spacing="4">ONLINE PORTFOLIO</text>
</svg>
