<?xml version="1.0" encoding="utf-8"?>
<!-- Generator: Adobe Illustrator 16.0.0, SVG Export Plug-In . SVG Version: 6.00 Build 0)  -->
<!DOCTYPE svg PUBLIC "-//W3C//DTD SVG 1.1//EN" "http://www.w3.org/Graphics/SVG/1.1/DTD/svg11.dtd">
<svg version="1.1" id="Layer_1" xmlns="http://www.w3.org/2000/svg" xmlns:xlink="http://www.w3.org/1999/xlink" x="0px" y="0px"
	 width="370.93px" height="367.441px" viewBox="0 0 370.93 367.441" enable-background="new 0 0 370.93 367.441"
	 xml:space="preserve">
<g>
	<g>
		<path fill="#FFFFFF" d="M99.947,261.172c0,2.902-1.503,4.533-3.705,4.533c-2.19,0-3.705-1.58-3.705-4.521
			c0-2.89,1.515-4.558,3.705-4.558C98.444,256.627,99.947,258.219,99.947,261.172z M93.823,261.184c0,2.534,0.993,3.526,2.419,3.526
			c1.478,0,2.419-0.992,2.419-3.539c0-2.521-0.916-3.553-2.419-3.553C94.778,257.619,93.823,258.65,93.823,261.184z"/>
		<path fill="#FFFFFF" d="M113.167,265.551h-1.617l-3.564-7.446c0.063,0.727,0.165,1.795,0.165,3.424v4.022h-1.133v-8.771h1.578
			l3.603,7.461c-0.024-0.205-0.165-1.604-0.165-2.674v-4.787h1.134L113.167,265.551L113.167,265.551z"/>
		<path fill="#FFFFFF" d="M122.018,264.494h3.604l-0.14,1.057h-4.673v-8.771h1.209V264.494z"/>
		<path fill="#FFFFFF" d="M133.455,265.551h-1.209v-8.771h1.209V265.551z"/>
		<path fill="#FFFFFF" d="M147.246,265.551h-1.616l-3.564-7.446c0.063,0.727,0.165,1.795,0.165,3.424v4.022h-1.134v-8.771h1.579
			l3.603,7.461c-0.025-0.205-0.165-1.604-0.165-2.674v-4.787h1.133L147.246,265.551L147.246,265.551z"/>
		<path fill="#FFFFFF" d="M159.499,257.746h-3.4v2.865h2.954v0.969h-2.954v3.004h3.642v0.967h-4.851v-8.771h4.748L159.499,257.746z"
			/>
		<path fill="#FFFFFF" d="M180.983,259.492c0,2.01-1.465,2.838-3.4,2.838h-1.107v3.221h-1.209v-8.771h2.304
			C179.684,256.779,180.983,257.645,180.983,259.492z M179.696,259.504c0-1.311-0.84-1.782-2.139-1.782h-1.082v3.653h1.057
			C178.831,261.375,179.696,260.994,179.696,259.504z"/>
		<path fill="#FFFFFF" d="M194.596,261.172c0,2.902-1.505,4.533-3.705,4.533c-2.189,0-3.705-1.58-3.705-4.521
			c0-2.89,1.516-4.558,3.705-4.558C193.091,256.627,194.596,258.219,194.596,261.172z M188.473,261.184
			c0,2.534,0.991,3.526,2.418,3.526c1.477,0,2.42-0.992,2.42-3.539c0-2.521-0.918-3.553-2.42-3.553
			C189.427,257.619,188.473,258.65,188.473,261.184z"/>
		<path fill="#FFFFFF" d="M204.238,261.834h-1.363v3.717h-1.209v-8.771h2.305c2.189,0,3.334,0.84,3.334,2.482
			c0,1.235-0.635,1.973-1.896,2.354l2.368,3.934h-1.438L204.238,261.834z M204.098,260.904c1.223,0,1.922-0.459,1.922-1.644
			c0-1.096-0.623-1.541-2.063-1.541h-1.082v3.185H204.098z"/>
		<path fill="#FFFFFF" d="M219.393,257.811h-2.433v7.739h-1.211v-7.739h-2.494v-1.031h6.265L219.393,257.811z"/>
		<path fill="#FFFFFF" d="M230.535,257.746h-3.311v2.992h2.864v0.955h-2.864v3.856h-1.209v-8.771h4.659L230.535,257.746z"/>
		<path fill="#FFFFFF" d="M244.199,261.172c0,2.902-1.502,4.533-3.703,4.533c-2.191,0-3.705-1.58-3.705-4.521
			c0-2.89,1.514-4.558,3.705-4.558C242.697,256.627,244.199,258.219,244.199,261.172z M238.076,261.184
			c0,2.534,0.994,3.526,2.42,3.526c1.477,0,2.418-0.992,2.418-3.539c0-2.521-0.916-3.553-2.418-3.553
			C239.031,257.619,238.076,258.65,238.076,261.184z"/>
		<path fill="#FFFFFF" d="M252.48,264.494h3.602l-0.141,1.057h-4.672v-8.771h1.211V264.494z"/>
		<path fill="#FFFFFF" d="M263.916,265.551h-1.211v-8.771h1.211V265.551z"/>
		<path fill="#FFFFFF" d="M278.395,261.172c0,2.902-1.502,4.533-3.705,4.533c-2.189,0-3.705-1.58-3.705-4.521
			c0-2.89,1.516-4.558,3.705-4.558C276.893,256.627,278.395,258.219,278.395,261.172z M272.27,261.184
			c0,2.534,0.994,3.526,2.42,3.526c1.477,0,2.42-0.992,2.42-3.539c0-2.521-0.918-3.553-2.42-3.553
			C273.227,257.619,272.27,258.65,272.27,261.184z"/>
	</g>
	<g>
		<rect x="285.248" y="260.854" fill="#FFFFFF" width="5.297" height="0.625"/>
	</g>
	<g>
		<rect x="80.385" y="260.854" fill="#FFFFFF" width="5.297" height="0.625"/>
	</g>
</g>
<g>
	
		<linearGradient id="SVGID_1_" gradientUnits="userSpaceOnUse" x1="130.0605" y1="34.8215" x2="130.0605" y2="505.0473" gradientTransform="matrix(1 0 0 -1 0 368.4409)">
		<stop  offset="0.2809" style="stop-color:#FF7A41"/>
		<stop  offset="0.6685" style="stop-color:#FF4375"/>
		<stop  offset="0.8876" style="stop-color:#FF1D72"/>
		<stop  offset="1" style="stop-color:#FF006F"/>
	</linearGradient>
	<polygon fill="url(#SVGID_1_)" points="166.639,114.559 173.645,101.736 166.308,101.736 159.033,101.736 94.492,101.736 
		86.477,114.559 152.024,114.559 95.971,217.15 88.964,229.974 103.577,229.974 110.583,217.15 163.802,119.75 	"/>
	
		<linearGradient id="SVGID_2_" gradientUnits="userSpaceOnUse" x1="193.1084" y1="9.0579" x2="193.1084" y2="531.5269" gradientTransform="matrix(1 0 0 -1 0 368.4409)">
		<stop  offset="0.2809" style="stop-color:#FF7A41"/>
		<stop  offset="0.6685" style="stop-color:#FF4375"/>
		<stop  offset="0.8876" style="stop-color:#FF1D72"/>
		<stop  offset="1" style="stop-color:#FF006F"/>
	</linearGradient>
	<path fill="url(#SVGID_2_)" d="M277.373,191.503h-7.271c-8.869,15.331-25.447,25.647-44.432,25.647c-0.51,0-1.014-0.01-1.52-0.024
		c-0.156-0.005-0.312-0.012-0.469-0.018c-0.354-0.016-0.709-0.03-1.062-0.05c-0.173-0.013-0.345-0.021-0.515-0.033
		c-0.36-0.025-0.719-0.056-1.076-0.086c-0.143-0.014-0.286-0.024-0.432-0.039c-0.498-0.049-0.996-0.104-1.488-0.166
		c-0.024-0.003-0.047-0.007-0.069-0.01c-0.472-0.062-0.938-0.13-1.404-0.202c-0.143-0.022-0.282-0.048-0.424-0.07
		c-0.354-0.059-0.711-0.12-1.063-0.188c-0.15-0.028-0.301-0.057-0.449-0.087c-0.373-0.074-0.748-0.151-1.117-0.232
		c-0.111-0.024-0.223-0.048-0.33-0.072c-0.492-0.111-0.979-0.229-1.463-0.354c-0.012-0.004-0.025-0.009-0.041-0.013
		c-0.461-0.118-0.92-0.246-1.377-0.379c-0.115-0.034-0.23-0.068-0.348-0.104c-0.365-0.108-0.728-0.222-1.088-0.338
		c-0.119-0.038-0.24-0.077-0.361-0.117c-0.396-0.13-0.789-0.267-1.18-0.405c-0.068-0.023-0.136-0.048-0.203-0.071
		c-0.938-0.34-1.861-0.707-2.771-1.1c-0.094-0.039-0.186-0.08-0.277-0.12c-0.367-0.161-0.729-0.324-1.094-0.493
		c-0.092-0.043-0.186-0.086-0.279-0.131c-0.41-0.192-0.817-0.393-1.221-0.598c-0.029-0.015-0.057-0.027-0.086-0.041
		c-0.457-0.232-0.912-0.472-1.361-0.719l0.002,0.002c-2.91-1.592-5.647-3.455-8.182-5.559c-11.331-9.409-18.547-23.603-18.547-39.48
		c0-28.33,22.963-51.297,51.295-51.297c15.895,0,30.102,7.233,39.51,18.588c0.107,0.131,0.213,0.263,0.32,0.395
		c0.209,0.256,0.414,0.515,0.617,0.773c0.094,0.121,0.188,0.239,0.283,0.36c0.27,0.353,0.531,0.707,0.793,1.063
		c0.086,0.12,0.172,0.241,0.258,0.361c0.23,0.32,0.457,0.646,0.678,0.974c0.049,0.072,0.1,0.145,0.148,0.217
		c0.264,0.393,0.52,0.787,0.772,1.188c0.063,0.102,0.13,0.205,0.193,0.307c0.258,0.414,0.51,0.83,0.754,1.252h2.985h4.304h7.09
		c-9.935-22.556-32.479-38.301-58.707-38.301c-0.512,0-1.021,0.006-1.526,0.02c0.002,0,0.004,0,0.006,0
		c-0.385,0.009-0.769,0.023-1.148,0.039c-0.002,0-0.002,0-0.002,0c-0.004,0-0.006,0.001-0.01,0.001
		c-0.557,0.022-1.111,0.053-1.664,0.09c-0.01,0-0.021,0-0.033,0.001h0.002c-33.371,2.253-59.742,30.027-59.742,63.97
		c0,12.433,3.538,24.037,9.664,33.864c0,0,0-0.002-0.001-0.002c0.003,0.007,0.007,0.01,0.008,0.015
		c0.364,0.584,0.739,1.16,1.121,1.731c0.076,0.113,0.155,0.226,0.231,0.336c0.308,0.455,0.62,0.904,0.939,1.351
		c0.037,0.053,0.074,0.107,0.112,0.161c0.173,0.24,0.351,0.479,0.528,0.718c0.129,0.176,0.26,0.351,0.393,0.522
		c0.239,0.316,0.482,0.632,0.727,0.941c0.128,0.161,0.253,0.321,0.383,0.48c0.256,0.318,0.514,0.637,0.776,0.948
		c0.122,0.148,0.248,0.295,0.372,0.441c0.27,0.317,0.541,0.631,0.816,0.942c0.128,0.144,0.257,0.287,0.386,0.431
		c0.291,0.324,0.588,0.646,0.886,0.967c0.101,0.107,0.202,0.214,0.303,0.319c0.31,0.325,0.62,0.646,0.936,0.963
		c0.122,0.124,0.246,0.248,0.37,0.37c0.338,0.336,0.678,0.668,1.022,0.996c0.064,0.061,0.129,0.122,0.193,0.182
		c0.354,0.334,0.712,0.662,1.072,0.988c0.116,0.103,0.231,0.207,0.35,0.311c0.382,0.34,0.769,0.676,1.158,1.006
		c0.028,0.024,0.057,0.047,0.085,0.072c0.396,0.334,0.799,0.662,1.204,0.987c0.109,0.087,0.219,0.175,0.33,0.263
		c0.42,0.334,0.846,0.664,1.276,0.988H108.77l-7.007,12.823h123.906c26.293,0,48.89-15.825,58.783-38.472h-7.079V191.503z"/>
</g>
<linearGradient id="SVGID_3_" gradientUnits="userSpaceOnUse" x1="406.6318" y1="183.7205" x2="498.9648" y2="183.7205">
	<stop  offset="0.2809" style="stop-color:#FF7A41"/>
	<stop  offset="0.6685" style="stop-color:#FF4375"/>
	<stop  offset="0.8876" style="stop-color:#FF1D72"/>
	<stop  offset="1" style="stop-color:#FF006F"/>
</linearGradient>
<rect x="406.632" y="148.282" fill="url(#SVGID_3_)" width="92.333" height="70.875"/>
</svg>
