<?xml version="1.0" encoding="utf-8"?>
<!-- Generator: Adobe Illustrator 16.0.0, SVG Export Plug-In . SVG Version: 6.00 Build 0)  -->
<!DOCTYPE svg PUBLIC "-//W3C//DTD SVG 1.1//EN" "http://www.w3.org/Graphics/SVG/1.1/DTD/svg11.dtd">
<svg version="1.1" id="Layer_1" xmlns="http://www.w3.org/2000/svg" xmlns:xlink="http://www.w3.org/1999/xlink" x="0px" y="0px"
	 width="411.627px" height="129.07px" viewBox="0 0 411.627 129.07" enable-background="new 0 0 411.627 129.07"
	 xml:space="preserve">
<g>
	<g>
		
			<linearGradient id="SVGID_1_" gradientUnits="userSpaceOnUse" x1="-47.6865" y1="85.8171" x2="266.3134" y2="85.8171" gradientTransform="matrix(1 0 0 -1 0 130.0698)">
			<stop  offset="0.2809" style="stop-color:#FF7A41"/>
			<stop  offset="0.6685" style="stop-color:#FF4375"/>
			<stop  offset="0.8876" style="stop-color:#FF1D72"/>
			<stop  offset="1" style="stop-color:#FF006F"/>
		</linearGradient>
		<path fill="url(#SVGID_1_)" d="M50.204,30.003h-6.927v28.5h3.82V47.965h2.99c6.941,0,10.764-3.229,10.764-9.097
			C60.851,34.825,59.003,30.003,50.204,30.003z M50.126,44.416h-3.029V33.592h3.106c4.767,0,6.71,1.54,6.71,5.314
			C56.914,42.768,54.884,44.416,50.126,44.416z"/>
		
			<linearGradient id="SVGID_2_" gradientUnits="userSpaceOnUse" x1="-47.6865" y1="85.7966" x2="266.3135" y2="85.7966" gradientTransform="matrix(1 0 0 -1 0 130.0698)">
			<stop  offset="0.2809" style="stop-color:#FF7A41"/>
			<stop  offset="0.6685" style="stop-color:#FF4375"/>
			<stop  offset="0.8876" style="stop-color:#FF1D72"/>
			<stop  offset="1" style="stop-color:#FF006F"/>
		</linearGradient>
		<path fill="url(#SVGID_2_)" d="M92.55,29.616c-7.08,0-11.654,5.776-11.654,14.715c0,9.005,4.466,14.6,11.654,14.6
			c7.212,0,11.692-5.608,11.692-14.638C104.243,35.24,99.762,29.616,92.55,29.616z M92.55,55.302c-4.904,0-7.718-3.999-7.718-10.972
			c0-7.175,2.741-11.126,7.718-11.126c5.001,0,7.755,3.938,7.755,11.088C100.305,49.315,98.959,55.302,92.55,55.302z"/>
		
			<linearGradient id="SVGID_3_" gradientUnits="userSpaceOnUse" x1="-47.6865" y1="85.8171" x2="266.3134" y2="85.8171" gradientTransform="matrix(1 0 0 -1 0 130.0698)">
			<stop  offset="0.2809" style="stop-color:#FF7A41"/>
			<stop  offset="0.6685" style="stop-color:#FF4375"/>
			<stop  offset="0.8876" style="stop-color:#FF1D72"/>
			<stop  offset="1" style="stop-color:#FF006F"/>
		</linearGradient>
		<path fill="url(#SVGID_3_)" d="M144.263,38.093c0-3.689-1.767-8.09-10.182-8.09h-7.237v28.5h3.821V46.376h4.155l6.973,12.127
			h4.575l-7.559-12.838C142.43,44.407,144.263,41.865,144.263,38.093z M130.666,33.592h3.3c5.591,0,6.361,2.163,6.361,4.501
			c0,2.032-0.619,4.734-5.974,4.734h-3.688L130.666,33.592L130.666,33.592z"/>
		
			<linearGradient id="SVGID_4_" gradientUnits="userSpaceOnUse" x1="-47.6865" y1="85.8171" x2="266.3135" y2="85.8171" gradientTransform="matrix(1 0 0 -1 0 130.0698)">
			<stop  offset="0.2809" style="stop-color:#FF7A41"/>
			<stop  offset="0.6685" style="stop-color:#FF4375"/>
			<stop  offset="0.8876" style="stop-color:#FF1D72"/>
			<stop  offset="1" style="stop-color:#FF006F"/>
		</linearGradient>
		<polygon fill="url(#SVGID_4_)" points="162.643,33.669 170.585,33.669 170.585,58.503 174.406,58.503 174.406,33.669 
			182.179,33.669 182.691,30.003 162.643,30.003 		"/>
		
			<linearGradient id="SVGID_5_" gradientUnits="userSpaceOnUse" x1="-47.6865" y1="85.8171" x2="266.3135" y2="85.8171" gradientTransform="matrix(1 0 0 -1 0 130.0698)">
			<stop  offset="0.2809" style="stop-color:#FF7A41"/>
			<stop  offset="0.6685" style="stop-color:#FF4375"/>
			<stop  offset="0.8876" style="stop-color:#FF1D72"/>
			<stop  offset="1" style="stop-color:#FF006F"/>
		</linearGradient>
		<polygon fill="url(#SVGID_5_)" points="202.82,58.503 206.64,58.503 206.64,45.951 216.017,45.951 216.017,42.401 206.64,42.401 
			206.64,33.592 217.353,33.592 217.877,30.003 202.82,30.003 		"/>
		
			<linearGradient id="SVGID_6_" gradientUnits="userSpaceOnUse" x1="-47.6865" y1="85.7966" x2="266.3135" y2="85.7966" gradientTransform="matrix(1 0 0 -1 0 130.0698)">
			<stop  offset="0.2809" style="stop-color:#FF7A41"/>
			<stop  offset="0.6685" style="stop-color:#FF4375"/>
			<stop  offset="0.8876" style="stop-color:#FF1D72"/>
			<stop  offset="1" style="stop-color:#FF006F"/>
		</linearGradient>
		<path fill="url(#SVGID_6_)" d="M248.644,29.616c-7.078,0-11.653,5.776-11.653,14.715c0,9.005,4.466,14.6,11.653,14.6
			c7.213,0,11.692-5.608,11.692-14.638C260.336,35.24,255.856,29.616,248.644,29.616z M248.644,55.302
			c-4.903,0-7.717-3.999-7.717-10.972c0-7.175,2.74-11.126,7.717-11.126c5.002,0,7.756,3.938,7.756,11.088
			C256.399,49.315,255.054,55.302,248.644,55.302z"/>
		
			<linearGradient id="SVGID_7_" gradientUnits="userSpaceOnUse" x1="-47.6865" y1="85.8171" x2="266.3135" y2="85.8171" gradientTransform="matrix(1 0 0 -1 0 130.0698)">
			<stop  offset="0.2809" style="stop-color:#FF7A41"/>
			<stop  offset="0.6685" style="stop-color:#FF4375"/>
			<stop  offset="0.8876" style="stop-color:#FF1D72"/>
			<stop  offset="1" style="stop-color:#FF006F"/>
		</linearGradient>
		<polygon fill="url(#SVGID_7_)" points="286.76,30.003 282.938,30.003 282.938,58.503 297.5,58.503 298.089,54.798 286.76,54.798 
					"/>
		
			<linearGradient id="SVGID_8_" gradientUnits="userSpaceOnUse" x1="-47.6865" y1="85.8171" x2="266.3135" y2="85.8171" gradientTransform="matrix(1 0 0 -1 0 130.0698)">
			<stop  offset="0.2809" style="stop-color:#FF7A41"/>
			<stop  offset="0.6685" style="stop-color:#FF4375"/>
			<stop  offset="0.8876" style="stop-color:#FF1D72"/>
			<stop  offset="1" style="stop-color:#FF006F"/>
		</linearGradient>
		<rect x="318.583" y="30.003" fill="url(#SVGID_8_)" width="3.82" height="28.5"/>
		
			<linearGradient id="SVGID_9_" gradientUnits="userSpaceOnUse" x1="-47.6865" y1="85.7966" x2="266.3135" y2="85.7966" gradientTransform="matrix(1 0 0 -1 0 130.0698)">
			<stop  offset="0.2809" style="stop-color:#FF7A41"/>
			<stop  offset="0.6685" style="stop-color:#FF4375"/>
			<stop  offset="0.8876" style="stop-color:#FF1D72"/>
			<stop  offset="1" style="stop-color:#FF006F"/>
		</linearGradient>
		<path fill="url(#SVGID_9_)" d="M356.659,29.616c-7.08,0-11.654,5.776-11.654,14.715c0,9.005,4.466,14.6,11.654,14.6
			c7.212,0,11.691-5.608,11.691-14.638C368.351,35.24,363.871,29.616,356.659,29.616z M356.659,55.302
			c-4.904,0-7.718-3.999-7.718-10.972c0-7.175,2.74-11.126,7.718-11.126c5.001,0,7.755,3.938,7.755,11.088
			C364.414,49.315,363.068,55.302,356.659,55.302z"/>
	</g>
	<g>
		
			<linearGradient id="SVGID_10_" gradientUnits="userSpaceOnUse" x1="-47.6865" y1="85.7976" x2="266.3135" y2="85.7976" gradientTransform="matrix(1 0 0 -1 0 130.0698)">
			<stop  offset="0.2809" style="stop-color:#FF7A41"/>
			<stop  offset="0.6685" style="stop-color:#FF4375"/>
			<stop  offset="0.8876" style="stop-color:#FF1D72"/>
			<stop  offset="1" style="stop-color:#FF006F"/>
		</linearGradient>
		<path fill="url(#SVGID_10_)" d="M396.814,77.714h-382V10.831h382V77.714z M19.814,72.714h372V15.831h-372V72.714z"/>
	</g>
</g>
<g>
	<g>
		<path d="M135.502,102.782c0,2.936-2.136,4.143-4.958,4.143h-1.615v4.697h-1.765V98.827h3.361
			C133.608,98.827,135.502,100.09,135.502,102.782z M133.626,102.801c0-1.911-1.225-2.6-3.119-2.6h-1.578v5.33h1.541
			C132.364,105.532,133.626,104.973,133.626,102.801z"/>
		<path d="M155.812,100.239h-4.958v4.178h4.308v1.412h-4.308v4.383h5.312v1.41h-7.076V98.827h6.928L155.812,100.239z"/>
		<path d="M173.912,106.2h-1.987v5.422h-1.764V98.827h3.361c3.193,0,4.865,1.228,4.865,3.621c0,1.803-0.929,2.879-2.768,3.436
			l3.455,5.738h-2.099L173.912,106.2z M173.708,104.844c1.783,0,2.805-0.67,2.805-2.396c0-1.596-0.91-2.246-3.009-2.246h-1.579
			v4.643L173.708,104.844L173.708,104.844z"/>
		<path d="M199.645,100.09l-0.966,1.076c-0.965-0.779-1.857-1.113-2.915-1.113c-1.282,0-2.303,0.595-2.303,1.82
			c0,1.076,0.501,1.596,2.804,2.301c2.043,0.634,3.789,1.433,3.789,3.884c0,2.229-1.69,3.786-4.568,3.786
			c-1.839,0-3.287-0.612-4.346-1.651l0.984-1.096c0.947,0.799,1.949,1.301,3.342,1.301c1.505,0,2.749-0.744,2.749-2.285
			c0-1.244-0.595-1.801-2.767-2.469c-2.488-0.763-3.789-1.709-3.789-3.695c0-1.969,1.672-3.344,4.029-3.344
			C197.453,98.604,198.567,99.124,199.645,100.09z"/>
		<path d="M223.763,105.233c0,4.233-2.191,6.61-5.404,6.61c-3.195,0-5.404-2.303-5.404-6.592c0-4.215,2.209-6.647,5.404-6.647
			C221.571,98.604,223.763,100.926,223.763,105.233z M214.829,105.252c0,3.695,1.449,5.146,3.529,5.146
			c2.154,0,3.526-1.449,3.526-5.164c0-3.676-1.336-5.181-3.526-5.181C216.222,100.052,214.829,101.557,214.829,105.252z"/>
		<path d="M246.745,111.622h-2.359l-5.199-10.863c0.094,1.06,0.242,2.619,0.242,4.996v5.867h-1.652V98.827h2.304l5.254,10.883
			c-0.037-0.297-0.24-2.34-0.24-3.899v-6.982h1.652L246.745,111.622L246.745,111.622z"/>
		<path d="M267.444,108.409h-4.846l-0.968,3.213h-1.782l4.104-12.795h2.229l4.084,12.795h-1.855L267.444,108.409z M267.017,106.979
			l-1.986-6.687l-2.006,6.687H267.017z"/>
		<path d="M285.135,110.081h5.257l-0.205,1.541h-6.814V98.827h1.764L285.135,110.081L285.135,110.081z"/>
	</g>
	<line fill="none" stroke="#000000" stroke-miterlimit="10" x1="299.478" y1="105.223" x2="314.698" y2="105.223"/>
	<line fill="none" stroke="#000000" stroke-miterlimit="10" x1="96.93" y1="105.223" x2="112.15" y2="105.223"/>
</g>
<linearGradient id="SVGID_11_" gradientUnits="userSpaceOnUse" x1="164.1816" y1="-72.0081" x2="256.5146" y2="-72.0081">
	<stop  offset="0.2809" style="stop-color:#FF7A41"/>
	<stop  offset="0.6685" style="stop-color:#FF4375"/>
	<stop  offset="0.8876" style="stop-color:#FF1D72"/>
	<stop  offset="1" style="stop-color:#FF006F"/>
</linearGradient>
<rect x="164.182" y="-107.446" fill="url(#SVGID_11_)" width="92.333" height="70.875"/>
</svg>
