<?xml version="1.0" encoding="utf-8"?>
<!-- Generator: Adobe Illustrator 16.0.0, SVG Export Plug-In . SVG Version: 6.00 Build 0)  -->
<!DOCTYPE svg PUBLIC "-//W3C//DTD SVG 1.1//EN" "http://www.w3.org/Graphics/SVG/1.1/DTD/svg11.dtd">
<svg version="1.1" id="Layer_1" xmlns="http://www.w3.org/2000/svg" xmlns:xlink="http://www.w3.org/1999/xlink" x="0px" y="0px"
	 width="411.627px" height="129.07px" viewBox="0 0 411.627 129.07" enable-background="new 0 0 411.627 129.07"
	 xml:space="preserve">
<g>
	<g>
		
			<linearGradient id="SVGID_1_" gradientUnits="userSpaceOnUse" x1="21.3135" y1="82.4382" x2="218.3135" y2="82.4382" gradientTransform="matrix(1 0 0 -1 0 130.0698)">
			<stop  offset="0.2809" style="stop-color:#FF7A41"/>
			<stop  offset="0.6685" style="stop-color:#FF4375"/>
			<stop  offset="0.8876" style="stop-color:#FF1D72"/>
			<stop  offset="1" style="stop-color:#FF006F"/>
		</linearGradient>
		<path fill="url(#SVGID_1_)" d="M50.204,33.382h-6.927v28.5h3.82V51.344h2.99c6.941,0,10.764-3.229,10.764-9.097
			C60.851,38.203,59.003,33.382,50.204,33.382z M50.126,47.794h-3.029V36.971h3.106c4.767,0,6.71,1.539,6.71,5.313
			C56.914,46.147,54.884,47.794,50.126,47.794z"/>
		
			<linearGradient id="SVGID_2_" gradientUnits="userSpaceOnUse" x1="21.3135" y1="82.4177" x2="218.3135" y2="82.4177" gradientTransform="matrix(1 0 0 -1 0 130.0698)">
			<stop  offset="0.2809" style="stop-color:#FF7A41"/>
			<stop  offset="0.6685" style="stop-color:#FF4375"/>
			<stop  offset="0.8876" style="stop-color:#FF1D72"/>
			<stop  offset="1" style="stop-color:#FF006F"/>
		</linearGradient>
		<path fill="url(#SVGID_2_)" d="M92.55,32.995c-7.08,0-11.654,5.776-11.654,14.715c0,9.005,4.466,14.6,11.654,14.6
			c7.212,0,11.692-5.608,11.692-14.638C104.243,38.619,99.762,32.995,92.55,32.995z M92.55,58.681
			c-4.904,0-7.718-3.999-7.718-10.973c0-7.175,2.741-11.126,7.718-11.126c5.001,0,7.755,3.938,7.755,11.088
			C100.305,52.694,98.959,58.681,92.55,58.681z"/>
		
			<linearGradient id="SVGID_3_" gradientUnits="userSpaceOnUse" x1="21.3135" y1="82.4382" x2="218.3135" y2="82.4382" gradientTransform="matrix(1 0 0 -1 0 130.0698)">
			<stop  offset="0.2809" style="stop-color:#FF7A41"/>
			<stop  offset="0.6685" style="stop-color:#FF4375"/>
			<stop  offset="0.8876" style="stop-color:#FF1D72"/>
			<stop  offset="1" style="stop-color:#FF006F"/>
		</linearGradient>
		<path fill="url(#SVGID_3_)" d="M144.263,41.472c0-3.69-1.767-8.091-10.182-8.091h-7.237v28.5h3.821V49.755h4.155l6.973,12.127
			h4.575l-7.559-12.838C142.43,47.785,144.263,45.243,144.263,41.472z M130.666,36.971h3.3c5.591,0,6.361,2.162,6.361,4.501
			c0,2.031-0.619,4.733-5.974,4.733h-3.688L130.666,36.971L130.666,36.971z"/>
		
			<linearGradient id="SVGID_4_" gradientUnits="userSpaceOnUse" x1="21.3135" y1="82.4382" x2="218.3135" y2="82.4382" gradientTransform="matrix(1 0 0 -1 0 130.0698)">
			<stop  offset="0.2809" style="stop-color:#FF7A41"/>
			<stop  offset="0.6685" style="stop-color:#FF4375"/>
			<stop  offset="0.8876" style="stop-color:#FF1D72"/>
			<stop  offset="1" style="stop-color:#FF006F"/>
		</linearGradient>
		<polygon fill="url(#SVGID_4_)" points="162.643,37.048 170.585,37.048 170.585,61.882 174.406,61.882 174.406,37.048 
			182.179,37.048 182.691,33.382 162.643,33.382 		"/>
		
			<linearGradient id="SVGID_5_" gradientUnits="userSpaceOnUse" x1="21.3135" y1="82.4382" x2="218.3135" y2="82.4382" gradientTransform="matrix(1 0 0 -1 0 130.0698)">
			<stop  offset="0.2809" style="stop-color:#FF7A41"/>
			<stop  offset="0.6685" style="stop-color:#FF4375"/>
			<stop  offset="0.8876" style="stop-color:#FF1D72"/>
			<stop  offset="1" style="stop-color:#FF006F"/>
		</linearGradient>
		<polygon fill="url(#SVGID_5_)" points="202.82,61.882 206.64,61.882 206.64,49.33 216.017,49.33 216.017,45.78 206.64,45.78 
			206.64,36.971 217.353,36.971 217.877,33.382 202.82,33.382 		"/>
		
			<linearGradient id="SVGID_6_" gradientUnits="userSpaceOnUse" x1="21.3135" y1="82.4177" x2="218.3135" y2="82.4177" gradientTransform="matrix(1 0 0 -1 0 130.0698)">
			<stop  offset="0.2809" style="stop-color:#FF7A41"/>
			<stop  offset="0.6685" style="stop-color:#FF4375"/>
			<stop  offset="0.8876" style="stop-color:#FF1D72"/>
			<stop  offset="1" style="stop-color:#FF006F"/>
		</linearGradient>
		<path fill="url(#SVGID_6_)" d="M248.644,32.995c-7.078,0-11.653,5.776-11.653,14.715c0,9.005,4.466,14.6,11.653,14.6
			c7.213,0,11.692-5.608,11.692-14.638C260.336,38.619,255.856,32.995,248.644,32.995z M248.644,58.681
			c-4.903,0-7.717-3.999-7.717-10.973c0-7.175,2.74-11.126,7.717-11.126c5.002,0,7.756,3.938,7.756,11.088
			C256.399,52.694,255.054,58.681,248.644,58.681z"/>
		
			<linearGradient id="SVGID_7_" gradientUnits="userSpaceOnUse" x1="21.3135" y1="82.4382" x2="218.3135" y2="82.4382" gradientTransform="matrix(1 0 0 -1 0 130.0698)">
			<stop  offset="0.2809" style="stop-color:#FF7A41"/>
			<stop  offset="0.6685" style="stop-color:#FF4375"/>
			<stop  offset="0.8876" style="stop-color:#FF1D72"/>
			<stop  offset="1" style="stop-color:#FF006F"/>
		</linearGradient>
		<polygon fill="url(#SVGID_7_)" points="286.76,33.382 282.938,33.382 282.938,61.882 297.5,61.882 298.089,58.177 286.76,58.177 
					"/>
		
			<linearGradient id="SVGID_8_" gradientUnits="userSpaceOnUse" x1="21.3135" y1="82.4382" x2="218.3135" y2="82.4382" gradientTransform="matrix(1 0 0 -1 0 130.0698)">
			<stop  offset="0.2809" style="stop-color:#FF7A41"/>
			<stop  offset="0.6685" style="stop-color:#FF4375"/>
			<stop  offset="0.8876" style="stop-color:#FF1D72"/>
			<stop  offset="1" style="stop-color:#FF006F"/>
		</linearGradient>
		<rect x="318.583" y="33.382" fill="url(#SVGID_8_)" width="3.82" height="28.5"/>
		
			<linearGradient id="SVGID_9_" gradientUnits="userSpaceOnUse" x1="21.3135" y1="82.4177" x2="218.3135" y2="82.4177" gradientTransform="matrix(1 0 0 -1 0 130.0698)">
			<stop  offset="0.2809" style="stop-color:#FF7A41"/>
			<stop  offset="0.6685" style="stop-color:#FF4375"/>
			<stop  offset="0.8876" style="stop-color:#FF1D72"/>
			<stop  offset="1" style="stop-color:#FF006F"/>
		</linearGradient>
		<path fill="url(#SVGID_9_)" d="M356.659,32.995c-7.08,0-11.654,5.776-11.654,14.715c0,9.005,4.466,14.6,11.654,14.6
			c7.212,0,11.691-5.608,11.691-14.638C368.351,38.619,363.871,32.995,356.659,32.995z M356.659,58.681
			c-4.904,0-7.718-3.999-7.718-10.973c0-7.175,2.74-11.126,7.718-11.126c5.001,0,7.755,3.938,7.755,11.088
			C364.414,52.694,363.068,58.681,356.659,58.681z"/>
	</g>
	<g>
		
			<linearGradient id="SVGID_10_" gradientUnits="userSpaceOnUse" x1="21.3135" y1="82.4197" x2="218.3135" y2="82.4197" gradientTransform="matrix(1 0 0 -1 0 130.0698)">
			<stop  offset="0.2809" style="stop-color:#FF7A41"/>
			<stop  offset="0.6685" style="stop-color:#FF4375"/>
			<stop  offset="0.8876" style="stop-color:#FF1D72"/>
			<stop  offset="1" style="stop-color:#FF006F"/>
		</linearGradient>
		<path fill="url(#SVGID_10_)" d="M396.814,81.093h-382V14.209h382V81.093z M19.814,76.093h372V19.209h-372V76.093z"/>
	</g>
</g>
<g>
	<g>
		<path d="M91.667,105.798c0,2.935-2.136,4.142-4.958,4.142h-1.616v4.699h-1.764v-12.798h3.361
			C89.772,101.841,91.667,103.105,91.667,105.798z M89.791,105.816c0-1.912-1.226-2.601-3.119-2.601h-1.579v5.33h1.542
			C88.528,108.546,89.791,107.99,89.791,105.816z"/>
		<path d="M109.004,109.214h-1.986v5.425h-1.765v-12.798h3.361c3.194,0,4.865,1.228,4.865,3.623c0,1.802-0.929,2.877-2.767,3.435
			l3.454,5.74h-2.099L109.004,109.214z M108.8,107.859c1.783,0,2.805-0.668,2.805-2.396c0-1.598-0.91-2.248-3.009-2.248h-1.578
			v4.644H108.8z"/>
		<path d="M137.412,108.25c0,4.234-2.191,6.611-5.404,6.611c-3.194,0-5.403-2.303-5.403-6.594c0-4.216,2.209-6.648,5.403-6.648
			C135.22,101.619,137.412,103.941,137.412,108.25z M128.479,108.267c0,3.696,1.448,5.145,3.528,5.145
			c2.154,0,3.528-1.447,3.528-5.162c0-3.678-1.337-5.182-3.528-5.182C129.872,103.068,128.479,104.572,128.479,108.267z"/>
		<path d="M158.018,103.253h-4.828v4.363h4.178v1.395h-4.178v5.628h-1.765v-12.798h6.797L158.018,103.253z"/>
		<path d="M178.403,103.253h-4.958v4.179h4.308v1.411h-4.308v4.384h5.311v1.412h-7.075v-12.798h6.927L178.403,103.253z"/>
		<path d="M199.864,103.105l-0.966,1.076c-0.965-0.779-1.856-1.113-2.915-1.113c-1.281,0-2.303,0.594-2.303,1.82
			c0,1.075,0.502,1.596,2.804,2.303c2.043,0.631,3.789,1.43,3.789,3.881c0,2.229-1.69,3.789-4.568,3.789
			c-1.839,0-3.287-0.613-4.346-1.652l0.984-1.096c0.947,0.799,1.95,1.299,3.343,1.299c1.504,0,2.748-0.742,2.748-2.283
			c0-1.246-0.594-1.803-2.767-2.471c-2.488-0.762-3.788-1.709-3.788-3.695c0-1.969,1.671-3.344,4.029-3.344
			C197.672,101.619,198.787,102.14,199.864,103.105z"/>
		<path d="M220.937,103.105l-0.967,1.076c-0.966-0.779-1.857-1.113-2.914-1.113c-1.283,0-2.304,0.594-2.304,1.82
			c0,1.075,0.501,1.596,2.804,2.303c2.043,0.631,3.789,1.43,3.789,3.881c0,2.229-1.689,3.789-4.568,3.789
			c-1.838,0-3.286-0.613-4.346-1.652l0.983-1.096c0.946,0.799,1.95,1.299,3.343,1.299c1.506,0,2.749-0.742,2.749-2.283
			c0-1.246-0.595-1.803-2.769-2.471c-2.487-0.762-3.787-1.709-3.787-3.695c0-1.969,1.671-3.344,4.029-3.344
			C218.745,101.619,219.858,102.14,220.937,103.105z"/>
		<path d="M236.845,114.638h-1.765v-12.798h1.765V114.638z"/>
		<path d="M261.668,108.25c0,4.234-2.19,6.611-5.403,6.611c-3.193,0-5.404-2.303-5.404-6.594c0-4.216,2.211-6.648,5.404-6.648
			C259.478,101.619,261.668,103.941,261.668,108.25z M252.737,108.267c0,3.696,1.447,5.145,3.527,5.145
			c2.153,0,3.528-1.447,3.528-5.162c0-3.678-1.338-5.182-3.528-5.182C254.129,103.068,252.737,104.572,252.737,108.267z"/>
		<path d="M284.651,114.638h-2.357l-5.199-10.865c0.094,1.059,0.241,2.619,0.241,4.996v5.869h-1.651v-12.798h2.303l5.255,10.886
			c-0.037-0.3-0.241-2.343-0.241-3.902v-6.982h1.652v12.797H284.651z"/>
		<path d="M305.351,111.425h-4.847l-0.966,3.214h-1.782l4.104-12.798h2.229l4.086,12.798h-1.856L305.351,111.425z M304.924,109.994
			l-1.987-6.684l-2.004,6.684H304.924z"/>
		<path d="M323.043,113.097h5.255l-0.204,1.541h-6.814v-12.798h1.765L323.043,113.097L323.043,113.097z"/>
	</g>
	<line fill="none" stroke="#000000" stroke-miterlimit="10" x1="340.28" y1="108.24" x2="355.5" y2="108.24"/>
	<line fill="none" stroke="#000000" stroke-miterlimit="10" x1="56.126" y1="108.24" x2="71.347" y2="108.24"/>
</g>
<linearGradient id="SVGID_11_" gradientUnits="userSpaceOnUse" x1="282.1318" y1="-77.0081" x2="374.4648" y2="-77.0081">
	<stop  offset="0.2809" style="stop-color:#FF7A41"/>
	<stop  offset="0.6685" style="stop-color:#FF4375"/>
	<stop  offset="0.8876" style="stop-color:#FF1D72"/>
	<stop  offset="1" style="stop-color:#FF006F"/>
</linearGradient>
<rect x="282.132" y="-112.446" fill="url(#SVGID_11_)" width="92.333" height="70.875"/>
</svg>
