<?xml version="1.0" encoding="utf-8"?>
<!-- Generator: Adobe Illustrator 16.0.0, SVG Export Plug-In . SVG Version: 6.00 Build 0)  -->
<!DOCTYPE svg PUBLIC "-//W3C//DTD SVG 1.1//EN" "http://www.w3.org/Graphics/SVG/1.1/DTD/svg11.dtd">
<svg version="1.1" id="Layer_1" xmlns="http://www.w3.org/2000/svg" xmlns:xlink="http://www.w3.org/1999/xlink" x="0px" y="0px"
	 width="197.977px" height="128.236px" viewBox="0 0 197.977 128.236" enable-background="new 0 0 197.977 128.236"
	 xml:space="preserve">
<g>
	
		<linearGradient id="SVGID_1_" gradientUnits="userSpaceOnUse" x1="43.5837" y1="-102.6443" x2="43.5837" y2="367.5751" gradientTransform="matrix(1 0 0 -1 0 129.2368)">
		<stop  offset="0.2809" style="stop-color:#FF7A41"/>
		<stop  offset="0.6685" style="stop-color:#FF4375"/>
		<stop  offset="0.8876" style="stop-color:#FF1D72"/>
		<stop  offset="1" style="stop-color:#FF006F"/>
	</linearGradient>
	<polygon fill="url(#SVGID_1_)" points="80.162,12.823 87.168,0 79.831,0 72.556,0 8.015,0 0,12.823 65.547,12.823 9.494,115.414 
		2.487,128.237 17.1,128.237 24.106,115.414 77.325,18.014 	"/>
	
		<linearGradient id="SVGID_2_" gradientUnits="userSpaceOnUse" x1="106.6321" y1="-128.4104" x2="106.632" y2="394.0622" gradientTransform="matrix(1 0 0 -1 0 129.2368)">
		<stop  offset="0.2809" style="stop-color:#FF7A41"/>
		<stop  offset="0.6685" style="stop-color:#FF4375"/>
		<stop  offset="0.8876" style="stop-color:#FF1D72"/>
		<stop  offset="1" style="stop-color:#FF006F"/>
	</linearGradient>
	<path fill="url(#SVGID_2_)" d="M190.896,89.767h-7.271c-8.869,15.331-25.447,25.647-44.433,25.647c-0.51,0-1.014-0.011-1.52-0.024
		c-0.157-0.005-0.312-0.012-0.47-0.018c-0.354-0.016-0.708-0.03-1.061-0.05c-0.172-0.013-0.344-0.021-0.514-0.033
		c-0.361-0.025-0.719-0.056-1.076-0.086c-0.143-0.014-0.288-0.024-0.432-0.039c-0.498-0.049-0.996-0.104-1.488-0.166
		c-0.025-0.003-0.048-0.007-0.07-0.011c-0.471-0.061-0.938-0.129-1.403-0.201c-0.144-0.022-0.283-0.049-0.425-0.07
		c-0.355-0.059-0.711-0.12-1.063-0.188c-0.15-0.027-0.301-0.056-0.449-0.086c-0.373-0.074-0.748-0.151-1.117-0.232
		c-0.11-0.024-0.223-0.048-0.331-0.072c-0.491-0.111-0.978-0.229-1.462-0.354c-0.013-0.005-0.024-0.009-0.041-0.013
		c-0.461-0.119-0.921-0.246-1.377-0.379c-0.115-0.034-0.23-0.068-0.348-0.104c-0.365-0.108-0.728-0.222-1.088-0.338
		c-0.12-0.038-0.24-0.077-0.361-0.117c-0.396-0.13-0.789-0.267-1.181-0.405c-0.067-0.024-0.135-0.048-0.202-0.071
		c-0.938-0.34-1.861-0.707-2.771-1.1c-0.094-0.039-0.186-0.08-0.277-0.12c-0.366-0.161-0.73-0.324-1.094-0.493
		c-0.092-0.043-0.187-0.086-0.278-0.131c-0.41-0.193-0.818-0.393-1.223-0.598c-0.027-0.015-0.056-0.027-0.085-0.041
		c-0.457-0.232-0.912-0.473-1.36-0.719l0.002,0.002c-2.91-1.592-5.648-3.455-8.183-5.559c-11.332-9.408-18.548-23.6-18.548-39.479
		c0-28.33,22.964-51.297,51.296-51.297c15.896,0,30.103,7.233,39.511,18.587c0.106,0.13,0.213,0.263,0.319,0.394
		c0.209,0.256,0.414,0.514,0.617,0.774c0.094,0.121,0.188,0.239,0.283,0.36c0.27,0.353,0.531,0.706,0.793,1.063
		c0.086,0.12,0.172,0.242,0.258,0.36c0.23,0.322,0.457,0.646,0.678,0.975c0.05,0.072,0.101,0.144,0.148,0.217
		c0.264,0.392,0.52,0.788,0.773,1.188c0.063,0.102,0.129,0.205,0.192,0.307c0.258,0.415,0.51,0.83,0.754,1.251h2.986h4.303h7.09
		C187.967,15.745,165.42,0,139.193,0c-0.512,0-1.021,0.006-1.526,0.019c0.001,0,0.003,0,0.006,0
		c-0.385,0.009-0.769,0.024-1.148,0.04c-0.002,0-0.002,0-0.002,0c-0.004,0-0.006,0.001-0.01,0.001
		c-0.557,0.022-1.111,0.052-1.665,0.09c-0.01,0-0.021,0-0.032,0.001h0.001c-33.37,2.251-59.741,30.027-59.741,63.97
		c0,12.432,3.537,24.037,9.663,33.864c0,0,0-0.002-0.001-0.002c0.004,0.007,0.008,0.01,0.009,0.015
		c0.363,0.584,0.738,1.16,1.121,1.731c0.075,0.113,0.154,0.226,0.23,0.336c0.309,0.455,0.62,0.904,0.939,1.351
		c0.037,0.053,0.073,0.107,0.111,0.161c0.173,0.24,0.352,0.479,0.528,0.718c0.129,0.176,0.26,0.351,0.393,0.522
		c0.239,0.316,0.482,0.632,0.728,0.941c0.128,0.161,0.253,0.321,0.383,0.48c0.256,0.318,0.514,0.637,0.776,0.948
		c0.122,0.148,0.248,0.295,0.372,0.441c0.27,0.316,0.541,0.631,0.815,0.941c0.128,0.145,0.257,0.288,0.386,0.432
		c0.291,0.324,0.589,0.646,0.887,0.967c0.101,0.107,0.202,0.214,0.303,0.319c0.31,0.324,0.62,0.646,0.936,0.963
		c0.122,0.124,0.246,0.248,0.37,0.37c0.338,0.336,0.679,0.668,1.022,0.996c0.063,0.061,0.129,0.122,0.193,0.182
		c0.354,0.334,0.712,0.662,1.071,0.988c0.116,0.103,0.231,0.207,0.351,0.311c0.382,0.34,0.769,0.676,1.157,1.006
		c0.028,0.024,0.058,0.047,0.085,0.072c0.396,0.334,0.8,0.662,1.205,0.987c0.109,0.087,0.22,0.175,0.329,0.263
		c0.421,0.334,0.848,0.664,1.278,0.988H22.293l-7.007,12.822h123.906c26.293,0,48.89-15.824,58.783-38.471h-7.08V89.767z"/>
</g>
<linearGradient id="SVGID_3_" gradientUnits="userSpaceOnUse" x1="424.6321" y1="64.9924" x2="516.9651" y2="64.9924">
	<stop  offset="0.2809" style="stop-color:#FF7A41"/>
	<stop  offset="0.6685" style="stop-color:#FF4375"/>
	<stop  offset="0.8876" style="stop-color:#FF1D72"/>
	<stop  offset="1" style="stop-color:#FF006F"/>
</linearGradient>
<rect x="424.632" y="29.554" fill="url(#SVGID_3_)" width="92.333" height="70.876"/>
</svg>
